var midi = {
  "header": {
    "PPQ": 96,
    "timeSignature": [
      4,
      4
    ],
    "bpm": 120,
    "name": ""
  },
  "tempo": [],
  "timeSignature": [
    {
      "absoluteTime": 0,
      "seconds": 0,
      "numerator": 4,
      "denominator": 2,
      "click": 36,
      "notesQ": 8
    },
    {
      "absoluteTime": 0,
      "seconds": 0,
      "numerator": 4,
      "denominator": 2,
      "click": 36,
      "notesQ": 8
    }
  ],
  "startTime": 12,
  "duration": 136,
  "tracks": [
    {
      "startTime": 12,
      "duration": 136,
      "length": 334,
      "notes": [
        {
          "name": "F#4",
          "midi": 66,
          "time": 12,
          "velocity": 0.7874015748031497,
          "duration": 0.25
        },
        {
          "name": "A4",
          "midi": 69,
          "time": 12.25,
          "velocity": 0.7874015748031497,
          "duration": 0.25
        },
        {
          "name": "G#4",
          "midi": 68,
          "time": 12.5,
          "velocity": 0.7874015748031497,
          "duration": 0.25
        },
        {
          "name": "F#4",
          "midi": 66,
          "time": 12.75,
          "velocity": 0.7874015748031497,
          "duration": 0.25
        },
        {
          "name": "G#4",
          "midi": 68,
          "time": 13,
          "velocity": 0.7874015748031497,
          "duration": 0.25
        },
        {
          "name": "C#4",
          "midi": 61,
          "time": 13.25,
          "velocity": 0.7874015748031497,
          "duration": 0.25
        },
        {
          "name": "E4",
          "midi": 64,
          "time": 13.5,
          "velocity": 0.7874015748031497,
          "duration": 0.25
        },
        {
          "name": "E4",
          "midi": 64,
          "time": 13.875,
          "velocity": 0.7874015748031497,
          "duration": 0.125
        },
        {
          "name": "F#4",
          "midi": 66,
          "time": 14,
          "velocity": 0.7874015748031497,
          "duration": 0.25
        },
        {
          "name": "A4",
          "midi": 69,
          "time": 14.25,
          "velocity": 0.7874015748031497,
          "duration": 0.25
        },
        {
          "name": "G#4",
          "midi": 68,
          "time": 14.5,
          "velocity": 0.7874015748031497,
          "duration": 0.25
        },
        {
          "name": "F#4",
          "midi": 66,
          "time": 14.75,
          "velocity": 0.7874015748031497,
          "duration": 0.25
        },
        {
          "name": "E4",
          "midi": 64,
          "time": 15,
          "velocity": 0.7874015748031497,
          "duration": 0.25
        },
        {
          "name": "D#4",
          "midi": 63,
          "time": 15.25,
          "velocity": 0.7874015748031497,
          "duration": 0.25
        },
        {
          "name": "C#4",
          "midi": 61,
          "time": 15.5,
          "velocity": 0.7874015748031497,
          "duration": 0.25
        },
        {
          "name": "D#4",
          "midi": 63,
          "time": 15.75,
          "velocity": 0.7874015748031497,
          "duration": 0.25
        },
        {
          "name": "C#4",
          "midi": 61,
          "time": 16,
          "velocity": 0.7874015748031497,
          "duration": 0.25
        },
        {
          "name": "F#4",
          "midi": 66,
          "time": 20,
          "velocity": 0.7874015748031497,
          "duration": 0.25
        },
        {
          "name": "A4",
          "midi": 69,
          "time": 20.25,
          "velocity": 0.7874015748031497,
          "duration": 0.25
        },
        {
          "name": "G#4",
          "midi": 68,
          "time": 20.5,
          "velocity": 0.7874015748031497,
          "duration": 0.25
        },
        {
          "name": "F#4",
          "midi": 66,
          "time": 20.75,
          "velocity": 0.7874015748031497,
          "duration": 0.25
        },
        {
          "name": "G#4",
          "midi": 68,
          "time": 21,
          "velocity": 0.7874015748031497,
          "duration": 0.25
        },
        {
          "name": "C#4",
          "midi": 61,
          "time": 21.25,
          "velocity": 0.7874015748031497,
          "duration": 0.25
        },
        {
          "name": "E4",
          "midi": 64,
          "time": 21.5,
          "velocity": 0.7874015748031497,
          "duration": 0.25
        },
        {
          "name": "F#4",
          "midi": 66,
          "time": 22,
          "velocity": 0.7874015748031497,
          "duration": 0.25
        },
        {
          "name": "A4",
          "midi": 69,
          "time": 22.25,
          "velocity": 0.7874015748031497,
          "duration": 0.25
        },
        {
          "name": "G#4",
          "midi": 68,
          "time": 22.5,
          "velocity": 0.7874015748031497,
          "duration": 0.25
        },
        {
          "name": "F#4",
          "midi": 66,
          "time": 22.75,
          "velocity": 0.7874015748031497,
          "duration": 0.25
        },
        {
          "name": "G#4",
          "midi": 68,
          "time": 23,
          "velocity": 0.7874015748031497,
          "duration": 0.25
        },
        {
          "name": "B4",
          "midi": 71,
          "time": 23.25,
          "velocity": 0.7874015748031497,
          "duration": 0.25
        },
        {
          "name": "C5",
          "midi": 72,
          "time": 23.5,
          "velocity": 0.7874015748031497,
          "duration": 0.5
        },
        {
          "name": "G#4",
          "midi": 68,
          "time": 32.25,
          "velocity": 0.7874015748031497,
          "duration": 0.25
        },
        {
          "name": "G#4",
          "midi": 68,
          "time": 32.5,
          "velocity": 0.7874015748031497,
          "duration": 0.125
        },
        {
          "name": "F#4",
          "midi": 66,
          "time": 32.625,
          "velocity": 0.7874015748031497,
          "duration": 0.125
        },
        {
          "name": "E4",
          "midi": 64,
          "time": 32.75,
          "velocity": 0.7874015748031497,
          "duration": 0.125
        },
        {
          "name": "F#4",
          "midi": 66,
          "time": 32.875,
          "velocity": 0.7874015748031497,
          "duration": 0.125
        },
        {
          "name": "E4",
          "midi": 64,
          "time": 33,
          "velocity": 0.7874015748031497,
          "duration": 0.125
        },
        {
          "name": "G#4",
          "midi": 68,
          "time": 33.25,
          "velocity": 0.7874015748031497,
          "duration": 0.25
        },
        {
          "name": "G#4",
          "midi": 68,
          "time": 33.5,
          "velocity": 0.7874015748031497,
          "duration": 0.125
        },
        {
          "name": "F#4",
          "midi": 66,
          "time": 33.625,
          "velocity": 0.7874015748031497,
          "duration": 0.125
        },
        {
          "name": "E4",
          "midi": 64,
          "time": 33.75,
          "velocity": 0.7874015748031497,
          "duration": 0.125
        },
        {
          "name": "F#4",
          "midi": 66,
          "time": 33.875,
          "velocity": 0.7874015748031497,
          "duration": 0.125
        },
        {
          "name": "E4",
          "midi": 64,
          "time": 34,
          "velocity": 0.7874015748031497,
          "duration": 0.125
        },
        {
          "name": "G#4",
          "midi": 68,
          "time": 34.25,
          "velocity": 0.7874015748031497,
          "duration": 0.25
        },
        {
          "name": "G#4",
          "midi": 68,
          "time": 34.5,
          "velocity": 0.7874015748031497,
          "duration": 0.125
        },
        {
          "name": "F#4",
          "midi": 66,
          "time": 34.625,
          "velocity": 0.7874015748031497,
          "duration": 0.125
        },
        {
          "name": "E4",
          "midi": 64,
          "time": 34.75,
          "velocity": 0.7874015748031497,
          "duration": 0.125
        },
        {
          "name": "F#4",
          "midi": 66,
          "time": 34.875,
          "velocity": 0.7874015748031497,
          "duration": 0.125
        },
        {
          "name": "G#4",
          "midi": 68,
          "time": 35,
          "velocity": 0.7874015748031497,
          "duration": 0.125
        },
        {
          "name": "A4",
          "midi": 69,
          "time": 35.125,
          "velocity": 0.7874015748031497,
          "duration": 0.125
        },
        {
          "name": "G#4",
          "midi": 68,
          "time": 35.25,
          "velocity": 0.7874015748031497,
          "duration": 0.125
        },
        {
          "name": "E4",
          "midi": 64,
          "time": 35.375,
          "velocity": 0.7874015748031497,
          "duration": 0.625
        },
        {
          "name": "E4",
          "midi": 64,
          "time": 36.25,
          "velocity": 0.7874015748031497,
          "duration": 0.125
        },
        {
          "name": "E4",
          "midi": 64,
          "time": 36.375,
          "velocity": 0.7874015748031497,
          "duration": 0.125
        },
        {
          "name": "E4",
          "midi": 64,
          "time": 36.5,
          "velocity": 0.7874015748031497,
          "duration": 0.125
        },
        {
          "name": "E4",
          "midi": 64,
          "time": 36.625,
          "velocity": 0.7874015748031497,
          "duration": 0.125
        },
        {
          "name": "C#4",
          "midi": 61,
          "time": 36.75,
          "velocity": 0.7874015748031497,
          "duration": 0.125
        },
        {
          "name": "C#4",
          "midi": 61,
          "time": 36.875,
          "velocity": 0.7874015748031497,
          "duration": 0.125
        },
        {
          "name": "E4",
          "midi": 64,
          "time": 37.25,
          "velocity": 0.7874015748031497,
          "duration": 0.125
        },
        {
          "name": "E4",
          "midi": 64,
          "time": 37.375,
          "velocity": 0.7874015748031497,
          "duration": 0.125
        },
        {
          "name": "E4",
          "midi": 64,
          "time": 37.5,
          "velocity": 0.7874015748031497,
          "duration": 0.125
        },
        {
          "name": "E4",
          "midi": 64,
          "time": 37.625,
          "velocity": 0.7874015748031497,
          "duration": 0.125
        },
        {
          "name": "C#4",
          "midi": 61,
          "time": 37.75,
          "velocity": 0.7874015748031497,
          "duration": 0.125
        },
        {
          "name": "C#4",
          "midi": 61,
          "time": 37.875,
          "velocity": 0.7874015748031497,
          "duration": 0.125
        },
        {
          "name": "E4",
          "midi": 64,
          "time": 38.25,
          "velocity": 0.7874015748031497,
          "duration": 0.125
        },
        {
          "name": "E4",
          "midi": 64,
          "time": 38.375,
          "velocity": 0.7874015748031497,
          "duration": 0.125
        },
        {
          "name": "E4",
          "midi": 64,
          "time": 38.5,
          "velocity": 0.7874015748031497,
          "duration": 0.125
        },
        {
          "name": "C#4",
          "midi": 61,
          "time": 38.625,
          "velocity": 0.7874015748031497,
          "duration": 0.125
        },
        {
          "name": "E4",
          "midi": 64,
          "time": 38.75,
          "velocity": 0.7874015748031497,
          "duration": 0.125
        },
        {
          "name": "F#4",
          "midi": 66,
          "time": 38.875,
          "velocity": 0.7874015748031497,
          "duration": 0.125
        },
        {
          "name": "D#4",
          "midi": 63,
          "time": 39,
          "velocity": 0.7874015748031497,
          "duration": 0.125
        },
        {
          "name": "G#4",
          "midi": 68,
          "time": 39.25,
          "velocity": 0.7874015748031497,
          "duration": 0.25
        },
        {
          "name": "G#4",
          "midi": 68,
          "time": 39.5,
          "velocity": 0.7874015748031497,
          "duration": 0.25
        },
        {
          "name": "A4",
          "midi": 69,
          "time": 39.75,
          "velocity": 0.7874015748031497,
          "duration": 0.25
        },
        {
          "name": "F#4",
          "midi": 66,
          "time": 40,
          "velocity": 0.7874015748031497,
          "duration": 0.5
        },
        {
          "name": "E4",
          "midi": 64,
          "time": 40.5,
          "velocity": 0.7874015748031497,
          "duration": 0.5
        },
        {
          "name": "C#4",
          "midi": 61,
          "time": 41.875,
          "velocity": 0.7874015748031497,
          "duration": 0.125
        },
        {
          "name": "E4",
          "midi": 64,
          "time": 42,
          "velocity": 0.7874015748031497,
          "duration": 0.25
        },
        {
          "name": "E4",
          "midi": 64,
          "time": 42.25,
          "velocity": 0.7874015748031497,
          "duration": 0.125
        },
        {
          "name": "C#4",
          "midi": 61,
          "time": 42.375,
          "velocity": 0.7874015748031497,
          "duration": 0.125
        },
        {
          "name": "E4",
          "midi": 64,
          "time": 42.5,
          "velocity": 0.7874015748031497,
          "duration": 0.125
        },
        {
          "name": "F#4",
          "midi": 66,
          "time": 42.625,
          "velocity": 0.7874015748031497,
          "duration": 0.25
        },
        {
          "name": "G#4",
          "midi": 68,
          "time": 42.875,
          "velocity": 0.7874015748031497,
          "duration": 0.25
        },
        {
          "name": "G#4",
          "midi": 68,
          "time": 43.125,
          "velocity": 0.7874015748031497,
          "duration": 0.25
        },
        {
          "name": "G#4",
          "midi": 68,
          "time": 43.375,
          "velocity": 0.7874015748031497,
          "duration": 0.25
        },
        {
          "name": "G#4",
          "midi": 68,
          "time": 43.625,
          "velocity": 0.7874015748031497,
          "duration": 0.125
        },
        {
          "name": "A4",
          "midi": 69,
          "time": 43.75,
          "velocity": 0.7874015748031497,
          "duration": 0.25
        },
        {
          "name": "F#4",
          "midi": 66,
          "time": 44,
          "velocity": 0.7874015748031497,
          "duration": 0.5
        },
        {
          "name": "E4",
          "midi": 64,
          "time": 44.5,
          "velocity": 0.7874015748031497,
          "duration": 0.5
        },
        {
          "name": "C#4",
          "midi": 61,
          "time": 45.875,
          "velocity": 0.7874015748031497,
          "duration": 0.125
        },
        {
          "name": "E4",
          "midi": 64,
          "time": 46,
          "velocity": 0.7874015748031497,
          "duration": 0.25
        },
        {
          "name": "E4",
          "midi": 64,
          "time": 46.25,
          "velocity": 0.7874015748031497,
          "duration": 0.125
        },
        {
          "name": "C#4",
          "midi": 61,
          "time": 46.375,
          "velocity": 0.7874015748031497,
          "duration": 0.125
        },
        {
          "name": "E4",
          "midi": 64,
          "time": 46.5,
          "velocity": 0.7874015748031497,
          "duration": 0.125
        },
        {
          "name": "F#4",
          "midi": 66,
          "time": 46.625,
          "velocity": 0.7874015748031497,
          "duration": 0.25
        },
        {
          "name": "D#4",
          "midi": 63,
          "time": 46.875,
          "velocity": 0.7874015748031497,
          "duration": 0.25
        },
        {
          "name": "G#4",
          "midi": 68,
          "time": 47.125,
          "velocity": 0.7874015748031497,
          "duration": 0.25
        },
        {
          "name": "G#4",
          "midi": 68,
          "time": 47.375,
          "velocity": 0.7874015748031497,
          "duration": 0.25
        },
        {
          "name": "G#4",
          "midi": 68,
          "time": 47.625,
          "velocity": 0.7874015748031497,
          "duration": 0.125
        },
        {
          "name": "A4",
          "midi": 69,
          "time": 47.75,
          "velocity": 0.7874015748031497,
          "duration": 0.25
        },
        {
          "name": "F#4",
          "midi": 66,
          "time": 48,
          "velocity": 0.7874015748031497,
          "duration": 0.5
        },
        {
          "name": "E4",
          "midi": 64,
          "time": 48.5,
          "velocity": 0.7874015748031497,
          "duration": 0.5
        },
        {
          "name": "C#4",
          "midi": 61,
          "time": 49.875,
          "velocity": 0.7874015748031497,
          "duration": 0.125
        },
        {
          "name": "E4",
          "midi": 64,
          "time": 50,
          "velocity": 0.7874015748031497,
          "duration": 0.25
        },
        {
          "name": "E4",
          "midi": 64,
          "time": 50.25,
          "velocity": 0.7874015748031497,
          "duration": 0.125
        },
        {
          "name": "C#4",
          "midi": 61,
          "time": 50.375,
          "velocity": 0.7874015748031497,
          "duration": 0.125
        },
        {
          "name": "E4",
          "midi": 64,
          "time": 50.5,
          "velocity": 0.7874015748031497,
          "duration": 0.125
        },
        {
          "name": "F#4",
          "midi": 66,
          "time": 50.625,
          "velocity": 0.7874015748031497,
          "duration": 0.25
        },
        {
          "name": "G#4",
          "midi": 68,
          "time": 50.875,
          "velocity": 0.7874015748031497,
          "duration": 0.25
        },
        {
          "name": "G#4",
          "midi": 68,
          "time": 51.125,
          "velocity": 0.7874015748031497,
          "duration": 0.25
        },
        {
          "name": "G#4",
          "midi": 68,
          "time": 51.375,
          "velocity": 0.7874015748031497,
          "duration": 0.25
        },
        {
          "name": "G#4",
          "midi": 68,
          "time": 51.625,
          "velocity": 0.7874015748031497,
          "duration": 0.125
        },
        {
          "name": "A4",
          "midi": 69,
          "time": 51.75,
          "velocity": 0.7874015748031497,
          "duration": 0.25
        },
        {
          "name": "F#4",
          "midi": 66,
          "time": 52,
          "velocity": 0.7874015748031497,
          "duration": 0.5
        },
        {
          "name": "E4",
          "midi": 64,
          "time": 52.5,
          "velocity": 0.7874015748031497,
          "duration": 0.5
        },
        {
          "name": "C#4",
          "midi": 61,
          "time": 53.875,
          "velocity": 0.7874015748031497,
          "duration": 0.125
        },
        {
          "name": "E4",
          "midi": 64,
          "time": 54,
          "velocity": 0.7874015748031497,
          "duration": 0.25
        },
        {
          "name": "E4",
          "midi": 64,
          "time": 54.25,
          "velocity": 0.7874015748031497,
          "duration": 0.125
        },
        {
          "name": "C#4",
          "midi": 61,
          "time": 54.375,
          "velocity": 0.7874015748031497,
          "duration": 0.125
        },
        {
          "name": "E4",
          "midi": 64,
          "time": 54.5,
          "velocity": 0.7874015748031497,
          "duration": 0.125
        },
        {
          "name": "F#4",
          "midi": 66,
          "time": 54.625,
          "velocity": 0.7874015748031497,
          "duration": 0.25
        },
        {
          "name": "D#4",
          "midi": 63,
          "time": 54.875,
          "velocity": 0.7874015748031497,
          "duration": 0.25
        },
        {
          "name": "G#4",
          "midi": 68,
          "time": 55.125,
          "velocity": 0.7874015748031497,
          "duration": 0.25
        },
        {
          "name": "G#4",
          "midi": 68,
          "time": 55.375,
          "velocity": 0.7874015748031497,
          "duration": 0.25
        },
        {
          "name": "G#4",
          "midi": 68,
          "time": 55.625,
          "velocity": 0.7874015748031497,
          "duration": 0.125
        },
        {
          "name": "A4",
          "midi": 69,
          "time": 55.75,
          "velocity": 0.7874015748031497,
          "duration": 0.25
        },
        {
          "name": "E4",
          "midi": 64,
          "time": 64,
          "velocity": 0.7874015748031497,
          "duration": 1
        },
        {
          "name": "D#4",
          "midi": 63,
          "time": 65,
          "velocity": 0.7874015748031497,
          "duration": 0.5
        },
        {
          "name": "C#4",
          "midi": 61,
          "time": 65.5,
          "velocity": 0.7874015748031497,
          "duration": 0.5
        },
        {
          "name": "E4",
          "midi": 64,
          "time": 66,
          "velocity": 0.7874015748031497,
          "duration": 1
        },
        {
          "name": "D4",
          "midi": 62,
          "time": 67,
          "velocity": 0.7874015748031497,
          "duration": 0.5
        },
        {
          "name": "C4",
          "midi": 60,
          "time": 67.5,
          "velocity": 0.7874015748031497,
          "duration": 0.5
        },
        {
          "name": "E4",
          "midi": 64,
          "time": 68,
          "velocity": 0.7874015748031497,
          "duration": 1
        },
        {
          "name": "D#4",
          "midi": 63,
          "time": 69,
          "velocity": 0.7874015748031497,
          "duration": 0.5
        },
        {
          "name": "B3",
          "midi": 59,
          "time": 69.5,
          "velocity": 0.7874015748031497,
          "duration": 0.5
        },
        {
          "name": "C#4",
          "midi": 61,
          "time": 70,
          "velocity": 0.7874015748031497,
          "duration": 1
        },
        {
          "name": "F#4",
          "midi": 66,
          "time": 71,
          "velocity": 0.7874015748031497,
          "duration": 1
        },
        {
          "name": "F#4",
          "midi": 66,
          "time": 76,
          "velocity": 0.7874015748031497,
          "duration": 0.25
        },
        {
          "name": "A4",
          "midi": 69,
          "time": 76.25,
          "velocity": 0.7874015748031497,
          "duration": 0.25
        },
        {
          "name": "G#4",
          "midi": 68,
          "time": 76.5,
          "velocity": 0.7874015748031497,
          "duration": 0.25
        },
        {
          "name": "F#4",
          "midi": 66,
          "time": 76.75,
          "velocity": 0.7874015748031497,
          "duration": 0.25
        },
        {
          "name": "G#4",
          "midi": 68,
          "time": 77,
          "velocity": 0.7874015748031497,
          "duration": 0.25
        },
        {
          "name": "C#4",
          "midi": 61,
          "time": 77.25,
          "velocity": 0.7874015748031497,
          "duration": 0.25
        },
        {
          "name": "E4",
          "midi": 64,
          "time": 77.5,
          "velocity": 0.7874015748031497,
          "duration": 0.25
        },
        {
          "name": "E4",
          "midi": 64,
          "time": 77.875,
          "velocity": 0.7874015748031497,
          "duration": 0.125
        },
        {
          "name": "F#4",
          "midi": 66,
          "time": 78,
          "velocity": 0.7874015748031497,
          "duration": 0.25
        },
        {
          "name": "A4",
          "midi": 69,
          "time": 78.25,
          "velocity": 0.7874015748031497,
          "duration": 0.25
        },
        {
          "name": "G#4",
          "midi": 68,
          "time": 78.5,
          "velocity": 0.7874015748031497,
          "duration": 0.25
        },
        {
          "name": "F#4",
          "midi": 66,
          "time": 78.75,
          "velocity": 0.7874015748031497,
          "duration": 0.25
        },
        {
          "name": "E4",
          "midi": 64,
          "time": 79,
          "velocity": 0.7874015748031497,
          "duration": 0.25
        },
        {
          "name": "D#4",
          "midi": 63,
          "time": 79.25,
          "velocity": 0.7874015748031497,
          "duration": 0.25
        },
        {
          "name": "C#4",
          "midi": 61,
          "time": 79.5,
          "velocity": 0.7874015748031497,
          "duration": 0.25
        },
        {
          "name": "D#4",
          "midi": 63,
          "time": 79.75,
          "velocity": 0.7874015748031497,
          "duration": 0.25
        },
        {
          "name": "C#4",
          "midi": 61,
          "time": 80,
          "velocity": 0.7874015748031497,
          "duration": 0.25
        },
        {
          "name": "F#4",
          "midi": 66,
          "time": 84,
          "velocity": 0.7874015748031497,
          "duration": 0.25
        },
        {
          "name": "A4",
          "midi": 69,
          "time": 84.25,
          "velocity": 0.7874015748031497,
          "duration": 0.25
        },
        {
          "name": "G#4",
          "midi": 68,
          "time": 84.5,
          "velocity": 0.7874015748031497,
          "duration": 0.25
        },
        {
          "name": "F#4",
          "midi": 66,
          "time": 84.75,
          "velocity": 0.7874015748031497,
          "duration": 0.25
        },
        {
          "name": "G#4",
          "midi": 68,
          "time": 85,
          "velocity": 0.7874015748031497,
          "duration": 0.25
        },
        {
          "name": "C#4",
          "midi": 61,
          "time": 85.25,
          "velocity": 0.7874015748031497,
          "duration": 0.25
        },
        {
          "name": "E4",
          "midi": 64,
          "time": 85.5,
          "velocity": 0.7874015748031497,
          "duration": 0.25
        },
        {
          "name": "F#4",
          "midi": 66,
          "time": 86,
          "velocity": 0.7874015748031497,
          "duration": 0.25
        },
        {
          "name": "A4",
          "midi": 69,
          "time": 86.25,
          "velocity": 0.7874015748031497,
          "duration": 0.25
        },
        {
          "name": "G#4",
          "midi": 68,
          "time": 86.5,
          "velocity": 0.7874015748031497,
          "duration": 0.25
        },
        {
          "name": "F#4",
          "midi": 66,
          "time": 86.75,
          "velocity": 0.7874015748031497,
          "duration": 0.25
        },
        {
          "name": "G#4",
          "midi": 68,
          "time": 87,
          "velocity": 0.7874015748031497,
          "duration": 0.25
        },
        {
          "name": "B4",
          "midi": 71,
          "time": 87.25,
          "velocity": 0.7874015748031497,
          "duration": 0.25
        },
        {
          "name": "C5",
          "midi": 72,
          "time": 87.5,
          "velocity": 0.7874015748031497,
          "duration": 0.5
        },
        {
          "name": "G#4",
          "midi": 68,
          "time": 88.25,
          "velocity": 0.7874015748031497,
          "duration": 0.25
        },
        {
          "name": "G#4",
          "midi": 68,
          "time": 88.5,
          "velocity": 0.7874015748031497,
          "duration": 0.125
        },
        {
          "name": "F#4",
          "midi": 66,
          "time": 88.625,
          "velocity": 0.7874015748031497,
          "duration": 0.125
        },
        {
          "name": "E4",
          "midi": 64,
          "time": 88.75,
          "velocity": 0.7874015748031497,
          "duration": 0.125
        },
        {
          "name": "F#4",
          "midi": 66,
          "time": 88.875,
          "velocity": 0.7874015748031497,
          "duration": 0.125
        },
        {
          "name": "E4",
          "midi": 64,
          "time": 89,
          "velocity": 0.7874015748031497,
          "duration": 0.125
        },
        {
          "name": "G#4",
          "midi": 68,
          "time": 89.25,
          "velocity": 0.7874015748031497,
          "duration": 0.25
        },
        {
          "name": "G#4",
          "midi": 68,
          "time": 89.5,
          "velocity": 0.7874015748031497,
          "duration": 0.125
        },
        {
          "name": "F#4",
          "midi": 66,
          "time": 89.625,
          "velocity": 0.7874015748031497,
          "duration": 0.125
        },
        {
          "name": "E4",
          "midi": 64,
          "time": 89.75,
          "velocity": 0.7874015748031497,
          "duration": 0.125
        },
        {
          "name": "F#4",
          "midi": 66,
          "time": 89.875,
          "velocity": 0.7874015748031497,
          "duration": 0.125
        },
        {
          "name": "E4",
          "midi": 64,
          "time": 90,
          "velocity": 0.7874015748031497,
          "duration": 0.125
        },
        {
          "name": "G#4",
          "midi": 68,
          "time": 90.25,
          "velocity": 0.7874015748031497,
          "duration": 0.25
        },
        {
          "name": "G#4",
          "midi": 68,
          "time": 90.5,
          "velocity": 0.7874015748031497,
          "duration": 0.125
        },
        {
          "name": "F#4",
          "midi": 66,
          "time": 90.625,
          "velocity": 0.7874015748031497,
          "duration": 0.125
        },
        {
          "name": "E4",
          "midi": 64,
          "time": 90.75,
          "velocity": 0.7874015748031497,
          "duration": 0.125
        },
        {
          "name": "F#4",
          "midi": 66,
          "time": 90.875,
          "velocity": 0.7874015748031497,
          "duration": 0.125
        },
        {
          "name": "G#4",
          "midi": 68,
          "time": 91,
          "velocity": 0.7874015748031497,
          "duration": 0.125
        },
        {
          "name": "A4",
          "midi": 69,
          "time": 91.125,
          "velocity": 0.7874015748031497,
          "duration": 0.125
        },
        {
          "name": "G#4",
          "midi": 68,
          "time": 91.25,
          "velocity": 0.7874015748031497,
          "duration": 0.125
        },
        {
          "name": "E4",
          "midi": 64,
          "time": 91.375,
          "velocity": 0.7874015748031497,
          "duration": 0.625
        },
        {
          "name": "E4",
          "midi": 64,
          "time": 92.25,
          "velocity": 0.7874015748031497,
          "duration": 0.125
        },
        {
          "name": "E4",
          "midi": 64,
          "time": 92.375,
          "velocity": 0.7874015748031497,
          "duration": 0.125
        },
        {
          "name": "E4",
          "midi": 64,
          "time": 92.5,
          "velocity": 0.7874015748031497,
          "duration": 0.125
        },
        {
          "name": "E4",
          "midi": 64,
          "time": 92.625,
          "velocity": 0.7874015748031497,
          "duration": 0.125
        },
        {
          "name": "C#4",
          "midi": 61,
          "time": 92.75,
          "velocity": 0.7874015748031497,
          "duration": 0.125
        },
        {
          "name": "C#4",
          "midi": 61,
          "time": 92.875,
          "velocity": 0.7874015748031497,
          "duration": 0.125
        },
        {
          "name": "E4",
          "midi": 64,
          "time": 93.25,
          "velocity": 0.7874015748031497,
          "duration": 0.125
        },
        {
          "name": "E4",
          "midi": 64,
          "time": 93.375,
          "velocity": 0.7874015748031497,
          "duration": 0.125
        },
        {
          "name": "E4",
          "midi": 64,
          "time": 93.5,
          "velocity": 0.7874015748031497,
          "duration": 0.125
        },
        {
          "name": "E4",
          "midi": 64,
          "time": 93.625,
          "velocity": 0.7874015748031497,
          "duration": 0.125
        },
        {
          "name": "C#4",
          "midi": 61,
          "time": 93.75,
          "velocity": 0.7874015748031497,
          "duration": 0.125
        },
        {
          "name": "C#4",
          "midi": 61,
          "time": 93.875,
          "velocity": 0.7874015748031497,
          "duration": 0.125
        },
        {
          "name": "E4",
          "midi": 64,
          "time": 94.25,
          "velocity": 0.7874015748031497,
          "duration": 0.125
        },
        {
          "name": "E4",
          "midi": 64,
          "time": 94.375,
          "velocity": 0.7874015748031497,
          "duration": 0.125
        },
        {
          "name": "E4",
          "midi": 64,
          "time": 94.5,
          "velocity": 0.7874015748031497,
          "duration": 0.125
        },
        {
          "name": "C#4",
          "midi": 61,
          "time": 94.625,
          "velocity": 0.7874015748031497,
          "duration": 0.125
        },
        {
          "name": "E4",
          "midi": 64,
          "time": 94.75,
          "velocity": 0.7874015748031497,
          "duration": 0.125
        },
        {
          "name": "F#4",
          "midi": 66,
          "time": 94.875,
          "velocity": 0.7874015748031497,
          "duration": 0.125
        },
        {
          "name": "D#4",
          "midi": 63,
          "time": 95,
          "velocity": 0.7874015748031497,
          "duration": 0.125
        },
        {
          "name": "C#4",
          "midi": 61,
          "time": 95.25,
          "velocity": 0.7874015748031497,
          "duration": 0.125
        },
        {
          "name": "E4",
          "midi": 64,
          "time": 95.5,
          "velocity": 0.7874015748031497,
          "duration": 0.125
        },
        {
          "name": "D#4",
          "midi": 63,
          "time": 95.625,
          "velocity": 0.7874015748031497,
          "duration": 0.375
        },
        {
          "name": "G#4",
          "midi": 68,
          "time": 96.25,
          "velocity": 0.7874015748031497,
          "duration": 0.25
        },
        {
          "name": "G#4",
          "midi": 68,
          "time": 96.5,
          "velocity": 0.7874015748031497,
          "duration": 0.125
        },
        {
          "name": "F#4",
          "midi": 66,
          "time": 96.625,
          "velocity": 0.7874015748031497,
          "duration": 0.125
        },
        {
          "name": "E4",
          "midi": 64,
          "time": 96.75,
          "velocity": 0.7874015748031497,
          "duration": 0.125
        },
        {
          "name": "F#4",
          "midi": 66,
          "time": 96.875,
          "velocity": 0.7874015748031497,
          "duration": 0.125
        },
        {
          "name": "E4",
          "midi": 64,
          "time": 97,
          "velocity": 0.7874015748031497,
          "duration": 0.125
        },
        {
          "name": "G#4",
          "midi": 68,
          "time": 97.25,
          "velocity": 0.7874015748031497,
          "duration": 0.25
        },
        {
          "name": "G#4",
          "midi": 68,
          "time": 97.5,
          "velocity": 0.7874015748031497,
          "duration": 0.125
        },
        {
          "name": "F#4",
          "midi": 66,
          "time": 97.625,
          "velocity": 0.7874015748031497,
          "duration": 0.125
        },
        {
          "name": "E4",
          "midi": 64,
          "time": 97.75,
          "velocity": 0.7874015748031497,
          "duration": 0.125
        },
        {
          "name": "F#4",
          "midi": 66,
          "time": 97.875,
          "velocity": 0.7874015748031497,
          "duration": 0.125
        },
        {
          "name": "E4",
          "midi": 64,
          "time": 98,
          "velocity": 0.7874015748031497,
          "duration": 0.125
        },
        {
          "name": "G#4",
          "midi": 68,
          "time": 98.25,
          "velocity": 0.7874015748031497,
          "duration": 0.25
        },
        {
          "name": "G#4",
          "midi": 68,
          "time": 98.5,
          "velocity": 0.7874015748031497,
          "duration": 0.125
        },
        {
          "name": "F#4",
          "midi": 66,
          "time": 98.625,
          "velocity": 0.7874015748031497,
          "duration": 0.125
        },
        {
          "name": "E4",
          "midi": 64,
          "time": 98.75,
          "velocity": 0.7874015748031497,
          "duration": 0.125
        },
        {
          "name": "F#4",
          "midi": 66,
          "time": 98.875,
          "velocity": 0.7874015748031497,
          "duration": 0.125
        },
        {
          "name": "G#4",
          "midi": 68,
          "time": 99,
          "velocity": 0.7874015748031497,
          "duration": 0.125
        },
        {
          "name": "A4",
          "midi": 69,
          "time": 99.125,
          "velocity": 0.7874015748031497,
          "duration": 0.125
        },
        {
          "name": "G#4",
          "midi": 68,
          "time": 99.25,
          "velocity": 0.7874015748031497,
          "duration": 0.125
        },
        {
          "name": "E4",
          "midi": 64,
          "time": 99.375,
          "velocity": 0.7874015748031497,
          "duration": 0.625
        },
        {
          "name": "E4",
          "midi": 64,
          "time": 100.25,
          "velocity": 0.7874015748031497,
          "duration": 0.125
        },
        {
          "name": "E4",
          "midi": 64,
          "time": 100.375,
          "velocity": 0.7874015748031497,
          "duration": 0.125
        },
        {
          "name": "E4",
          "midi": 64,
          "time": 100.5,
          "velocity": 0.7874015748031497,
          "duration": 0.125
        },
        {
          "name": "E4",
          "midi": 64,
          "time": 100.625,
          "velocity": 0.7874015748031497,
          "duration": 0.125
        },
        {
          "name": "C#4",
          "midi": 61,
          "time": 100.75,
          "velocity": 0.7874015748031497,
          "duration": 0.125
        },
        {
          "name": "C#4",
          "midi": 61,
          "time": 100.875,
          "velocity": 0.7874015748031497,
          "duration": 0.125
        },
        {
          "name": "E4",
          "midi": 64,
          "time": 101.25,
          "velocity": 0.7874015748031497,
          "duration": 0.125
        },
        {
          "name": "E4",
          "midi": 64,
          "time": 101.375,
          "velocity": 0.7874015748031497,
          "duration": 0.125
        },
        {
          "name": "E4",
          "midi": 64,
          "time": 101.5,
          "velocity": 0.7874015748031497,
          "duration": 0.125
        },
        {
          "name": "E4",
          "midi": 64,
          "time": 101.625,
          "velocity": 0.7874015748031497,
          "duration": 0.125
        },
        {
          "name": "C#4",
          "midi": 61,
          "time": 101.75,
          "velocity": 0.7874015748031497,
          "duration": 0.125
        },
        {
          "name": "C#4",
          "midi": 61,
          "time": 101.875,
          "velocity": 0.7874015748031497,
          "duration": 0.125
        },
        {
          "name": "E4",
          "midi": 64,
          "time": 102.25,
          "velocity": 0.7874015748031497,
          "duration": 0.125
        },
        {
          "name": "E4",
          "midi": 64,
          "time": 102.375,
          "velocity": 0.7874015748031497,
          "duration": 0.125
        },
        {
          "name": "E4",
          "midi": 64,
          "time": 102.5,
          "velocity": 0.7874015748031497,
          "duration": 0.125
        },
        {
          "name": "C#4",
          "midi": 61,
          "time": 102.625,
          "velocity": 0.7874015748031497,
          "duration": 0.125
        },
        {
          "name": "E4",
          "midi": 64,
          "time": 102.75,
          "velocity": 0.7874015748031497,
          "duration": 0.125
        },
        {
          "name": "F#4",
          "midi": 66,
          "time": 102.875,
          "velocity": 0.7874015748031497,
          "duration": 0.125
        },
        {
          "name": "D#4",
          "midi": 63,
          "time": 103,
          "velocity": 0.7874015748031497,
          "duration": 0.125
        },
        {
          "name": "G#4",
          "midi": 68,
          "time": 103.25,
          "velocity": 0.7874015748031497,
          "duration": 0.25
        },
        {
          "name": "G#4",
          "midi": 68,
          "time": 103.5,
          "velocity": 0.7874015748031497,
          "duration": 0.25
        },
        {
          "name": "A4",
          "midi": 69,
          "time": 103.75,
          "velocity": 0.7874015748031497,
          "duration": 0.25
        },
        {
          "name": "F#4",
          "midi": 66,
          "time": 104,
          "velocity": 0.7874015748031497,
          "duration": 0.5
        },
        {
          "name": "E4",
          "midi": 64,
          "time": 104.5,
          "velocity": 0.7874015748031497,
          "duration": 0.5
        },
        {
          "name": "C#4",
          "midi": 61,
          "time": 105.875,
          "velocity": 0.7874015748031497,
          "duration": 0.125
        },
        {
          "name": "E4",
          "midi": 64,
          "time": 106,
          "velocity": 0.7874015748031497,
          "duration": 0.25
        },
        {
          "name": "E4",
          "midi": 64,
          "time": 106.25,
          "velocity": 0.7874015748031497,
          "duration": 0.125
        },
        {
          "name": "C#4",
          "midi": 61,
          "time": 106.375,
          "velocity": 0.7874015748031497,
          "duration": 0.125
        },
        {
          "name": "E4",
          "midi": 64,
          "time": 106.5,
          "velocity": 0.7874015748031497,
          "duration": 0.125
        },
        {
          "name": "F#4",
          "midi": 66,
          "time": 106.625,
          "velocity": 0.7874015748031497,
          "duration": 0.25
        },
        {
          "name": "G#4",
          "midi": 68,
          "time": 106.875,
          "velocity": 0.7874015748031497,
          "duration": 0.25
        },
        {
          "name": "G#4",
          "midi": 68,
          "time": 107.125,
          "velocity": 0.7874015748031497,
          "duration": 0.25
        },
        {
          "name": "G#4",
          "midi": 68,
          "time": 107.375,
          "velocity": 0.7874015748031497,
          "duration": 0.25
        },
        {
          "name": "G#4",
          "midi": 68,
          "time": 107.625,
          "velocity": 0.7874015748031497,
          "duration": 0.125
        },
        {
          "name": "A4",
          "midi": 69,
          "time": 107.75,
          "velocity": 0.7874015748031497,
          "duration": 0.25
        },
        {
          "name": "F#4",
          "midi": 66,
          "time": 108,
          "velocity": 0.7874015748031497,
          "duration": 0.5
        },
        {
          "name": "E4",
          "midi": 64,
          "time": 108.5,
          "velocity": 0.7874015748031497,
          "duration": 0.5
        },
        {
          "name": "C#4",
          "midi": 61,
          "time": 109.875,
          "velocity": 0.7874015748031497,
          "duration": 0.125
        },
        {
          "name": "E4",
          "midi": 64,
          "time": 110,
          "velocity": 0.7874015748031497,
          "duration": 0.25
        },
        {
          "name": "E4",
          "midi": 64,
          "time": 110.25,
          "velocity": 0.7874015748031497,
          "duration": 0.125
        },
        {
          "name": "C#4",
          "midi": 61,
          "time": 110.375,
          "velocity": 0.7874015748031497,
          "duration": 0.125
        },
        {
          "name": "E4",
          "midi": 64,
          "time": 110.5,
          "velocity": 0.7874015748031497,
          "duration": 0.125
        },
        {
          "name": "F#4",
          "midi": 66,
          "time": 110.625,
          "velocity": 0.7874015748031497,
          "duration": 0.25
        },
        {
          "name": "D#4",
          "midi": 63,
          "time": 110.875,
          "velocity": 0.7874015748031497,
          "duration": 0.25
        },
        {
          "name": "G#4",
          "midi": 68,
          "time": 111.125,
          "velocity": 0.7874015748031497,
          "duration": 0.25
        },
        {
          "name": "G#4",
          "midi": 68,
          "time": 111.375,
          "velocity": 0.7874015748031497,
          "duration": 0.25
        },
        {
          "name": "G#4",
          "midi": 68,
          "time": 111.625,
          "velocity": 0.7874015748031497,
          "duration": 0.125
        },
        {
          "name": "A4",
          "midi": 69,
          "time": 111.75,
          "velocity": 0.7874015748031497,
          "duration": 0.25
        },
        {
          "name": "C#4",
          "midi": 61,
          "time": 112,
          "velocity": 0.7874015748031497,
          "duration": 0.25
        },
        {
          "name": "G#4",
          "midi": 68,
          "time": 112.25,
          "velocity": 0.7874015748031497,
          "duration": 0.25
        },
        {
          "name": "C#4",
          "midi": 61,
          "time": 112.5,
          "velocity": 0.7874015748031497,
          "duration": 0.25
        },
        {
          "name": "G#4",
          "midi": 68,
          "time": 112.75,
          "velocity": 0.7874015748031497,
          "duration": 0.25
        },
        {
          "name": "B3",
          "midi": 59,
          "time": 113,
          "velocity": 0.7874015748031497,
          "duration": 0.25
        },
        {
          "name": "E4",
          "midi": 64,
          "time": 113.25,
          "velocity": 0.7874015748031497,
          "duration": 0.25
        },
        {
          "name": "B3",
          "midi": 59,
          "time": 113.5,
          "velocity": 0.7874015748031497,
          "duration": 0.25
        },
        {
          "name": "E4",
          "midi": 64,
          "time": 113.75,
          "velocity": 0.7874015748031497,
          "duration": 0.25
        },
        {
          "name": "A3",
          "midi": 57,
          "time": 114,
          "velocity": 0.7874015748031497,
          "duration": 0.25
        },
        {
          "name": "E4",
          "midi": 64,
          "time": 114.25,
          "velocity": 0.7874015748031497,
          "duration": 0.25
        },
        {
          "name": "A3",
          "midi": 57,
          "time": 114.5,
          "velocity": 0.7874015748031497,
          "duration": 0.25
        },
        {
          "name": "E4",
          "midi": 64,
          "time": 114.75,
          "velocity": 0.7874015748031497,
          "duration": 0.25
        },
        {
          "name": "G#3",
          "midi": 56,
          "time": 115,
          "velocity": 0.7874015748031497,
          "duration": 0.25
        },
        {
          "name": "E4",
          "midi": 64,
          "time": 115.25,
          "velocity": 0.7874015748031497,
          "duration": 0.25
        },
        {
          "name": "G#3",
          "midi": 56,
          "time": 115.5,
          "velocity": 0.7874015748031497,
          "duration": 0.25
        },
        {
          "name": "E4",
          "midi": 64,
          "time": 115.75,
          "velocity": 0.7874015748031497,
          "duration": 0.25
        },
        {
          "name": "C#4",
          "midi": 61,
          "time": 116,
          "velocity": 0.7874015748031497,
          "duration": 0.25
        },
        {
          "name": "F#4",
          "midi": 66,
          "time": 116.25,
          "velocity": 0.7874015748031497,
          "duration": 0.25
        },
        {
          "name": "C#4",
          "midi": 61,
          "time": 116.5,
          "velocity": 0.7874015748031497,
          "duration": 0.25
        },
        {
          "name": "F#4",
          "midi": 66,
          "time": 116.75,
          "velocity": 0.7874015748031497,
          "duration": 0.25
        },
        {
          "name": "D#4",
          "midi": 63,
          "time": 117,
          "velocity": 0.7874015748031497,
          "duration": 0.25
        },
        {
          "name": "G4",
          "midi": 67,
          "time": 117.25,
          "velocity": 0.7874015748031497,
          "duration": 0.25
        },
        {
          "name": "D#4",
          "midi": 63,
          "time": 117.5,
          "velocity": 0.7874015748031497,
          "duration": 0.25
        },
        {
          "name": "G4",
          "midi": 67,
          "time": 117.75,
          "velocity": 0.7874015748031497,
          "duration": 0.25
        },
        {
          "name": "D#4",
          "midi": 63,
          "time": 118,
          "velocity": 0.7874015748031497,
          "duration": 0.25
        },
        {
          "name": "G#4",
          "midi": 68,
          "time": 118.25,
          "velocity": 0.7874015748031497,
          "duration": 0.25
        },
        {
          "name": "D#4",
          "midi": 63,
          "time": 118.5,
          "velocity": 0.7874015748031497,
          "duration": 0.25
        },
        {
          "name": "G#4",
          "midi": 68,
          "time": 118.75,
          "velocity": 0.7874015748031497,
          "duration": 0.25
        },
        {
          "name": "C4",
          "midi": 60,
          "time": 119,
          "velocity": 0.7874015748031497,
          "duration": 0.25
        },
        {
          "name": "G#4",
          "midi": 68,
          "time": 119.25,
          "velocity": 0.7874015748031497,
          "duration": 0.25
        },
        {
          "name": "C4",
          "midi": 60,
          "time": 119.5,
          "velocity": 0.7874015748031497,
          "duration": 0.25
        },
        {
          "name": "G#4",
          "midi": 68,
          "time": 119.75,
          "velocity": 0.7874015748031497,
          "duration": 0.25
        },
        {
          "name": "E4",
          "midi": 64,
          "time": 120,
          "velocity": 0.7874015748031497,
          "duration": 1
        },
        {
          "name": "D#4",
          "midi": 63,
          "time": 121,
          "velocity": 0.7874015748031497,
          "duration": 0.5
        },
        {
          "name": "C#4",
          "midi": 61,
          "time": 121.5,
          "velocity": 0.7874015748031497,
          "duration": 0.5
        },
        {
          "name": "E4",
          "midi": 64,
          "time": 122,
          "velocity": 0.7874015748031497,
          "duration": 1
        },
        {
          "name": "D4",
          "midi": 62,
          "time": 123,
          "velocity": 0.7874015748031497,
          "duration": 0.5
        },
        {
          "name": "C4",
          "midi": 60,
          "time": 123.5,
          "velocity": 0.7874015748031497,
          "duration": 0.5
        },
        {
          "name": "E4",
          "midi": 64,
          "time": 124,
          "velocity": 0.7874015748031497,
          "duration": 1
        },
        {
          "name": "D#4",
          "midi": 63,
          "time": 125,
          "velocity": 0.7874015748031497,
          "duration": 0.5
        },
        {
          "name": "B3",
          "midi": 59,
          "time": 125.5,
          "velocity": 0.7874015748031497,
          "duration": 0.5
        },
        {
          "name": "C#4",
          "midi": 61,
          "time": 126,
          "velocity": 0.7874015748031497,
          "duration": 1
        },
        {
          "name": "F#4",
          "midi": 66,
          "time": 127,
          "velocity": 0.7874015748031497,
          "duration": 1
        },
        {
          "name": "E4",
          "midi": 64,
          "time": 128,
          "velocity": 0.7874015748031497,
          "duration": 1
        },
        {
          "name": "D#4",
          "midi": 63,
          "time": 129,
          "velocity": 0.7874015748031497,
          "duration": 0.5
        },
        {
          "name": "C#4",
          "midi": 61,
          "time": 129.5,
          "velocity": 0.7874015748031497,
          "duration": 0.5
        },
        {
          "name": "E4",
          "midi": 64,
          "time": 130,
          "velocity": 0.7874015748031497,
          "duration": 1
        },
        {
          "name": "D4",
          "midi": 62,
          "time": 131,
          "velocity": 0.7874015748031497,
          "duration": 0.5
        },
        {
          "name": "C4",
          "midi": 60,
          "time": 131.5,
          "velocity": 0.7874015748031497,
          "duration": 0.5
        },
        {
          "name": "E4",
          "midi": 64,
          "time": 132,
          "velocity": 0.7874015748031497,
          "duration": 1
        },
        {
          "name": "D#4",
          "midi": 63,
          "time": 133,
          "velocity": 0.7874015748031497,
          "duration": 0.5
        },
        {
          "name": "B3",
          "midi": 59,
          "time": 133.5,
          "velocity": 0.7874015748031497,
          "duration": 0.5
        },
        {
          "name": "C#4",
          "midi": 61,
          "time": 134,
          "velocity": 0.7874015748031497,
          "duration": 1
        },
        {
          "name": "F#4",
          "midi": 66,
          "time": 135,
          "velocity": 0.7874015748031497,
          "duration": 1
        }
      ],
      "controlChanges": {},
      "id": 0,
      "name": "",
      "channelNumber": 0,
      "isPercussion": false
    }
  ]
}