midi = {
  "header": {
    "PPQ": 96,
    "timeSignature": [
      4,
      4
    ],
    "bpm": 120,
    "name": ""
  },
  "tempo": [],
  "timeSignature": [
    {
      "absoluteTime": 0,
      "seconds": 0,
      "numerator": 4,
      "denominator": 2,
      "click": 36,
      "notesQ": 8
    },
    {
      "absoluteTime": 0,
      "seconds": 0,
      "numerator": 4,
      "denominator": 2,
      "click": 36,
      "notesQ": 8
    }
  ],
  "startTime": 15.75,
  "duration": 135.5,
  "tracks": [
    {
      "startTime": 15.75,
      "duration": 135.5,
      "length": 306,
      "notes": [
        {
          "name": "C#4",
          "midi": 61,
          "time": 15.75,
          "velocity": 0.7874015748031497,
          "duration": 0.125
        },
        {
          "name": "G#4",
          "midi": 68,
          "time": 15.875,
          "velocity": 0.7874015748031497,
          "duration": 0.375
        },
        {
          "name": "F4",
          "midi": 65,
          "time": 16.25,
          "velocity": 0.7874015748031497,
          "duration": 0.25
        },
        {
          "name": "D#4",
          "midi": 63,
          "time": 16.5,
          "velocity": 0.7874015748031497,
          "duration": 0.25
        },
        {
          "name": "C#4",
          "midi": 61,
          "time": 16.75,
          "velocity": 0.7874015748031497,
          "duration": 0.125
        },
        {
          "name": "G#4",
          "midi": 68,
          "time": 16.875,
          "velocity": 0.7874015748031497,
          "duration": 0.375
        },
        {
          "name": "F4",
          "midi": 65,
          "time": 17.25,
          "velocity": 0.7874015748031497,
          "duration": 0.25
        },
        {
          "name": "D#4",
          "midi": 63,
          "time": 17.5,
          "velocity": 0.7874015748031497,
          "duration": 0.25
        },
        {
          "name": "C#4",
          "midi": 61,
          "time": 17.75,
          "velocity": 0.7874015748031497,
          "duration": 0.125
        },
        {
          "name": "A#4",
          "midi": 70,
          "time": 17.875,
          "velocity": 0.7874015748031497,
          "duration": 0.375
        },
        {
          "name": "G#4",
          "midi": 68,
          "time": 18.25,
          "velocity": 0.7874015748031497,
          "duration": 0.25
        },
        {
          "name": "F#4",
          "midi": 66,
          "time": 18.5,
          "velocity": 0.7874015748031497,
          "duration": 0.25
        },
        {
          "name": "F4",
          "midi": 65,
          "time": 18.75,
          "velocity": 0.7874015748031497,
          "duration": 0.125
        },
        {
          "name": "F#4",
          "midi": 66,
          "time": 18.875,
          "velocity": 0.7874015748031497,
          "duration": 0.375
        },
        {
          "name": "D#4",
          "midi": 63,
          "time": 19.25,
          "velocity": 0.7874015748031497,
          "duration": 0.25
        },
        {
          "name": "C#4",
          "midi": 61,
          "time": 19.75,
          "velocity": 0.7874015748031497,
          "duration": 0.125
        },
        {
          "name": "F4",
          "midi": 65,
          "time": 19.875,
          "velocity": 0.7874015748031497,
          "duration": 0.375
        },
        {
          "name": "F#4",
          "midi": 66,
          "time": 20.25,
          "velocity": 0.7874015748031497,
          "duration": 0.25
        },
        {
          "name": "F4",
          "midi": 65,
          "time": 20.5,
          "velocity": 0.7874015748031497,
          "duration": 0.25
        },
        {
          "name": "C#4",
          "midi": 61,
          "time": 20.75,
          "velocity": 0.7874015748031497,
          "duration": 0.125
        },
        {
          "name": "D#4",
          "midi": 63,
          "time": 20.875,
          "velocity": 0.7874015748031497,
          "duration": 0.375
        },
        {
          "name": "F4",
          "midi": 65,
          "time": 21.25,
          "velocity": 0.7874015748031497,
          "duration": 0.25
        },
        {
          "name": "F#4",
          "midi": 66,
          "time": 21.5,
          "velocity": 0.7874015748031497,
          "duration": 0.25
        },
        {
          "name": "F4",
          "midi": 65,
          "time": 21.75,
          "velocity": 0.7874015748031497,
          "duration": 0.125
        },
        {
          "name": "D#4",
          "midi": 63,
          "time": 21.875,
          "velocity": 0.7874015748031497,
          "duration": 0.25
        },
        {
          "name": "C#4",
          "midi": 61,
          "time": 22.25,
          "velocity": 0.7874015748031497,
          "duration": 0.25
        },
        {
          "name": "C#4",
          "midi": 61,
          "time": 31.75,
          "velocity": 0.7874015748031497,
          "duration": 0.125
        },
        {
          "name": "G#4",
          "midi": 68,
          "time": 31.875,
          "velocity": 0.7874015748031497,
          "duration": 0.375
        },
        {
          "name": "F4",
          "midi": 65,
          "time": 32.25,
          "velocity": 0.7874015748031497,
          "duration": 0.25
        },
        {
          "name": "D#4",
          "midi": 63,
          "time": 32.5,
          "velocity": 0.7874015748031497,
          "duration": 0.25
        },
        {
          "name": "C#4",
          "midi": 61,
          "time": 32.75,
          "velocity": 0.7874015748031497,
          "duration": 0.125
        },
        {
          "name": "G#4",
          "midi": 68,
          "time": 32.875,
          "velocity": 0.7874015748031497,
          "duration": 0.375
        },
        {
          "name": "F4",
          "midi": 65,
          "time": 33.25,
          "velocity": 0.7874015748031497,
          "duration": 0.25
        },
        {
          "name": "D#4",
          "midi": 63,
          "time": 33.5,
          "velocity": 0.7874015748031497,
          "duration": 0.25
        },
        {
          "name": "C#4",
          "midi": 61,
          "time": 33.75,
          "velocity": 0.7874015748031497,
          "duration": 0.125
        },
        {
          "name": "A#4",
          "midi": 70,
          "time": 33.875,
          "velocity": 0.7874015748031497,
          "duration": 0.375
        },
        {
          "name": "G#4",
          "midi": 68,
          "time": 34.25,
          "velocity": 0.7874015748031497,
          "duration": 0.25
        },
        {
          "name": "F#4",
          "midi": 66,
          "time": 34.5,
          "velocity": 0.7874015748031497,
          "duration": 0.25
        },
        {
          "name": "F4",
          "midi": 65,
          "time": 34.75,
          "velocity": 0.7874015748031497,
          "duration": 0.125
        },
        {
          "name": "F#4",
          "midi": 66,
          "time": 34.875,
          "velocity": 0.7874015748031497,
          "duration": 0.375
        },
        {
          "name": "D#4",
          "midi": 63,
          "time": 35.25,
          "velocity": 0.7874015748031497,
          "duration": 0.25
        },
        {
          "name": "C#4",
          "midi": 61,
          "time": 35.75,
          "velocity": 0.7874015748031497,
          "duration": 0.125
        },
        {
          "name": "F4",
          "midi": 65,
          "time": 35.875,
          "velocity": 0.7874015748031497,
          "duration": 0.375
        },
        {
          "name": "F#4",
          "midi": 66,
          "time": 36.25,
          "velocity": 0.7874015748031497,
          "duration": 0.25
        },
        {
          "name": "F4",
          "midi": 65,
          "time": 36.5,
          "velocity": 0.7874015748031497,
          "duration": 0.25
        },
        {
          "name": "C#4",
          "midi": 61,
          "time": 36.75,
          "velocity": 0.7874015748031497,
          "duration": 0.125
        },
        {
          "name": "D#4",
          "midi": 63,
          "time": 36.875,
          "velocity": 0.7874015748031497,
          "duration": 0.375
        },
        {
          "name": "F4",
          "midi": 65,
          "time": 37.25,
          "velocity": 0.7874015748031497,
          "duration": 0.25
        },
        {
          "name": "F#4",
          "midi": 66,
          "time": 37.5,
          "velocity": 0.7874015748031497,
          "duration": 0.25
        },
        {
          "name": "F4",
          "midi": 65,
          "time": 37.75,
          "velocity": 0.7874015748031497,
          "duration": 0.125
        },
        {
          "name": "D#4",
          "midi": 63,
          "time": 37.875,
          "velocity": 0.7874015748031497,
          "duration": 0.25
        },
        {
          "name": "C#4",
          "midi": 61,
          "time": 38.25,
          "velocity": 0.7874015748031497,
          "duration": 0.25
        },
        {
          "name": "A#3",
          "midi": 58,
          "time": 40,
          "velocity": 0.7874015748031497,
          "duration": 1
        },
        {
          "name": "C4",
          "midi": 60,
          "time": 41,
          "velocity": 0.7874015748031497,
          "duration": 1
        },
        {
          "name": "C#4",
          "midi": 61,
          "time": 42,
          "velocity": 0.7874015748031497,
          "duration": 1
        },
        {
          "name": "D4",
          "midi": 62,
          "time": 43,
          "velocity": 0.7874015748031497,
          "duration": 1
        },
        {
          "name": "D#4",
          "midi": 63,
          "time": 44,
          "velocity": 0.7874015748031497,
          "duration": 1
        },
        {
          "name": "F#4",
          "midi": 66,
          "time": 45,
          "velocity": 0.7874015748031497,
          "duration": 0.5
        },
        {
          "name": "F4",
          "midi": 65,
          "time": 45.5,
          "velocity": 0.7874015748031497,
          "duration": 0.5
        },
        {
          "name": "A#3",
          "midi": 58,
          "time": 47.75,
          "velocity": 0.7874015748031497,
          "duration": 0.25
        },
        {
          "name": "C#4",
          "midi": 61,
          "time": 48,
          "velocity": 0.7874015748031497,
          "duration": 0.5
        },
        {
          "name": "D#4",
          "midi": 63,
          "time": 48.5,
          "velocity": 0.7874015748031497,
          "duration": 0.25
        },
        {
          "name": "C4",
          "midi": 60,
          "time": 48.75,
          "velocity": 0.7874015748031497,
          "duration": 0.5
        },
        {
          "name": "A#3",
          "midi": 58,
          "time": 49.75,
          "velocity": 0.7874015748031497,
          "duration": 0.25
        },
        {
          "name": "C#4",
          "midi": 61,
          "time": 50,
          "velocity": 0.7874015748031497,
          "duration": 0.25
        },
        {
          "name": "A#3",
          "midi": 58,
          "time": 50.25,
          "velocity": 0.7874015748031497,
          "duration": 0.25
        },
        {
          "name": "B3",
          "midi": 59,
          "time": 50.5,
          "velocity": 0.7874015748031497,
          "duration": 0.125
        },
        {
          "name": "A#3",
          "midi": 58,
          "time": 50.625,
          "velocity": 0.7874015748031497,
          "duration": 0.25
        },
        {
          "name": "D4",
          "midi": 62,
          "time": 50.875,
          "velocity": 0.7874015748031497,
          "duration": 0.375
        },
        {
          "name": "B3",
          "midi": 59,
          "time": 51.25,
          "velocity": 0.7874015748031497,
          "duration": 0.25
        },
        {
          "name": "B3",
          "midi": 59,
          "time": 51.5,
          "velocity": 0.7874015748031497,
          "duration": 0.25
        },
        {
          "name": "A#3",
          "midi": 58,
          "time": 51.75,
          "velocity": 0.7874015748031497,
          "duration": 0.125
        },
        {
          "name": "G#3",
          "midi": 56,
          "time": 51.875,
          "velocity": 0.7874015748031497,
          "duration": 0.375
        },
        {
          "name": "F#3",
          "midi": 54,
          "time": 52.25,
          "velocity": 0.7874015748031497,
          "duration": 0.375
        },
        {
          "name": "F#3",
          "midi": 54,
          "time": 52.625,
          "velocity": 0.7874015748031497,
          "duration": 0.125
        },
        {
          "name": "F#3",
          "midi": 54,
          "time": 52.75,
          "velocity": 0.7874015748031497,
          "duration": 0.125
        },
        {
          "name": "F3",
          "midi": 53,
          "time": 52.875,
          "velocity": 0.7874015748031497,
          "duration": 0.375
        },
        {
          "name": "F#3",
          "midi": 54,
          "time": 53.25,
          "velocity": 0.7874015748031497,
          "duration": 0.25
        },
        {
          "name": "F3",
          "midi": 53,
          "time": 53.5,
          "velocity": 0.7874015748031497,
          "duration": 0.25
        },
        {
          "name": "D#3",
          "midi": 51,
          "time": 53.75,
          "velocity": 0.7874015748031497,
          "duration": 0.125
        },
        {
          "name": "D#3",
          "midi": 51,
          "time": 53.875,
          "velocity": 0.7874015748031497,
          "duration": 0.375
        },
        {
          "name": "C#3",
          "midi": 49,
          "time": 54.25,
          "velocity": 0.7874015748031497,
          "duration": 0.75
        },
        {
          "name": "A#3",
          "midi": 58,
          "time": 56,
          "velocity": 0.7874015748031497,
          "duration": 0.5
        },
        {
          "name": "F4",
          "midi": 65,
          "time": 56.5,
          "velocity": 0.7874015748031497,
          "duration": 0.25
        },
        {
          "name": "A#3",
          "midi": 58,
          "time": 56.75,
          "velocity": 0.7874015748031497,
          "duration": 0.25
        },
        {
          "name": "G#3",
          "midi": 56,
          "time": 57,
          "velocity": 0.7874015748031497,
          "duration": 0.5
        },
        {
          "name": "F#4",
          "midi": 66,
          "time": 57.5,
          "velocity": 0.7874015748031497,
          "duration": 0.25
        },
        {
          "name": "G#3",
          "midi": 56,
          "time": 57.75,
          "velocity": 0.7874015748031497,
          "duration": 0.25
        },
        {
          "name": "C#4",
          "midi": 61,
          "time": 58,
          "velocity": 0.7874015748031497,
          "duration": 0.5
        },
        {
          "name": "G#4",
          "midi": 68,
          "time": 58.5,
          "velocity": 0.7874015748031497,
          "duration": 0.25
        },
        {
          "name": "C#4",
          "midi": 61,
          "time": 58.75,
          "velocity": 0.7874015748031497,
          "duration": 0.25
        },
        {
          "name": "C4",
          "midi": 60,
          "time": 59,
          "velocity": 0.7874015748031497,
          "duration": 0.5
        },
        {
          "name": "A#4",
          "midi": 70,
          "time": 59.5,
          "velocity": 0.7874015748031497,
          "duration": 0.25
        },
        {
          "name": "G#4",
          "midi": 68,
          "time": 59.75,
          "velocity": 0.7874015748031497,
          "duration": 0.25
        },
        {
          "name": "A#3",
          "midi": 58,
          "time": 60,
          "velocity": 0.7874015748031497,
          "duration": 0.125
        },
        {
          "name": "C#4",
          "midi": 61,
          "time": 60.15625,
          "velocity": 0.7874015748031497,
          "duration": 0.125
        },
        {
          "name": "F4",
          "midi": 65,
          "time": 60.25,
          "velocity": 0.7874015748031497,
          "duration": 0.125
        },
        {
          "name": "A#3",
          "midi": 58,
          "time": 60.40625,
          "velocity": 0.7874015748031497,
          "duration": 0.125
        },
        {
          "name": "C#4",
          "midi": 61,
          "time": 60.5,
          "velocity": 0.7874015748031497,
          "duration": 0.125
        },
        {
          "name": "F4",
          "midi": 65,
          "time": 60.65625,
          "velocity": 0.7874015748031497,
          "duration": 0.125
        },
        {
          "name": "A#3",
          "midi": 58,
          "time": 60.75,
          "velocity": 0.7874015748031497,
          "duration": 0.125
        },
        {
          "name": "A3",
          "midi": 57,
          "time": 60.90625,
          "velocity": 0.7874015748031497,
          "duration": 0.125
        },
        {
          "name": "G#3",
          "midi": 56,
          "time": 61,
          "velocity": 0.7874015748031497,
          "duration": 0.125
        },
        {
          "name": "C4",
          "midi": 60,
          "time": 61.15625,
          "velocity": 0.7874015748031497,
          "duration": 0.125
        },
        {
          "name": "F#4",
          "midi": 66,
          "time": 61.25,
          "velocity": 0.7874015748031497,
          "duration": 0.125
        },
        {
          "name": "G#3",
          "midi": 56,
          "time": 61.40625,
          "velocity": 0.7874015748031497,
          "duration": 0.125
        },
        {
          "name": "C4",
          "midi": 60,
          "time": 61.5,
          "velocity": 0.7874015748031497,
          "duration": 0.125
        },
        {
          "name": "F#4",
          "midi": 66,
          "time": 61.65625,
          "velocity": 0.7874015748031497,
          "duration": 0.125
        },
        {
          "name": "D#4",
          "midi": 63,
          "time": 61.75,
          "velocity": 0.7874015748031497,
          "duration": 0.125
        },
        {
          "name": "C4",
          "midi": 60,
          "time": 61.90625,
          "velocity": 0.7874015748031497,
          "duration": 0.125
        },
        {
          "name": "C#4",
          "midi": 61,
          "time": 62,
          "velocity": 0.7874015748031497,
          "duration": 0.125
        },
        {
          "name": "F4",
          "midi": 65,
          "time": 62.15625,
          "velocity": 0.7874015748031497,
          "duration": 0.125
        },
        {
          "name": "G#4",
          "midi": 68,
          "time": 62.25,
          "velocity": 0.7874015748031497,
          "duration": 0.125
        },
        {
          "name": "C#4",
          "midi": 61,
          "time": 62.40625,
          "velocity": 0.7874015748031497,
          "duration": 0.125
        },
        {
          "name": "F4",
          "midi": 65,
          "time": 62.5,
          "velocity": 0.7874015748031497,
          "duration": 0.125
        },
        {
          "name": "G#4",
          "midi": 68,
          "time": 62.65625,
          "velocity": 0.7874015748031497,
          "duration": 0.125
        },
        {
          "name": "D#4",
          "midi": 63,
          "time": 62.75,
          "velocity": 0.7874015748031497,
          "duration": 0.125
        },
        {
          "name": "C#4",
          "midi": 61,
          "time": 62.90625,
          "velocity": 0.7874015748031497,
          "duration": 0.125
        },
        {
          "name": "C4",
          "midi": 60,
          "time": 63,
          "velocity": 0.7874015748031497,
          "duration": 0.125
        },
        {
          "name": "D#4",
          "midi": 63,
          "time": 63.15625,
          "velocity": 0.7874015748031497,
          "duration": 0.125
        },
        {
          "name": "G#4",
          "midi": 68,
          "time": 63.25,
          "velocity": 0.7874015748031497,
          "duration": 0.125
        },
        {
          "name": "C4",
          "midi": 60,
          "time": 63.40625,
          "velocity": 0.7874015748031497,
          "duration": 0.125
        },
        {
          "name": "A#4",
          "midi": 70,
          "time": 63.5,
          "velocity": 0.7874015748031497,
          "duration": 0.25
        },
        {
          "name": "G#4",
          "midi": 68,
          "time": 63.75,
          "velocity": 0.7874015748031497,
          "duration": 0.25
        },
        {
          "name": "A#3",
          "midi": 58,
          "time": 64,
          "velocity": 0.7874015748031497,
          "duration": 0.125
        },
        {
          "name": "C#4",
          "midi": 61,
          "time": 64.15625,
          "velocity": 0.7874015748031497,
          "duration": 0.125
        },
        {
          "name": "F4",
          "midi": 65,
          "time": 64.25,
          "velocity": 0.7874015748031497,
          "duration": 0.125
        },
        {
          "name": "A#3",
          "midi": 58,
          "time": 64.40625,
          "velocity": 0.7874015748031497,
          "duration": 0.125
        },
        {
          "name": "C#4",
          "midi": 61,
          "time": 64.5,
          "velocity": 0.7874015748031497,
          "duration": 0.125
        },
        {
          "name": "F4",
          "midi": 65,
          "time": 64.65625,
          "velocity": 0.7874015748031497,
          "duration": 0.125
        },
        {
          "name": "A#3",
          "midi": 58,
          "time": 64.75,
          "velocity": 0.7874015748031497,
          "duration": 0.125
        },
        {
          "name": "A3",
          "midi": 57,
          "time": 64.90625,
          "velocity": 0.7874015748031497,
          "duration": 0.125
        },
        {
          "name": "G#3",
          "midi": 56,
          "time": 65,
          "velocity": 0.7874015748031497,
          "duration": 0.125
        },
        {
          "name": "C4",
          "midi": 60,
          "time": 65.15625,
          "velocity": 0.7874015748031497,
          "duration": 0.125
        },
        {
          "name": "F#4",
          "midi": 66,
          "time": 65.25,
          "velocity": 0.7874015748031497,
          "duration": 0.125
        },
        {
          "name": "G#3",
          "midi": 56,
          "time": 65.40625,
          "velocity": 0.7874015748031497,
          "duration": 0.125
        },
        {
          "name": "C4",
          "midi": 60,
          "time": 65.5,
          "velocity": 0.7874015748031497,
          "duration": 0.125
        },
        {
          "name": "F#4",
          "midi": 66,
          "time": 65.65625,
          "velocity": 0.7874015748031497,
          "duration": 0.125
        },
        {
          "name": "D#4",
          "midi": 63,
          "time": 65.75,
          "velocity": 0.7874015748031497,
          "duration": 0.125
        },
        {
          "name": "C4",
          "midi": 60,
          "time": 65.90625,
          "velocity": 0.7874015748031497,
          "duration": 0.125
        },
        {
          "name": "C#4",
          "midi": 61,
          "time": 66,
          "velocity": 0.7874015748031497,
          "duration": 0.125
        },
        {
          "name": "F4",
          "midi": 65,
          "time": 66.15625,
          "velocity": 0.7874015748031497,
          "duration": 0.125
        },
        {
          "name": "G#4",
          "midi": 68,
          "time": 66.25,
          "velocity": 0.7874015748031497,
          "duration": 0.125
        },
        {
          "name": "C#4",
          "midi": 61,
          "time": 66.40625,
          "velocity": 0.7874015748031497,
          "duration": 0.125
        },
        {
          "name": "F4",
          "midi": 65,
          "time": 66.5,
          "velocity": 0.7874015748031497,
          "duration": 0.125
        },
        {
          "name": "G#4",
          "midi": 68,
          "time": 66.65625,
          "velocity": 0.7874015748031497,
          "duration": 0.125
        },
        {
          "name": "D#4",
          "midi": 63,
          "time": 66.75,
          "velocity": 0.7874015748031497,
          "duration": 0.125
        },
        {
          "name": "C#4",
          "midi": 61,
          "time": 66.90625,
          "velocity": 0.7874015748031497,
          "duration": 0.125
        },
        {
          "name": "C4",
          "midi": 60,
          "time": 67,
          "velocity": 0.7874015748031497,
          "duration": 0.125
        },
        {
          "name": "D#4",
          "midi": 63,
          "time": 67.15625,
          "velocity": 0.7874015748031497,
          "duration": 0.125
        },
        {
          "name": "G#4",
          "midi": 68,
          "time": 67.25,
          "velocity": 0.7874015748031497,
          "duration": 0.125
        },
        {
          "name": "C4",
          "midi": 60,
          "time": 67.40625,
          "velocity": 0.7874015748031497,
          "duration": 0.125
        },
        {
          "name": "A#4",
          "midi": 70,
          "time": 67.5,
          "velocity": 0.7874015748031497,
          "duration": 0.25
        },
        {
          "name": "G#4",
          "midi": 68,
          "time": 67.75,
          "velocity": 0.7874015748031497,
          "duration": 0.25
        },
        {
          "name": "A#3",
          "midi": 58,
          "time": 68,
          "velocity": 0.7874015748031497,
          "duration": 0.125
        },
        {
          "name": "C#4",
          "midi": 61,
          "time": 68.15625,
          "velocity": 0.7874015748031497,
          "duration": 0.125
        },
        {
          "name": "F4",
          "midi": 65,
          "time": 68.25,
          "velocity": 0.7874015748031497,
          "duration": 0.125
        },
        {
          "name": "C#4",
          "midi": 61,
          "time": 68.40625,
          "velocity": 0.7874015748031497,
          "duration": 0.125
        },
        {
          "name": "A#3",
          "midi": 58,
          "time": 68.5,
          "velocity": 0.7874015748031497,
          "duration": 0.125
        },
        {
          "name": "C#4",
          "midi": 61,
          "time": 68.65625,
          "velocity": 0.7874015748031497,
          "duration": 0.125
        },
        {
          "name": "F4",
          "midi": 65,
          "time": 68.75,
          "velocity": 0.7874015748031497,
          "duration": 0.125
        },
        {
          "name": "C#4",
          "midi": 61,
          "time": 68.90625,
          "velocity": 0.7874015748031497,
          "duration": 0.125
        },
        {
          "name": "G#3",
          "midi": 56,
          "time": 69,
          "velocity": 0.7874015748031497,
          "duration": 0.125
        },
        {
          "name": "C4",
          "midi": 60,
          "time": 69.15625,
          "velocity": 0.7874015748031497,
          "duration": 0.125
        },
        {
          "name": "F#4",
          "midi": 66,
          "time": 69.25,
          "velocity": 0.7874015748031497,
          "duration": 0.125
        },
        {
          "name": "C4",
          "midi": 60,
          "time": 69.40625,
          "velocity": 0.7874015748031497,
          "duration": 0.125
        },
        {
          "name": "G#3",
          "midi": 56,
          "time": 69.5,
          "velocity": 0.7874015748031497,
          "duration": 0.125
        },
        {
          "name": "C4",
          "midi": 60,
          "time": 69.65625,
          "velocity": 0.7874015748031497,
          "duration": 0.125
        },
        {
          "name": "F#4",
          "midi": 66,
          "time": 69.75,
          "velocity": 0.7874015748031497,
          "duration": 0.125
        },
        {
          "name": "C4",
          "midi": 60,
          "time": 69.90625,
          "velocity": 0.7874015748031497,
          "duration": 0.125
        },
        {
          "name": "C#4",
          "midi": 61,
          "time": 70,
          "velocity": 0.7874015748031497,
          "duration": 0.125
        },
        {
          "name": "F4",
          "midi": 65,
          "time": 70.15625,
          "velocity": 0.7874015748031497,
          "duration": 0.125
        },
        {
          "name": "G#4",
          "midi": 68,
          "time": 70.25,
          "velocity": 0.7874015748031497,
          "duration": 0.125
        },
        {
          "name": "F4",
          "midi": 65,
          "time": 70.40625,
          "velocity": 0.7874015748031497,
          "duration": 0.125
        },
        {
          "name": "C#4",
          "midi": 61,
          "time": 70.5,
          "velocity": 0.7874015748031497,
          "duration": 0.125
        },
        {
          "name": "F4",
          "midi": 65,
          "time": 70.65625,
          "velocity": 0.7874015748031497,
          "duration": 0.125
        },
        {
          "name": "G#4",
          "midi": 68,
          "time": 70.75,
          "velocity": 0.7874015748031497,
          "duration": 0.125
        },
        {
          "name": "F4",
          "midi": 65,
          "time": 70.90625,
          "velocity": 0.7874015748031497,
          "duration": 0.125
        },
        {
          "name": "C4",
          "midi": 60,
          "time": 71,
          "velocity": 0.7874015748031497,
          "duration": 0.125
        },
        {
          "name": "D#4",
          "midi": 63,
          "time": 71.15625,
          "velocity": 0.7874015748031497,
          "duration": 0.125
        },
        {
          "name": "G#4",
          "midi": 68,
          "time": 71.25,
          "velocity": 0.7874015748031497,
          "duration": 0.125
        },
        {
          "name": "D#4",
          "midi": 63,
          "time": 71.40625,
          "velocity": 0.7874015748031497,
          "duration": 0.125
        },
        {
          "name": "C#4",
          "midi": 61,
          "time": 79.75,
          "velocity": 0.7874015748031497,
          "duration": 0.125
        },
        {
          "name": "G#4",
          "midi": 68,
          "time": 79.875,
          "velocity": 0.7874015748031497,
          "duration": 0.375
        },
        {
          "name": "F4",
          "midi": 65,
          "time": 80.25,
          "velocity": 0.7874015748031497,
          "duration": 0.25
        },
        {
          "name": "D#4",
          "midi": 63,
          "time": 80.5,
          "velocity": 0.7874015748031497,
          "duration": 0.25
        },
        {
          "name": "C#4",
          "midi": 61,
          "time": 80.75,
          "velocity": 0.7874015748031497,
          "duration": 0.125
        },
        {
          "name": "G#4",
          "midi": 68,
          "time": 80.875,
          "velocity": 0.7874015748031497,
          "duration": 0.375
        },
        {
          "name": "F4",
          "midi": 65,
          "time": 81.25,
          "velocity": 0.7874015748031497,
          "duration": 0.25
        },
        {
          "name": "D#4",
          "midi": 63,
          "time": 81.5,
          "velocity": 0.7874015748031497,
          "duration": 0.25
        },
        {
          "name": "C#4",
          "midi": 61,
          "time": 81.75,
          "velocity": 0.7874015748031497,
          "duration": 0.125
        },
        {
          "name": "A#4",
          "midi": 70,
          "time": 81.875,
          "velocity": 0.7874015748031497,
          "duration": 0.375
        },
        {
          "name": "G#4",
          "midi": 68,
          "time": 82.25,
          "velocity": 0.7874015748031497,
          "duration": 0.25
        },
        {
          "name": "F#4",
          "midi": 66,
          "time": 82.5,
          "velocity": 0.7874015748031497,
          "duration": 0.25
        },
        {
          "name": "F4",
          "midi": 65,
          "time": 82.75,
          "velocity": 0.7874015748031497,
          "duration": 0.125
        },
        {
          "name": "F#4",
          "midi": 66,
          "time": 82.875,
          "velocity": 0.7874015748031497,
          "duration": 0.375
        },
        {
          "name": "D#4",
          "midi": 63,
          "time": 83.25,
          "velocity": 0.7874015748031497,
          "duration": 0.25
        },
        {
          "name": "C#4",
          "midi": 61,
          "time": 83.75,
          "velocity": 0.7874015748031497,
          "duration": 0.125
        },
        {
          "name": "F4",
          "midi": 65,
          "time": 83.875,
          "velocity": 0.7874015748031497,
          "duration": 0.375
        },
        {
          "name": "F#4",
          "midi": 66,
          "time": 84.25,
          "velocity": 0.7874015748031497,
          "duration": 0.25
        },
        {
          "name": "F4",
          "midi": 65,
          "time": 84.5,
          "velocity": 0.7874015748031497,
          "duration": 0.25
        },
        {
          "name": "C#4",
          "midi": 61,
          "time": 84.75,
          "velocity": 0.7874015748031497,
          "duration": 0.125
        },
        {
          "name": "D#4",
          "midi": 63,
          "time": 84.875,
          "velocity": 0.7874015748031497,
          "duration": 0.375
        },
        {
          "name": "F4",
          "midi": 65,
          "time": 85.25,
          "velocity": 0.7874015748031497,
          "duration": 0.25
        },
        {
          "name": "F#4",
          "midi": 66,
          "time": 85.5,
          "velocity": 0.7874015748031497,
          "duration": 0.25
        },
        {
          "name": "F4",
          "midi": 65,
          "time": 85.75,
          "velocity": 0.7874015748031497,
          "duration": 0.125
        },
        {
          "name": "D#4",
          "midi": 63,
          "time": 85.875,
          "velocity": 0.7874015748031497,
          "duration": 0.25
        },
        {
          "name": "C#4",
          "midi": 61,
          "time": 86.25,
          "velocity": 0.7874015748031497,
          "duration": 0.25
        },
        {
          "name": "C#4",
          "midi": 61,
          "time": 95.75,
          "velocity": 0.7874015748031497,
          "duration": 0.125
        },
        {
          "name": "G#4",
          "midi": 68,
          "time": 95.875,
          "velocity": 0.7874015748031497,
          "duration": 0.375
        },
        {
          "name": "F4",
          "midi": 65,
          "time": 96.25,
          "velocity": 0.7874015748031497,
          "duration": 0.25
        },
        {
          "name": "D#4",
          "midi": 63,
          "time": 96.5,
          "velocity": 0.7874015748031497,
          "duration": 0.25
        },
        {
          "name": "C#4",
          "midi": 61,
          "time": 96.75,
          "velocity": 0.7874015748031497,
          "duration": 0.125
        },
        {
          "name": "G#4",
          "midi": 68,
          "time": 96.875,
          "velocity": 0.7874015748031497,
          "duration": 0.375
        },
        {
          "name": "F4",
          "midi": 65,
          "time": 97.25,
          "velocity": 0.7874015748031497,
          "duration": 0.25
        },
        {
          "name": "D#4",
          "midi": 63,
          "time": 97.5,
          "velocity": 0.7874015748031497,
          "duration": 0.25
        },
        {
          "name": "C#4",
          "midi": 61,
          "time": 97.75,
          "velocity": 0.7874015748031497,
          "duration": 0.125
        },
        {
          "name": "A#4",
          "midi": 70,
          "time": 97.875,
          "velocity": 0.7874015748031497,
          "duration": 0.375
        },
        {
          "name": "G#4",
          "midi": 68,
          "time": 98.25,
          "velocity": 0.7874015748031497,
          "duration": 0.25
        },
        {
          "name": "F#4",
          "midi": 66,
          "time": 98.5,
          "velocity": 0.7874015748031497,
          "duration": 0.25
        },
        {
          "name": "F4",
          "midi": 65,
          "time": 98.75,
          "velocity": 0.7874015748031497,
          "duration": 0.125
        },
        {
          "name": "F#4",
          "midi": 66,
          "time": 98.875,
          "velocity": 0.7874015748031497,
          "duration": 0.375
        },
        {
          "name": "D#4",
          "midi": 63,
          "time": 99.25,
          "velocity": 0.7874015748031497,
          "duration": 0.25
        },
        {
          "name": "C#4",
          "midi": 61,
          "time": 99.75,
          "velocity": 0.7874015748031497,
          "duration": 0.125
        },
        {
          "name": "F4",
          "midi": 65,
          "time": 99.875,
          "velocity": 0.7874015748031497,
          "duration": 0.375
        },
        {
          "name": "F#4",
          "midi": 66,
          "time": 100.25,
          "velocity": 0.7874015748031497,
          "duration": 0.25
        },
        {
          "name": "F4",
          "midi": 65,
          "time": 100.5,
          "velocity": 0.7874015748031497,
          "duration": 0.25
        },
        {
          "name": "C#4",
          "midi": 61,
          "time": 100.75,
          "velocity": 0.7874015748031497,
          "duration": 0.125
        },
        {
          "name": "D#4",
          "midi": 63,
          "time": 100.875,
          "velocity": 0.7874015748031497,
          "duration": 0.375
        },
        {
          "name": "F4",
          "midi": 65,
          "time": 101.25,
          "velocity": 0.7874015748031497,
          "duration": 0.25
        },
        {
          "name": "F#4",
          "midi": 66,
          "time": 101.5,
          "velocity": 0.7874015748031497,
          "duration": 0.25
        },
        {
          "name": "F4",
          "midi": 65,
          "time": 101.75,
          "velocity": 0.7874015748031497,
          "duration": 0.125
        },
        {
          "name": "D#4",
          "midi": 63,
          "time": 101.875,
          "velocity": 0.7874015748031497,
          "duration": 0.25
        },
        {
          "name": "C#4",
          "midi": 61,
          "time": 102.25,
          "velocity": 0.7874015748031497,
          "duration": 0.25
        },
        {
          "name": "A#4",
          "midi": 70,
          "time": 103.75,
          "velocity": 0.7874015748031497,
          "duration": 0.25
        },
        {
          "name": "C#5",
          "midi": 73,
          "time": 104,
          "velocity": 0.7874015748031497,
          "duration": 0.5
        },
        {
          "name": "D#5",
          "midi": 75,
          "time": 104.5,
          "velocity": 0.7874015748031497,
          "duration": 0.25
        },
        {
          "name": "C5",
          "midi": 72,
          "time": 104.75,
          "velocity": 0.7874015748031497,
          "duration": 0.5
        },
        {
          "name": "A#4",
          "midi": 70,
          "time": 105.75,
          "velocity": 0.7874015748031497,
          "duration": 0.25
        },
        {
          "name": "C#5",
          "midi": 73,
          "time": 106,
          "velocity": 0.7874015748031497,
          "duration": 0.25
        },
        {
          "name": "A#4",
          "midi": 70,
          "time": 106.25,
          "velocity": 0.7874015748031497,
          "duration": 0.25
        },
        {
          "name": "B4",
          "midi": 71,
          "time": 106.5,
          "velocity": 0.7874015748031497,
          "duration": 0.125
        },
        {
          "name": "A#4",
          "midi": 70,
          "time": 106.625,
          "velocity": 0.7874015748031497,
          "duration": 0.25
        },
        {
          "name": "D5",
          "midi": 74,
          "time": 106.875,
          "velocity": 0.7874015748031497,
          "duration": 0.375
        },
        {
          "name": "B4",
          "midi": 71,
          "time": 107.25,
          "velocity": 0.7874015748031497,
          "duration": 0.25
        },
        {
          "name": "B4",
          "midi": 71,
          "time": 107.5,
          "velocity": 0.7874015748031497,
          "duration": 0.25
        },
        {
          "name": "A#4",
          "midi": 70,
          "time": 107.75,
          "velocity": 0.7874015748031497,
          "duration": 0.125
        },
        {
          "name": "G#4",
          "midi": 68,
          "time": 107.875,
          "velocity": 0.7874015748031497,
          "duration": 0.375
        },
        {
          "name": "F#4",
          "midi": 66,
          "time": 108.25,
          "velocity": 0.7874015748031497,
          "duration": 0.375
        },
        {
          "name": "F#4",
          "midi": 66,
          "time": 108.625,
          "velocity": 0.7874015748031497,
          "duration": 0.125
        },
        {
          "name": "F#4",
          "midi": 66,
          "time": 108.75,
          "velocity": 0.7874015748031497,
          "duration": 0.125
        },
        {
          "name": "F4",
          "midi": 65,
          "time": 108.875,
          "velocity": 0.7874015748031497,
          "duration": 0.375
        },
        {
          "name": "F#4",
          "midi": 66,
          "time": 109.25,
          "velocity": 0.7874015748031497,
          "duration": 0.25
        },
        {
          "name": "F4",
          "midi": 65,
          "time": 109.5,
          "velocity": 0.7874015748031497,
          "duration": 0.25
        },
        {
          "name": "D#4",
          "midi": 63,
          "time": 109.75,
          "velocity": 0.7874015748031497,
          "duration": 0.125
        },
        {
          "name": "D#4",
          "midi": 63,
          "time": 109.875,
          "velocity": 0.7874015748031497,
          "duration": 0.375
        },
        {
          "name": "C#4",
          "midi": 61,
          "time": 110.25,
          "velocity": 0.7874015748031497,
          "duration": 0.75
        },
        {
          "name": "A#4",
          "midi": 70,
          "time": 111.75,
          "velocity": 0.7874015748031497,
          "duration": 0.25
        },
        {
          "name": "C#5",
          "midi": 73,
          "time": 112,
          "velocity": 0.7874015748031497,
          "duration": 0.5
        },
        {
          "name": "D#5",
          "midi": 75,
          "time": 112.5,
          "velocity": 0.7874015748031497,
          "duration": 0.25
        },
        {
          "name": "C5",
          "midi": 72,
          "time": 112.75,
          "velocity": 0.7874015748031497,
          "duration": 0.5
        },
        {
          "name": "A#4",
          "midi": 70,
          "time": 113.75,
          "velocity": 0.7874015748031497,
          "duration": 0.25
        },
        {
          "name": "C#5",
          "midi": 73,
          "time": 114,
          "velocity": 0.7874015748031497,
          "duration": 0.25
        },
        {
          "name": "A#4",
          "midi": 70,
          "time": 114.25,
          "velocity": 0.7874015748031497,
          "duration": 0.25
        },
        {
          "name": "B4",
          "midi": 71,
          "time": 114.5,
          "velocity": 0.7874015748031497,
          "duration": 0.125
        },
        {
          "name": "A#4",
          "midi": 70,
          "time": 114.625,
          "velocity": 0.7874015748031497,
          "duration": 0.25
        },
        {
          "name": "D5",
          "midi": 74,
          "time": 114.875,
          "velocity": 0.7874015748031497,
          "duration": 0.375
        },
        {
          "name": "B4",
          "midi": 71,
          "time": 115.25,
          "velocity": 0.7874015748031497,
          "duration": 0.25
        },
        {
          "name": "B4",
          "midi": 71,
          "time": 115.5,
          "velocity": 0.7874015748031497,
          "duration": 0.25
        },
        {
          "name": "A#4",
          "midi": 70,
          "time": 115.75,
          "velocity": 0.7874015748031497,
          "duration": 0.125
        },
        {
          "name": "G#4",
          "midi": 68,
          "time": 115.875,
          "velocity": 0.7874015748031497,
          "duration": 0.375
        },
        {
          "name": "F#4",
          "midi": 66,
          "time": 116.25,
          "velocity": 0.7874015748031497,
          "duration": 0.375
        },
        {
          "name": "F#4",
          "midi": 66,
          "time": 116.625,
          "velocity": 0.7874015748031497,
          "duration": 0.125
        },
        {
          "name": "F#4",
          "midi": 66,
          "time": 116.75,
          "velocity": 0.7874015748031497,
          "duration": 0.125
        },
        {
          "name": "F4",
          "midi": 65,
          "time": 116.875,
          "velocity": 0.7874015748031497,
          "duration": 0.375
        },
        {
          "name": "F#4",
          "midi": 66,
          "time": 117.25,
          "velocity": 0.7874015748031497,
          "duration": 0.25
        },
        {
          "name": "F4",
          "midi": 65,
          "time": 117.5,
          "velocity": 0.7874015748031497,
          "duration": 0.25
        },
        {
          "name": "D#4",
          "midi": 63,
          "time": 117.75,
          "velocity": 0.7874015748031497,
          "duration": 0.125
        },
        {
          "name": "D#4",
          "midi": 63,
          "time": 117.875,
          "velocity": 0.7874015748031497,
          "duration": 0.375
        },
        {
          "name": "C#4",
          "midi": 61,
          "time": 118.25,
          "velocity": 0.7874015748031497,
          "duration": 0.75
        },
        {
          "name": "A#3",
          "midi": 58,
          "time": 127.5,
          "velocity": 0.7874015748031497,
          "duration": 0.25
        },
        {
          "name": "C#4",
          "midi": 61,
          "time": 127.75,
          "velocity": 0.7874015748031497,
          "duration": 0.25
        },
        {
          "name": "F4",
          "midi": 65,
          "time": 128,
          "velocity": 0.7874015748031497,
          "duration": 0.25
        },
        {
          "name": "A#3",
          "midi": 58,
          "time": 128.25,
          "velocity": 0.7874015748031497,
          "duration": 0.25
        },
        {
          "name": "C#4",
          "midi": 61,
          "time": 128.5,
          "velocity": 0.7874015748031497,
          "duration": 0.25
        },
        {
          "name": "F4",
          "midi": 65,
          "time": 128.75,
          "velocity": 0.7874015748031497,
          "duration": 0.25
        },
        {
          "name": "B3",
          "midi": 59,
          "time": 129.5,
          "velocity": 0.7874015748031497,
          "duration": 0.25
        },
        {
          "name": "C#4",
          "midi": 61,
          "time": 129.75,
          "velocity": 0.7874015748031497,
          "duration": 0.25
        },
        {
          "name": "F4",
          "midi": 65,
          "time": 130,
          "velocity": 0.7874015748031497,
          "duration": 0.25
        },
        {
          "name": "B3",
          "midi": 59,
          "time": 130.25,
          "velocity": 0.7874015748031497,
          "duration": 0.25
        },
        {
          "name": "C#4",
          "midi": 61,
          "time": 130.5,
          "velocity": 0.7874015748031497,
          "duration": 0.25
        },
        {
          "name": "G#4",
          "midi": 68,
          "time": 130.75,
          "velocity": 0.7874015748031497,
          "duration": 0.25
        },
        {
          "name": "F#4",
          "midi": 66,
          "time": 131.5,
          "velocity": 0.7874015748031497,
          "duration": 0.25
        },
        {
          "name": "A#4",
          "midi": 70,
          "time": 131.75,
          "velocity": 0.7874015748031497,
          "duration": 0.25
        },
        {
          "name": "C#5",
          "midi": 73,
          "time": 132,
          "velocity": 0.7874015748031497,
          "duration": 0.25
        },
        {
          "name": "F#4",
          "midi": 66,
          "time": 132.25,
          "velocity": 0.7874015748031497,
          "duration": 0.25
        },
        {
          "name": "A4",
          "midi": 69,
          "time": 132.5,
          "velocity": 0.7874015748031497,
          "duration": 0.25
        },
        {
          "name": "D#5",
          "midi": 75,
          "time": 132.75,
          "velocity": 0.7874015748031497,
          "duration": 0.25
        },
        {
          "name": "F4",
          "midi": 65,
          "time": 133.5,
          "velocity": 0.7874015748031497,
          "duration": 0.25
        },
        {
          "name": "G#4",
          "midi": 68,
          "time": 133.75,
          "velocity": 0.7874015748031497,
          "duration": 0.25
        },
        {
          "name": "C#5",
          "midi": 73,
          "time": 134,
          "velocity": 0.7874015748031497,
          "duration": 0.25
        },
        {
          "name": "F4",
          "midi": 65,
          "time": 134.25,
          "velocity": 0.7874015748031497,
          "duration": 0.25
        },
        {
          "name": "D#4",
          "midi": 63,
          "time": 134.5,
          "velocity": 0.7874015748031497,
          "duration": 0.25
        },
        {
          "name": "C#4",
          "midi": 61,
          "time": 134.75,
          "velocity": 0.7874015748031497,
          "duration": 0.25
        },
        {
          "name": "C4",
          "midi": 60,
          "time": 135,
          "velocity": 0.7874015748031497,
          "duration": 0.25
        },
        {
          "name": "C#4",
          "midi": 61,
          "time": 135.25,
          "velocity": 0.7874015748031497,
          "duration": 0.25
        }
      ],
      "controlChanges": {},
      "id": 0,
      "name": "",
      "channelNumber": 0,
      "isPercussion": false
    }
  ]
}