var midi = {
  "header": {
    "PPQ": 96,
    "timeSignature": [
      4,
      4
    ],
    "bpm": 120,
    "name": ""
  },
  "tempo": [],
  "timeSignature": [
    {
      "absoluteTime": 0,
      "seconds": 0,
      "numerator": 4,
      "denominator": 2,
      "click": 36,
      "notesQ": 8
    },
    {
      "absoluteTime": 0,
      "seconds": 0,
      "numerator": 4,
      "denominator": 2,
      "click": 36,
      "notesQ": 8
    }
  ],
  "startTime": 8.25,
  "duration": 136,
  "tracks": [
    {
      "startTime": 8.25,
      "duration": 136,
      "length": 391,
      "notes": [
        {
          "name": "E4",
          "midi": 64,
          "time": 8.25,
          "velocity": 0.7874015748031497,
          "duration": 0.25
        },
        {
          "name": "D#4",
          "midi": 63,
          "time": 8.5,
          "velocity": 0.7874015748031497,
          "duration": 0.25
        },
        {
          "name": "C#4",
          "midi": 61,
          "time": 8.75,
          "velocity": 0.7874015748031497,
          "duration": 0.25
        },
        {
          "name": "B3",
          "midi": 59,
          "time": 9,
          "velocity": 0.7874015748031497,
          "duration": 0.25
        },
        {
          "name": "E4",
          "midi": 64,
          "time": 9.25,
          "velocity": 0.7874015748031497,
          "duration": 0.25
        },
        {
          "name": "G#3",
          "midi": 56,
          "time": 9.5,
          "velocity": 0.7874015748031497,
          "duration": 0.25
        },
        {
          "name": "B3",
          "midi": 59,
          "time": 9.75,
          "velocity": 0.7874015748031497,
          "duration": 0.125
        },
        {
          "name": "C#4",
          "midi": 61,
          "time": 9.875,
          "velocity": 0.7874015748031497,
          "duration": 0.125
        },
        {
          "name": "B3",
          "midi": 59,
          "time": 10,
          "velocity": 0.7874015748031497,
          "duration": 0.25
        },
        {
          "name": "A3",
          "midi": 57,
          "time": 10.25,
          "velocity": 0.7874015748031497,
          "duration": 0.25
        },
        {
          "name": "G#3",
          "midi": 56,
          "time": 10.5,
          "velocity": 0.7874015748031497,
          "duration": 0.25
        },
        {
          "name": "F#3",
          "midi": 54,
          "time": 10.75,
          "velocity": 0.7874015748031497,
          "duration": 0.25
        },
        {
          "name": "G#3",
          "midi": 56,
          "time": 11,
          "velocity": 0.7874015748031497,
          "duration": 0.25
        },
        {
          "name": "C#3",
          "midi": 49,
          "time": 11.25,
          "velocity": 0.7874015748031497,
          "duration": 0.25
        },
        {
          "name": "E3",
          "midi": 52,
          "time": 11.5,
          "velocity": 0.7874015748031497,
          "duration": 0.25
        },
        {
          "name": "F#3",
          "midi": 54,
          "time": 14,
          "velocity": 0.7874015748031497,
          "duration": 0.25
        },
        {
          "name": "A3",
          "midi": 57,
          "time": 14.25,
          "velocity": 0.7874015748031497,
          "duration": 0.25
        },
        {
          "name": "G#3",
          "midi": 56,
          "time": 14.5,
          "velocity": 0.7874015748031497,
          "duration": 0.25
        },
        {
          "name": "F#3",
          "midi": 54,
          "time": 14.75,
          "velocity": 0.7874015748031497,
          "duration": 0.25
        },
        {
          "name": "E3",
          "midi": 52,
          "time": 15,
          "velocity": 0.7874015748031497,
          "duration": 0.25
        },
        {
          "name": "D#3",
          "midi": 51,
          "time": 15.25,
          "velocity": 0.7874015748031497,
          "duration": 0.25
        },
        {
          "name": "C#3",
          "midi": 49,
          "time": 15.5,
          "velocity": 0.7874015748031497,
          "duration": 0.25
        },
        {
          "name": "D#3",
          "midi": 51,
          "time": 15.75,
          "velocity": 0.7874015748031497,
          "duration": 0.25
        },
        {
          "name": "C#3",
          "midi": 49,
          "time": 16,
          "velocity": 0.7874015748031497,
          "duration": 0.25
        },
        {
          "name": "E4",
          "midi": 64,
          "time": 16.25,
          "velocity": 0.7874015748031497,
          "duration": 0.25
        },
        {
          "name": "D#4",
          "midi": 63,
          "time": 16.5,
          "velocity": 0.7874015748031497,
          "duration": 0.25
        },
        {
          "name": "C#4",
          "midi": 61,
          "time": 16.75,
          "velocity": 0.7874015748031497,
          "duration": 0.125
        },
        {
          "name": "C#4",
          "midi": 61,
          "time": 16.875,
          "velocity": 0.7874015748031497,
          "duration": 0.125
        },
        {
          "name": "B3",
          "midi": 59,
          "time": 17,
          "velocity": 0.7874015748031497,
          "duration": 0.25
        },
        {
          "name": "E4",
          "midi": 64,
          "time": 17.25,
          "velocity": 0.7874015748031497,
          "duration": 0.25
        },
        {
          "name": "G#3",
          "midi": 56,
          "time": 17.5,
          "velocity": 0.7874015748031497,
          "duration": 0.25
        },
        {
          "name": "B3",
          "midi": 59,
          "time": 17.75,
          "velocity": 0.7874015748031497,
          "duration": 0.125
        },
        {
          "name": "C#4",
          "midi": 61,
          "time": 17.875,
          "velocity": 0.7874015748031497,
          "duration": 0.125
        },
        {
          "name": "B3",
          "midi": 59,
          "time": 18,
          "velocity": 0.7874015748031497,
          "duration": 0.25
        },
        {
          "name": "A3",
          "midi": 57,
          "time": 18.25,
          "velocity": 0.7874015748031497,
          "duration": 0.25
        },
        {
          "name": "G#3",
          "midi": 56,
          "time": 18.5,
          "velocity": 0.7874015748031497,
          "duration": 0.25
        },
        {
          "name": "F#3",
          "midi": 54,
          "time": 18.75,
          "velocity": 0.7874015748031497,
          "duration": 0.25
        },
        {
          "name": "G#3",
          "midi": 56,
          "time": 19,
          "velocity": 0.7874015748031497,
          "duration": 0.25
        },
        {
          "name": "C#3",
          "midi": 49,
          "time": 19.25,
          "velocity": 0.7874015748031497,
          "duration": 0.25
        },
        {
          "name": "E3",
          "midi": 52,
          "time": 19.5,
          "velocity": 0.7874015748031497,
          "duration": 0.25
        },
        {
          "name": "E3",
          "midi": 52,
          "time": 19.75,
          "velocity": 0.7874015748031497,
          "duration": 0.125
        },
        {
          "name": "E3",
          "midi": 52,
          "time": 19.875,
          "velocity": 0.7874015748031497,
          "duration": 0.125
        },
        {
          "name": "G#4",
          "midi": 68,
          "time": 24.25,
          "velocity": 0.7874015748031497,
          "duration": 0.25
        },
        {
          "name": "G#4",
          "midi": 68,
          "time": 24.5,
          "velocity": 0.7874015748031497,
          "duration": 0.125
        },
        {
          "name": "F#4",
          "midi": 66,
          "time": 24.625,
          "velocity": 0.7874015748031497,
          "duration": 0.125
        },
        {
          "name": "E4",
          "midi": 64,
          "time": 24.75,
          "velocity": 0.7874015748031497,
          "duration": 0.125
        },
        {
          "name": "F#4",
          "midi": 66,
          "time": 24.875,
          "velocity": 0.7874015748031497,
          "duration": 0.125
        },
        {
          "name": "E4",
          "midi": 64,
          "time": 25,
          "velocity": 0.7874015748031497,
          "duration": 0.125
        },
        {
          "name": "G#4",
          "midi": 68,
          "time": 25.25,
          "velocity": 0.7874015748031497,
          "duration": 0.25
        },
        {
          "name": "G#4",
          "midi": 68,
          "time": 25.5,
          "velocity": 0.7874015748031497,
          "duration": 0.125
        },
        {
          "name": "F#4",
          "midi": 66,
          "time": 25.625,
          "velocity": 0.7874015748031497,
          "duration": 0.125
        },
        {
          "name": "E4",
          "midi": 64,
          "time": 25.75,
          "velocity": 0.7874015748031497,
          "duration": 0.125
        },
        {
          "name": "F#4",
          "midi": 66,
          "time": 25.875,
          "velocity": 0.7874015748031497,
          "duration": 0.125
        },
        {
          "name": "E4",
          "midi": 64,
          "time": 26,
          "velocity": 0.7874015748031497,
          "duration": 0.125
        },
        {
          "name": "G#4",
          "midi": 68,
          "time": 26.25,
          "velocity": 0.7874015748031497,
          "duration": 0.25
        },
        {
          "name": "G#4",
          "midi": 68,
          "time": 26.5,
          "velocity": 0.7874015748031497,
          "duration": 0.125
        },
        {
          "name": "F#4",
          "midi": 66,
          "time": 26.625,
          "velocity": 0.7874015748031497,
          "duration": 0.125
        },
        {
          "name": "E4",
          "midi": 64,
          "time": 26.75,
          "velocity": 0.7874015748031497,
          "duration": 0.125
        },
        {
          "name": "F#4",
          "midi": 66,
          "time": 26.875,
          "velocity": 0.7874015748031497,
          "duration": 0.125
        },
        {
          "name": "G#4",
          "midi": 68,
          "time": 27,
          "velocity": 0.7874015748031497,
          "duration": 0.125
        },
        {
          "name": "A4",
          "midi": 69,
          "time": 27.125,
          "velocity": 0.7874015748031497,
          "duration": 0.125
        },
        {
          "name": "G#4",
          "midi": 68,
          "time": 27.25,
          "velocity": 0.7874015748031497,
          "duration": 0.125
        },
        {
          "name": "E4",
          "midi": 64,
          "time": 27.375,
          "velocity": 0.7874015748031497,
          "duration": 0.625
        },
        {
          "name": "E4",
          "midi": 64,
          "time": 28.25,
          "velocity": 0.7874015748031497,
          "duration": 0.125
        },
        {
          "name": "E4",
          "midi": 64,
          "time": 28.375,
          "velocity": 0.7874015748031497,
          "duration": 0.125
        },
        {
          "name": "E4",
          "midi": 64,
          "time": 28.5,
          "velocity": 0.7874015748031497,
          "duration": 0.125
        },
        {
          "name": "E4",
          "midi": 64,
          "time": 28.625,
          "velocity": 0.7874015748031497,
          "duration": 0.125
        },
        {
          "name": "C#4",
          "midi": 61,
          "time": 28.75,
          "velocity": 0.7874015748031497,
          "duration": 0.125
        },
        {
          "name": "C#4",
          "midi": 61,
          "time": 28.875,
          "velocity": 0.7874015748031497,
          "duration": 0.125
        },
        {
          "name": "E4",
          "midi": 64,
          "time": 29.25,
          "velocity": 0.7874015748031497,
          "duration": 0.125
        },
        {
          "name": "E4",
          "midi": 64,
          "time": 29.375,
          "velocity": 0.7874015748031497,
          "duration": 0.125
        },
        {
          "name": "E4",
          "midi": 64,
          "time": 29.5,
          "velocity": 0.7874015748031497,
          "duration": 0.125
        },
        {
          "name": "E4",
          "midi": 64,
          "time": 29.625,
          "velocity": 0.7874015748031497,
          "duration": 0.125
        },
        {
          "name": "C#4",
          "midi": 61,
          "time": 29.75,
          "velocity": 0.7874015748031497,
          "duration": 0.125
        },
        {
          "name": "C#4",
          "midi": 61,
          "time": 29.875,
          "velocity": 0.7874015748031497,
          "duration": 0.125
        },
        {
          "name": "E4",
          "midi": 64,
          "time": 30.25,
          "velocity": 0.7874015748031497,
          "duration": 0.125
        },
        {
          "name": "E4",
          "midi": 64,
          "time": 30.375,
          "velocity": 0.7874015748031497,
          "duration": 0.125
        },
        {
          "name": "E4",
          "midi": 64,
          "time": 30.5,
          "velocity": 0.7874015748031497,
          "duration": 0.125
        },
        {
          "name": "C#4",
          "midi": 61,
          "time": 30.625,
          "velocity": 0.7874015748031497,
          "duration": 0.125
        },
        {
          "name": "E4",
          "midi": 64,
          "time": 30.75,
          "velocity": 0.7874015748031497,
          "duration": 0.125
        },
        {
          "name": "F#4",
          "midi": 66,
          "time": 30.875,
          "velocity": 0.7874015748031497,
          "duration": 0.125
        },
        {
          "name": "D#4",
          "midi": 63,
          "time": 31,
          "velocity": 0.7874015748031497,
          "duration": 0.125
        },
        {
          "name": "C#4",
          "midi": 61,
          "time": 31.25,
          "velocity": 0.7874015748031497,
          "duration": 0.125
        },
        {
          "name": "E4",
          "midi": 64,
          "time": 31.5,
          "velocity": 0.7874015748031497,
          "duration": 0.125
        },
        {
          "name": "D#4",
          "midi": 63,
          "time": 31.625,
          "velocity": 0.7874015748031497,
          "duration": 0.375
        },
        {
          "name": "F#4",
          "midi": 66,
          "time": 40,
          "velocity": 0.7874015748031497,
          "duration": 0.5
        },
        {
          "name": "E4",
          "midi": 64,
          "time": 40.5,
          "velocity": 0.7874015748031497,
          "duration": 0.5
        },
        {
          "name": "C#4",
          "midi": 61,
          "time": 41.875,
          "velocity": 0.7874015748031497,
          "duration": 0.125
        },
        {
          "name": "E4",
          "midi": 64,
          "time": 42,
          "velocity": 0.7874015748031497,
          "duration": 0.25
        },
        {
          "name": "E4",
          "midi": 64,
          "time": 42.25,
          "velocity": 0.7874015748031497,
          "duration": 0.125
        },
        {
          "name": "C#4",
          "midi": 61,
          "time": 42.375,
          "velocity": 0.7874015748031497,
          "duration": 0.125
        },
        {
          "name": "E4",
          "midi": 64,
          "time": 42.5,
          "velocity": 0.7874015748031497,
          "duration": 0.125
        },
        {
          "name": "F#4",
          "midi": 66,
          "time": 42.625,
          "velocity": 0.7874015748031497,
          "duration": 0.25
        },
        {
          "name": "G#4",
          "midi": 68,
          "time": 42.875,
          "velocity": 0.7874015748031497,
          "duration": 0.25
        },
        {
          "name": "G#4",
          "midi": 68,
          "time": 43.125,
          "velocity": 0.7874015748031497,
          "duration": 0.25
        },
        {
          "name": "G#4",
          "midi": 68,
          "time": 43.375,
          "velocity": 0.7874015748031497,
          "duration": 0.25
        },
        {
          "name": "G#4",
          "midi": 68,
          "time": 43.625,
          "velocity": 0.7874015748031497,
          "duration": 0.125
        },
        {
          "name": "A4",
          "midi": 69,
          "time": 43.75,
          "velocity": 0.7874015748031497,
          "duration": 0.25
        },
        {
          "name": "F#4",
          "midi": 66,
          "time": 44,
          "velocity": 0.7874015748031497,
          "duration": 0.5
        },
        {
          "name": "E4",
          "midi": 64,
          "time": 44.5,
          "velocity": 0.7874015748031497,
          "duration": 0.5
        },
        {
          "name": "C#4",
          "midi": 61,
          "time": 45.875,
          "velocity": 0.7874015748031497,
          "duration": 0.125
        },
        {
          "name": "E4",
          "midi": 64,
          "time": 46,
          "velocity": 0.7874015748031497,
          "duration": 0.25
        },
        {
          "name": "E4",
          "midi": 64,
          "time": 46.25,
          "velocity": 0.7874015748031497,
          "duration": 0.125
        },
        {
          "name": "C#4",
          "midi": 61,
          "time": 46.375,
          "velocity": 0.7874015748031497,
          "duration": 0.125
        },
        {
          "name": "E4",
          "midi": 64,
          "time": 46.5,
          "velocity": 0.7874015748031497,
          "duration": 0.125
        },
        {
          "name": "F#4",
          "midi": 66,
          "time": 46.625,
          "velocity": 0.7874015748031497,
          "duration": 0.25
        },
        {
          "name": "D#4",
          "midi": 63,
          "time": 46.875,
          "velocity": 0.7874015748031497,
          "duration": 0.25
        },
        {
          "name": "G#4",
          "midi": 68,
          "time": 47.125,
          "velocity": 0.7874015748031497,
          "duration": 0.25
        },
        {
          "name": "G#4",
          "midi": 68,
          "time": 47.375,
          "velocity": 0.7874015748031497,
          "duration": 0.25
        },
        {
          "name": "G#4",
          "midi": 68,
          "time": 47.625,
          "velocity": 0.7874015748031497,
          "duration": 0.125
        },
        {
          "name": "A4",
          "midi": 69,
          "time": 47.75,
          "velocity": 0.7874015748031497,
          "duration": 0.25
        },
        {
          "name": "G#3",
          "midi": 56,
          "time": 48,
          "velocity": 0.7874015748031497,
          "duration": 0.125
        },
        {
          "name": "C#3",
          "midi": 49,
          "time": 48.125,
          "velocity": 0.7874015748031497,
          "duration": 0.125
        },
        {
          "name": "G#2",
          "midi": 44,
          "time": 48.25,
          "velocity": 0.7874015748031497,
          "duration": 0.125
        },
        {
          "name": "C#3",
          "midi": 49,
          "time": 48.375,
          "velocity": 0.7874015748031497,
          "duration": 0.125
        },
        {
          "name": "G#3",
          "midi": 56,
          "time": 48.5,
          "velocity": 0.7874015748031497,
          "duration": 0.125
        },
        {
          "name": "C#3",
          "midi": 49,
          "time": 48.625,
          "velocity": 0.7874015748031497,
          "duration": 0.125
        },
        {
          "name": "G#2",
          "midi": 44,
          "time": 48.75,
          "velocity": 0.7874015748031497,
          "duration": 0.125
        },
        {
          "name": "C#3",
          "midi": 49,
          "time": 48.875,
          "velocity": 0.7874015748031497,
          "duration": 0.125
        },
        {
          "name": "B3",
          "midi": 59,
          "time": 49,
          "velocity": 0.7874015748031497,
          "duration": 0.125
        },
        {
          "name": "E3",
          "midi": 52,
          "time": 49.125,
          "velocity": 0.7874015748031497,
          "duration": 0.125
        },
        {
          "name": "B2",
          "midi": 47,
          "time": 49.25,
          "velocity": 0.7874015748031497,
          "duration": 0.125
        },
        {
          "name": "E3",
          "midi": 52,
          "time": 49.375,
          "velocity": 0.7874015748031497,
          "duration": 0.125
        },
        {
          "name": "B3",
          "midi": 59,
          "time": 49.5,
          "velocity": 0.7874015748031497,
          "duration": 0.125
        },
        {
          "name": "E3",
          "midi": 52,
          "time": 49.625,
          "velocity": 0.7874015748031497,
          "duration": 0.125
        },
        {
          "name": "B2",
          "midi": 47,
          "time": 49.75,
          "velocity": 0.7874015748031497,
          "duration": 0.125
        },
        {
          "name": "E3",
          "midi": 52,
          "time": 49.875,
          "velocity": 0.7874015748031497,
          "duration": 0.125
        },
        {
          "name": "A3",
          "midi": 57,
          "time": 50,
          "velocity": 0.7874015748031497,
          "duration": 0.125
        },
        {
          "name": "E3",
          "midi": 52,
          "time": 50.125,
          "velocity": 0.7874015748031497,
          "duration": 0.125
        },
        {
          "name": "A2",
          "midi": 45,
          "time": 50.25,
          "velocity": 0.7874015748031497,
          "duration": 0.125
        },
        {
          "name": "E3",
          "midi": 52,
          "time": 50.375,
          "velocity": 0.7874015748031497,
          "duration": 0.125
        },
        {
          "name": "A3",
          "midi": 57,
          "time": 50.5,
          "velocity": 0.7874015748031497,
          "duration": 0.125
        },
        {
          "name": "E3",
          "midi": 52,
          "time": 50.625,
          "velocity": 0.7874015748031497,
          "duration": 0.125
        },
        {
          "name": "A2",
          "midi": 45,
          "time": 50.75,
          "velocity": 0.7874015748031497,
          "duration": 0.125
        },
        {
          "name": "E3",
          "midi": 52,
          "time": 50.875,
          "velocity": 0.7874015748031497,
          "duration": 0.125
        },
        {
          "name": "G#3",
          "midi": 56,
          "time": 51,
          "velocity": 0.7874015748031497,
          "duration": 0.125
        },
        {
          "name": "E3",
          "midi": 52,
          "time": 51.125,
          "velocity": 0.7874015748031497,
          "duration": 0.125
        },
        {
          "name": "G#2",
          "midi": 44,
          "time": 51.25,
          "velocity": 0.7874015748031497,
          "duration": 0.125
        },
        {
          "name": "E3",
          "midi": 52,
          "time": 51.375,
          "velocity": 0.7874015748031497,
          "duration": 0.125
        },
        {
          "name": "G#3",
          "midi": 56,
          "time": 51.5,
          "velocity": 0.7874015748031497,
          "duration": 0.125
        },
        {
          "name": "E3",
          "midi": 52,
          "time": 51.625,
          "velocity": 0.7874015748031497,
          "duration": 0.125
        },
        {
          "name": "G#2",
          "midi": 44,
          "time": 51.75,
          "velocity": 0.7874015748031497,
          "duration": 0.125
        },
        {
          "name": "E3",
          "midi": 52,
          "time": 51.875,
          "velocity": 0.7874015748031497,
          "duration": 0.125
        },
        {
          "name": "F#3",
          "midi": 54,
          "time": 52,
          "velocity": 0.7874015748031497,
          "duration": 0.125
        },
        {
          "name": "C#3",
          "midi": 49,
          "time": 52.125,
          "velocity": 0.7874015748031497,
          "duration": 0.125
        },
        {
          "name": "F#2",
          "midi": 42,
          "time": 52.25,
          "velocity": 0.7874015748031497,
          "duration": 0.125
        },
        {
          "name": "C#3",
          "midi": 49,
          "time": 52.375,
          "velocity": 0.7874015748031497,
          "duration": 0.125
        },
        {
          "name": "F#3",
          "midi": 54,
          "time": 52.5,
          "velocity": 0.7874015748031497,
          "duration": 0.125
        },
        {
          "name": "C#3",
          "midi": 49,
          "time": 52.625,
          "velocity": 0.7874015748031497,
          "duration": 0.125
        },
        {
          "name": "F#2",
          "midi": 42,
          "time": 52.75,
          "velocity": 0.7874015748031497,
          "duration": 0.125
        },
        {
          "name": "C#3",
          "midi": 49,
          "time": 52.875,
          "velocity": 0.7874015748031497,
          "duration": 0.125
        },
        {
          "name": "G3",
          "midi": 55,
          "time": 53,
          "velocity": 0.7874015748031497,
          "duration": 0.125
        },
        {
          "name": "D#3",
          "midi": 51,
          "time": 53.125,
          "velocity": 0.7874015748031497,
          "duration": 0.125
        },
        {
          "name": "G2",
          "midi": 43,
          "time": 53.25,
          "velocity": 0.7874015748031497,
          "duration": 0.125
        },
        {
          "name": "D#3",
          "midi": 51,
          "time": 53.375,
          "velocity": 0.7874015748031497,
          "duration": 0.125
        },
        {
          "name": "G3",
          "midi": 55,
          "time": 53.5,
          "velocity": 0.7874015748031497,
          "duration": 0.125
        },
        {
          "name": "D#3",
          "midi": 51,
          "time": 53.625,
          "velocity": 0.7874015748031497,
          "duration": 0.125
        },
        {
          "name": "G2",
          "midi": 43,
          "time": 53.75,
          "velocity": 0.7874015748031497,
          "duration": 0.125
        },
        {
          "name": "D#3",
          "midi": 51,
          "time": 53.875,
          "velocity": 0.7874015748031497,
          "duration": 0.125
        },
        {
          "name": "G#3",
          "midi": 56,
          "time": 54,
          "velocity": 0.7874015748031497,
          "duration": 0.125
        },
        {
          "name": "D#3",
          "midi": 51,
          "time": 54.125,
          "velocity": 0.7874015748031497,
          "duration": 0.125
        },
        {
          "name": "G#2",
          "midi": 44,
          "time": 54.25,
          "velocity": 0.7874015748031497,
          "duration": 0.125
        },
        {
          "name": "D#3",
          "midi": 51,
          "time": 54.375,
          "velocity": 0.7874015748031497,
          "duration": 0.125
        },
        {
          "name": "G#3",
          "midi": 56,
          "time": 54.5,
          "velocity": 0.7874015748031497,
          "duration": 0.125
        },
        {
          "name": "D#3",
          "midi": 51,
          "time": 54.625,
          "velocity": 0.7874015748031497,
          "duration": 0.125
        },
        {
          "name": "G#2",
          "midi": 44,
          "time": 54.75,
          "velocity": 0.7874015748031497,
          "duration": 0.125
        },
        {
          "name": "D#3",
          "midi": 51,
          "time": 54.875,
          "velocity": 0.7874015748031497,
          "duration": 0.125
        },
        {
          "name": "G#3",
          "midi": 56,
          "time": 55,
          "velocity": 0.7874015748031497,
          "duration": 0.125
        },
        {
          "name": "D#3",
          "midi": 51,
          "time": 55.125,
          "velocity": 0.7874015748031497,
          "duration": 0.125
        },
        {
          "name": "G#2",
          "midi": 44,
          "time": 55.25,
          "velocity": 0.7874015748031497,
          "duration": 0.125
        },
        {
          "name": "D#3",
          "midi": 51,
          "time": 55.375,
          "velocity": 0.7874015748031497,
          "duration": 0.125
        },
        {
          "name": "G#3",
          "midi": 56,
          "time": 55.5,
          "velocity": 0.7874015748031497,
          "duration": 0.125
        },
        {
          "name": "D#3",
          "midi": 51,
          "time": 55.625,
          "velocity": 0.7874015748031497,
          "duration": 0.125
        },
        {
          "name": "G#2",
          "midi": 44,
          "time": 55.75,
          "velocity": 0.7874015748031497,
          "duration": 0.125
        },
        {
          "name": "D#3",
          "midi": 51,
          "time": 55.875,
          "velocity": 0.7874015748031497,
          "duration": 0.125
        },
        {
          "name": "E4",
          "midi": 64,
          "time": 56,
          "velocity": 0.7874015748031497,
          "duration": 1
        },
        {
          "name": "D#4",
          "midi": 63,
          "time": 57,
          "velocity": 0.7874015748031497,
          "duration": 0.5
        },
        {
          "name": "C#4",
          "midi": 61,
          "time": 57.5,
          "velocity": 0.7874015748031497,
          "duration": 0.5
        },
        {
          "name": "E4",
          "midi": 64,
          "time": 58,
          "velocity": 0.7874015748031497,
          "duration": 1
        },
        {
          "name": "D4",
          "midi": 62,
          "time": 59,
          "velocity": 0.7874015748031497,
          "duration": 0.5
        },
        {
          "name": "C4",
          "midi": 60,
          "time": 59.5,
          "velocity": 0.7874015748031497,
          "duration": 0.5
        },
        {
          "name": "E4",
          "midi": 64,
          "time": 60,
          "velocity": 0.7874015748031497,
          "duration": 1
        },
        {
          "name": "D#4",
          "midi": 63,
          "time": 61,
          "velocity": 0.7874015748031497,
          "duration": 0.5
        },
        {
          "name": "B3",
          "midi": 59,
          "time": 61.5,
          "velocity": 0.7874015748031497,
          "duration": 0.5
        },
        {
          "name": "C#4",
          "midi": 61,
          "time": 62,
          "velocity": 0.7874015748031497,
          "duration": 1
        },
        {
          "name": "F#4",
          "midi": 66,
          "time": 63,
          "velocity": 0.7874015748031497,
          "duration": 1
        },
        {
          "name": "E4",
          "midi": 64,
          "time": 72.25,
          "velocity": 0.7874015748031497,
          "duration": 0.25
        },
        {
          "name": "D#4",
          "midi": 63,
          "time": 72.5,
          "velocity": 0.7874015748031497,
          "duration": 0.25
        },
        {
          "name": "C#4",
          "midi": 61,
          "time": 72.75,
          "velocity": 0.7874015748031497,
          "duration": 0.25
        },
        {
          "name": "B3",
          "midi": 59,
          "time": 73,
          "velocity": 0.7874015748031497,
          "duration": 0.25
        },
        {
          "name": "E4",
          "midi": 64,
          "time": 73.25,
          "velocity": 0.7874015748031497,
          "duration": 0.25
        },
        {
          "name": "G#3",
          "midi": 56,
          "time": 73.5,
          "velocity": 0.7874015748031497,
          "duration": 0.25
        },
        {
          "name": "B3",
          "midi": 59,
          "time": 73.75,
          "velocity": 0.7874015748031497,
          "duration": 0.125
        },
        {
          "name": "C#4",
          "midi": 61,
          "time": 73.875,
          "velocity": 0.7874015748031497,
          "duration": 0.125
        },
        {
          "name": "B3",
          "midi": 59,
          "time": 74,
          "velocity": 0.7874015748031497,
          "duration": 0.25
        },
        {
          "name": "A3",
          "midi": 57,
          "time": 74.25,
          "velocity": 0.7874015748031497,
          "duration": 0.25
        },
        {
          "name": "G#3",
          "midi": 56,
          "time": 74.5,
          "velocity": 0.7874015748031497,
          "duration": 0.25
        },
        {
          "name": "F#3",
          "midi": 54,
          "time": 74.75,
          "velocity": 0.7874015748031497,
          "duration": 0.25
        },
        {
          "name": "G#3",
          "midi": 56,
          "time": 75,
          "velocity": 0.7874015748031497,
          "duration": 0.25
        },
        {
          "name": "C#3",
          "midi": 49,
          "time": 75.25,
          "velocity": 0.7874015748031497,
          "duration": 0.25
        },
        {
          "name": "E3",
          "midi": 52,
          "time": 75.5,
          "velocity": 0.7874015748031497,
          "duration": 0.25
        },
        {
          "name": "F#3",
          "midi": 54,
          "time": 78,
          "velocity": 0.7874015748031497,
          "duration": 0.25
        },
        {
          "name": "A3",
          "midi": 57,
          "time": 78.25,
          "velocity": 0.7874015748031497,
          "duration": 0.25
        },
        {
          "name": "G#3",
          "midi": 56,
          "time": 78.5,
          "velocity": 0.7874015748031497,
          "duration": 0.25
        },
        {
          "name": "F#3",
          "midi": 54,
          "time": 78.75,
          "velocity": 0.7874015748031497,
          "duration": 0.25
        },
        {
          "name": "E3",
          "midi": 52,
          "time": 79,
          "velocity": 0.7874015748031497,
          "duration": 0.25
        },
        {
          "name": "D#3",
          "midi": 51,
          "time": 79.25,
          "velocity": 0.7874015748031497,
          "duration": 0.25
        },
        {
          "name": "C#3",
          "midi": 49,
          "time": 79.5,
          "velocity": 0.7874015748031497,
          "duration": 0.25
        },
        {
          "name": "D#3",
          "midi": 51,
          "time": 79.75,
          "velocity": 0.7874015748031497,
          "duration": 0.25
        },
        {
          "name": "C#3",
          "midi": 49,
          "time": 80,
          "velocity": 0.7874015748031497,
          "duration": 0.25
        },
        {
          "name": "E4",
          "midi": 64,
          "time": 80.25,
          "velocity": 0.7874015748031497,
          "duration": 0.25
        },
        {
          "name": "D#4",
          "midi": 63,
          "time": 80.5,
          "velocity": 0.7874015748031497,
          "duration": 0.25
        },
        {
          "name": "C#4",
          "midi": 61,
          "time": 80.75,
          "velocity": 0.7874015748031497,
          "duration": 0.125
        },
        {
          "name": "C#4",
          "midi": 61,
          "time": 80.875,
          "velocity": 0.7874015748031497,
          "duration": 0.125
        },
        {
          "name": "B3",
          "midi": 59,
          "time": 81,
          "velocity": 0.7874015748031497,
          "duration": 0.25
        },
        {
          "name": "E4",
          "midi": 64,
          "time": 81.25,
          "velocity": 0.7874015748031497,
          "duration": 0.25
        },
        {
          "name": "G#3",
          "midi": 56,
          "time": 81.5,
          "velocity": 0.7874015748031497,
          "duration": 0.25
        },
        {
          "name": "B3",
          "midi": 59,
          "time": 81.75,
          "velocity": 0.7874015748031497,
          "duration": 0.125
        },
        {
          "name": "C#4",
          "midi": 61,
          "time": 81.875,
          "velocity": 0.7874015748031497,
          "duration": 0.125
        },
        {
          "name": "B3",
          "midi": 59,
          "time": 82,
          "velocity": 0.7874015748031497,
          "duration": 0.25
        },
        {
          "name": "A3",
          "midi": 57,
          "time": 82.25,
          "velocity": 0.7874015748031497,
          "duration": 0.25
        },
        {
          "name": "G#3",
          "midi": 56,
          "time": 82.5,
          "velocity": 0.7874015748031497,
          "duration": 0.25
        },
        {
          "name": "F#3",
          "midi": 54,
          "time": 82.75,
          "velocity": 0.7874015748031497,
          "duration": 0.25
        },
        {
          "name": "G#3",
          "midi": 56,
          "time": 83,
          "velocity": 0.7874015748031497,
          "duration": 0.25
        },
        {
          "name": "C#3",
          "midi": 49,
          "time": 83.25,
          "velocity": 0.7874015748031497,
          "duration": 0.25
        },
        {
          "name": "E3",
          "midi": 52,
          "time": 83.5,
          "velocity": 0.7874015748031497,
          "duration": 0.25
        },
        {
          "name": "E3",
          "midi": 52,
          "time": 83.75,
          "velocity": 0.7874015748031497,
          "duration": 0.125
        },
        {
          "name": "E3",
          "midi": 52,
          "time": 83.875,
          "velocity": 0.7874015748031497,
          "duration": 0.125
        },
        {
          "name": "G#4",
          "midi": 68,
          "time": 88.25,
          "velocity": 0.7874015748031497,
          "duration": 0.25
        },
        {
          "name": "G#4",
          "midi": 68,
          "time": 88.5,
          "velocity": 0.7874015748031497,
          "duration": 0.125
        },
        {
          "name": "F#4",
          "midi": 66,
          "time": 88.625,
          "velocity": 0.7874015748031497,
          "duration": 0.125
        },
        {
          "name": "E4",
          "midi": 64,
          "time": 88.75,
          "velocity": 0.7874015748031497,
          "duration": 0.125
        },
        {
          "name": "F#4",
          "midi": 66,
          "time": 88.875,
          "velocity": 0.7874015748031497,
          "duration": 0.125
        },
        {
          "name": "E4",
          "midi": 64,
          "time": 89,
          "velocity": 0.7874015748031497,
          "duration": 0.125
        },
        {
          "name": "G#4",
          "midi": 68,
          "time": 89.25,
          "velocity": 0.7874015748031497,
          "duration": 0.25
        },
        {
          "name": "G#4",
          "midi": 68,
          "time": 89.5,
          "velocity": 0.7874015748031497,
          "duration": 0.125
        },
        {
          "name": "F#4",
          "midi": 66,
          "time": 89.625,
          "velocity": 0.7874015748031497,
          "duration": 0.125
        },
        {
          "name": "E4",
          "midi": 64,
          "time": 89.75,
          "velocity": 0.7874015748031497,
          "duration": 0.125
        },
        {
          "name": "F#4",
          "midi": 66,
          "time": 89.875,
          "velocity": 0.7874015748031497,
          "duration": 0.125
        },
        {
          "name": "E4",
          "midi": 64,
          "time": 90,
          "velocity": 0.7874015748031497,
          "duration": 0.125
        },
        {
          "name": "G#4",
          "midi": 68,
          "time": 90.25,
          "velocity": 0.7874015748031497,
          "duration": 0.25
        },
        {
          "name": "G#4",
          "midi": 68,
          "time": 90.5,
          "velocity": 0.7874015748031497,
          "duration": 0.125
        },
        {
          "name": "F#4",
          "midi": 66,
          "time": 90.625,
          "velocity": 0.7874015748031497,
          "duration": 0.125
        },
        {
          "name": "E4",
          "midi": 64,
          "time": 90.75,
          "velocity": 0.7874015748031497,
          "duration": 0.125
        },
        {
          "name": "F#4",
          "midi": 66,
          "time": 90.875,
          "velocity": 0.7874015748031497,
          "duration": 0.125
        },
        {
          "name": "G#4",
          "midi": 68,
          "time": 91,
          "velocity": 0.7874015748031497,
          "duration": 0.125
        },
        {
          "name": "A4",
          "midi": 69,
          "time": 91.125,
          "velocity": 0.7874015748031497,
          "duration": 0.125
        },
        {
          "name": "G#4",
          "midi": 68,
          "time": 91.25,
          "velocity": 0.7874015748031497,
          "duration": 0.125
        },
        {
          "name": "E4",
          "midi": 64,
          "time": 91.375,
          "velocity": 0.7874015748031497,
          "duration": 0.625
        },
        {
          "name": "E4",
          "midi": 64,
          "time": 92.25,
          "velocity": 0.7874015748031497,
          "duration": 0.125
        },
        {
          "name": "E4",
          "midi": 64,
          "time": 92.375,
          "velocity": 0.7874015748031497,
          "duration": 0.125
        },
        {
          "name": "E4",
          "midi": 64,
          "time": 92.5,
          "velocity": 0.7874015748031497,
          "duration": 0.125
        },
        {
          "name": "E4",
          "midi": 64,
          "time": 92.625,
          "velocity": 0.7874015748031497,
          "duration": 0.125
        },
        {
          "name": "C#4",
          "midi": 61,
          "time": 92.75,
          "velocity": 0.7874015748031497,
          "duration": 0.125
        },
        {
          "name": "C#4",
          "midi": 61,
          "time": 92.875,
          "velocity": 0.7874015748031497,
          "duration": 0.125
        },
        {
          "name": "E4",
          "midi": 64,
          "time": 93.25,
          "velocity": 0.7874015748031497,
          "duration": 0.125
        },
        {
          "name": "E4",
          "midi": 64,
          "time": 93.375,
          "velocity": 0.7874015748031497,
          "duration": 0.125
        },
        {
          "name": "E4",
          "midi": 64,
          "time": 93.5,
          "velocity": 0.7874015748031497,
          "duration": 0.125
        },
        {
          "name": "E4",
          "midi": 64,
          "time": 93.625,
          "velocity": 0.7874015748031497,
          "duration": 0.125
        },
        {
          "name": "C#4",
          "midi": 61,
          "time": 93.75,
          "velocity": 0.7874015748031497,
          "duration": 0.125
        },
        {
          "name": "C#4",
          "midi": 61,
          "time": 93.875,
          "velocity": 0.7874015748031497,
          "duration": 0.125
        },
        {
          "name": "E4",
          "midi": 64,
          "time": 94.25,
          "velocity": 0.7874015748031497,
          "duration": 0.125
        },
        {
          "name": "E4",
          "midi": 64,
          "time": 94.375,
          "velocity": 0.7874015748031497,
          "duration": 0.125
        },
        {
          "name": "E4",
          "midi": 64,
          "time": 94.5,
          "velocity": 0.7874015748031497,
          "duration": 0.125
        },
        {
          "name": "C#4",
          "midi": 61,
          "time": 94.625,
          "velocity": 0.7874015748031497,
          "duration": 0.125
        },
        {
          "name": "E4",
          "midi": 64,
          "time": 94.75,
          "velocity": 0.7874015748031497,
          "duration": 0.125
        },
        {
          "name": "F#4",
          "midi": 66,
          "time": 94.875,
          "velocity": 0.7874015748031497,
          "duration": 0.125
        },
        {
          "name": "D#4",
          "midi": 63,
          "time": 95,
          "velocity": 0.7874015748031497,
          "duration": 0.125
        },
        {
          "name": "C#4",
          "midi": 61,
          "time": 95.25,
          "velocity": 0.7874015748031497,
          "duration": 0.125
        },
        {
          "name": "E4",
          "midi": 64,
          "time": 95.5,
          "velocity": 0.7874015748031497,
          "duration": 0.125
        },
        {
          "name": "D#4",
          "midi": 63,
          "time": 95.625,
          "velocity": 0.7874015748031497,
          "duration": 0.375
        },
        {
          "name": "G#4",
          "midi": 68,
          "time": 96.25,
          "velocity": 0.7874015748031497,
          "duration": 0.25
        },
        {
          "name": "G#4",
          "midi": 68,
          "time": 96.5,
          "velocity": 0.7874015748031497,
          "duration": 0.125
        },
        {
          "name": "F#4",
          "midi": 66,
          "time": 96.625,
          "velocity": 0.7874015748031497,
          "duration": 0.125
        },
        {
          "name": "E4",
          "midi": 64,
          "time": 96.75,
          "velocity": 0.7874015748031497,
          "duration": 0.125
        },
        {
          "name": "F#4",
          "midi": 66,
          "time": 96.875,
          "velocity": 0.7874015748031497,
          "duration": 0.125
        },
        {
          "name": "E4",
          "midi": 64,
          "time": 97,
          "velocity": 0.7874015748031497,
          "duration": 0.125
        },
        {
          "name": "G#4",
          "midi": 68,
          "time": 97.25,
          "velocity": 0.7874015748031497,
          "duration": 0.25
        },
        {
          "name": "G#4",
          "midi": 68,
          "time": 97.5,
          "velocity": 0.7874015748031497,
          "duration": 0.125
        },
        {
          "name": "F#4",
          "midi": 66,
          "time": 97.625,
          "velocity": 0.7874015748031497,
          "duration": 0.125
        },
        {
          "name": "E4",
          "midi": 64,
          "time": 97.75,
          "velocity": 0.7874015748031497,
          "duration": 0.125
        },
        {
          "name": "F#4",
          "midi": 66,
          "time": 97.875,
          "velocity": 0.7874015748031497,
          "duration": 0.125
        },
        {
          "name": "E4",
          "midi": 64,
          "time": 98,
          "velocity": 0.7874015748031497,
          "duration": 0.125
        },
        {
          "name": "G#4",
          "midi": 68,
          "time": 98.25,
          "velocity": 0.7874015748031497,
          "duration": 0.25
        },
        {
          "name": "G#4",
          "midi": 68,
          "time": 98.5,
          "velocity": 0.7874015748031497,
          "duration": 0.125
        },
        {
          "name": "F#4",
          "midi": 66,
          "time": 98.625,
          "velocity": 0.7874015748031497,
          "duration": 0.125
        },
        {
          "name": "E4",
          "midi": 64,
          "time": 98.75,
          "velocity": 0.7874015748031497,
          "duration": 0.125
        },
        {
          "name": "F#4",
          "midi": 66,
          "time": 98.875,
          "velocity": 0.7874015748031497,
          "duration": 0.125
        },
        {
          "name": "G#4",
          "midi": 68,
          "time": 99,
          "velocity": 0.7874015748031497,
          "duration": 0.125
        },
        {
          "name": "A4",
          "midi": 69,
          "time": 99.125,
          "velocity": 0.7874015748031497,
          "duration": 0.125
        },
        {
          "name": "G#4",
          "midi": 68,
          "time": 99.25,
          "velocity": 0.7874015748031497,
          "duration": 0.125
        },
        {
          "name": "E4",
          "midi": 64,
          "time": 99.375,
          "velocity": 0.7874015748031497,
          "duration": 0.625
        },
        {
          "name": "E4",
          "midi": 64,
          "time": 100.25,
          "velocity": 0.7874015748031497,
          "duration": 0.125
        },
        {
          "name": "E4",
          "midi": 64,
          "time": 100.375,
          "velocity": 0.7874015748031497,
          "duration": 0.125
        },
        {
          "name": "E4",
          "midi": 64,
          "time": 100.5,
          "velocity": 0.7874015748031497,
          "duration": 0.125
        },
        {
          "name": "E4",
          "midi": 64,
          "time": 100.625,
          "velocity": 0.7874015748031497,
          "duration": 0.125
        },
        {
          "name": "C#4",
          "midi": 61,
          "time": 100.75,
          "velocity": 0.7874015748031497,
          "duration": 0.125
        },
        {
          "name": "C#4",
          "midi": 61,
          "time": 100.875,
          "velocity": 0.7874015748031497,
          "duration": 0.125
        },
        {
          "name": "E4",
          "midi": 64,
          "time": 101.25,
          "velocity": 0.7874015748031497,
          "duration": 0.125
        },
        {
          "name": "E4",
          "midi": 64,
          "time": 101.375,
          "velocity": 0.7874015748031497,
          "duration": 0.125
        },
        {
          "name": "E4",
          "midi": 64,
          "time": 101.5,
          "velocity": 0.7874015748031497,
          "duration": 0.125
        },
        {
          "name": "E4",
          "midi": 64,
          "time": 101.625,
          "velocity": 0.7874015748031497,
          "duration": 0.125
        },
        {
          "name": "C#4",
          "midi": 61,
          "time": 101.75,
          "velocity": 0.7874015748031497,
          "duration": 0.125
        },
        {
          "name": "C#4",
          "midi": 61,
          "time": 101.875,
          "velocity": 0.7874015748031497,
          "duration": 0.125
        },
        {
          "name": "E4",
          "midi": 64,
          "time": 102.25,
          "velocity": 0.7874015748031497,
          "duration": 0.125
        },
        {
          "name": "E4",
          "midi": 64,
          "time": 102.375,
          "velocity": 0.7874015748031497,
          "duration": 0.125
        },
        {
          "name": "E4",
          "midi": 64,
          "time": 102.5,
          "velocity": 0.7874015748031497,
          "duration": 0.125
        },
        {
          "name": "C#4",
          "midi": 61,
          "time": 102.625,
          "velocity": 0.7874015748031497,
          "duration": 0.125
        },
        {
          "name": "E4",
          "midi": 64,
          "time": 102.75,
          "velocity": 0.7874015748031497,
          "duration": 0.125
        },
        {
          "name": "F#4",
          "midi": 66,
          "time": 102.875,
          "velocity": 0.7874015748031497,
          "duration": 0.125
        },
        {
          "name": "D#4",
          "midi": 63,
          "time": 103,
          "velocity": 0.7874015748031497,
          "duration": 0.125
        },
        {
          "name": "C#4",
          "midi": 61,
          "time": 104,
          "velocity": 0.7874015748031497,
          "duration": 0.25
        },
        {
          "name": "G#4",
          "midi": 68,
          "time": 104.25,
          "velocity": 0.7874015748031497,
          "duration": 0.25
        },
        {
          "name": "C#4",
          "midi": 61,
          "time": 104.5,
          "velocity": 0.7874015748031497,
          "duration": 0.25
        },
        {
          "name": "G#4",
          "midi": 68,
          "time": 104.75,
          "velocity": 0.7874015748031497,
          "duration": 0.25
        },
        {
          "name": "B3",
          "midi": 59,
          "time": 105,
          "velocity": 0.7874015748031497,
          "duration": 0.25
        },
        {
          "name": "E4",
          "midi": 64,
          "time": 105.25,
          "velocity": 0.7874015748031497,
          "duration": 0.25
        },
        {
          "name": "B3",
          "midi": 59,
          "time": 105.5,
          "velocity": 0.7874015748031497,
          "duration": 0.25
        },
        {
          "name": "E4",
          "midi": 64,
          "time": 105.75,
          "velocity": 0.7874015748031497,
          "duration": 0.25
        },
        {
          "name": "A3",
          "midi": 57,
          "time": 106,
          "velocity": 0.7874015748031497,
          "duration": 0.25
        },
        {
          "name": "E4",
          "midi": 64,
          "time": 106.25,
          "velocity": 0.7874015748031497,
          "duration": 0.25
        },
        {
          "name": "A3",
          "midi": 57,
          "time": 106.5,
          "velocity": 0.7874015748031497,
          "duration": 0.25
        },
        {
          "name": "E4",
          "midi": 64,
          "time": 106.75,
          "velocity": 0.7874015748031497,
          "duration": 0.25
        },
        {
          "name": "G#3",
          "midi": 56,
          "time": 107,
          "velocity": 0.7874015748031497,
          "duration": 0.25
        },
        {
          "name": "E4",
          "midi": 64,
          "time": 107.25,
          "velocity": 0.7874015748031497,
          "duration": 0.25
        },
        {
          "name": "G#3",
          "midi": 56,
          "time": 107.5,
          "velocity": 0.7874015748031497,
          "duration": 0.25
        },
        {
          "name": "E4",
          "midi": 64,
          "time": 107.75,
          "velocity": 0.7874015748031497,
          "duration": 0.25
        },
        {
          "name": "C#4",
          "midi": 61,
          "time": 108,
          "velocity": 0.7874015748031497,
          "duration": 0.25
        },
        {
          "name": "F#4",
          "midi": 66,
          "time": 108.25,
          "velocity": 0.7874015748031497,
          "duration": 0.25
        },
        {
          "name": "C#4",
          "midi": 61,
          "time": 108.5,
          "velocity": 0.7874015748031497,
          "duration": 0.25
        },
        {
          "name": "F#4",
          "midi": 66,
          "time": 108.75,
          "velocity": 0.7874015748031497,
          "duration": 0.25
        },
        {
          "name": "D#4",
          "midi": 63,
          "time": 109,
          "velocity": 0.7874015748031497,
          "duration": 0.25
        },
        {
          "name": "G4",
          "midi": 67,
          "time": 109.25,
          "velocity": 0.7874015748031497,
          "duration": 0.25
        },
        {
          "name": "D#4",
          "midi": 63,
          "time": 109.5,
          "velocity": 0.7874015748031497,
          "duration": 0.25
        },
        {
          "name": "G4",
          "midi": 67,
          "time": 109.75,
          "velocity": 0.7874015748031497,
          "duration": 0.25
        },
        {
          "name": "D#4",
          "midi": 63,
          "time": 110,
          "velocity": 0.7874015748031497,
          "duration": 0.25
        },
        {
          "name": "G#4",
          "midi": 68,
          "time": 110.25,
          "velocity": 0.7874015748031497,
          "duration": 0.25
        },
        {
          "name": "D#4",
          "midi": 63,
          "time": 110.5,
          "velocity": 0.7874015748031497,
          "duration": 0.25
        },
        {
          "name": "G#4",
          "midi": 68,
          "time": 110.75,
          "velocity": 0.7874015748031497,
          "duration": 0.25
        },
        {
          "name": "C4",
          "midi": 60,
          "time": 111,
          "velocity": 0.7874015748031497,
          "duration": 0.25
        },
        {
          "name": "G#4",
          "midi": 68,
          "time": 111.25,
          "velocity": 0.7874015748031497,
          "duration": 0.25
        },
        {
          "name": "C4",
          "midi": 60,
          "time": 111.5,
          "velocity": 0.7874015748031497,
          "duration": 0.25
        },
        {
          "name": "G#4",
          "midi": 68,
          "time": 111.75,
          "velocity": 0.7874015748031497,
          "duration": 0.25
        },
        {
          "name": "F#4",
          "midi": 66,
          "time": 112,
          "velocity": 0.7874015748031497,
          "duration": 0.5
        },
        {
          "name": "E4",
          "midi": 64,
          "time": 112.5,
          "velocity": 0.7874015748031497,
          "duration": 0.5
        },
        {
          "name": "C#4",
          "midi": 61,
          "time": 113.875,
          "velocity": 0.7874015748031497,
          "duration": 0.125
        },
        {
          "name": "E4",
          "midi": 64,
          "time": 114,
          "velocity": 0.7874015748031497,
          "duration": 0.25
        },
        {
          "name": "E4",
          "midi": 64,
          "time": 114.25,
          "velocity": 0.7874015748031497,
          "duration": 0.125
        },
        {
          "name": "C#4",
          "midi": 61,
          "time": 114.375,
          "velocity": 0.7874015748031497,
          "duration": 0.125
        },
        {
          "name": "E4",
          "midi": 64,
          "time": 114.5,
          "velocity": 0.7874015748031497,
          "duration": 0.125
        },
        {
          "name": "F#4",
          "midi": 66,
          "time": 114.625,
          "velocity": 0.7874015748031497,
          "duration": 0.25
        },
        {
          "name": "G#4",
          "midi": 68,
          "time": 114.875,
          "velocity": 0.7874015748031497,
          "duration": 0.25
        },
        {
          "name": "G#4",
          "midi": 68,
          "time": 115.125,
          "velocity": 0.7874015748031497,
          "duration": 0.25
        },
        {
          "name": "G#4",
          "midi": 68,
          "time": 115.375,
          "velocity": 0.7874015748031497,
          "duration": 0.25
        },
        {
          "name": "G#4",
          "midi": 68,
          "time": 115.625,
          "velocity": 0.7874015748031497,
          "duration": 0.125
        },
        {
          "name": "A4",
          "midi": 69,
          "time": 115.75,
          "velocity": 0.7874015748031497,
          "duration": 0.25
        },
        {
          "name": "F#4",
          "midi": 66,
          "time": 116,
          "velocity": 0.7874015748031497,
          "duration": 0.5
        },
        {
          "name": "E4",
          "midi": 64,
          "time": 116.5,
          "velocity": 0.7874015748031497,
          "duration": 0.5
        },
        {
          "name": "C#4",
          "midi": 61,
          "time": 117.875,
          "velocity": 0.7874015748031497,
          "duration": 0.125
        },
        {
          "name": "E4",
          "midi": 64,
          "time": 118,
          "velocity": 0.7874015748031497,
          "duration": 0.25
        },
        {
          "name": "E4",
          "midi": 64,
          "time": 118.25,
          "velocity": 0.7874015748031497,
          "duration": 0.125
        },
        {
          "name": "C#4",
          "midi": 61,
          "time": 118.375,
          "velocity": 0.7874015748031497,
          "duration": 0.125
        },
        {
          "name": "E4",
          "midi": 64,
          "time": 118.5,
          "velocity": 0.7874015748031497,
          "duration": 0.125
        },
        {
          "name": "F#4",
          "midi": 66,
          "time": 118.625,
          "velocity": 0.7874015748031497,
          "duration": 0.25
        },
        {
          "name": "D#4",
          "midi": 63,
          "time": 118.875,
          "velocity": 0.7874015748031497,
          "duration": 0.25
        },
        {
          "name": "G#4",
          "midi": 68,
          "time": 119.125,
          "velocity": 0.7874015748031497,
          "duration": 0.25
        },
        {
          "name": "G#4",
          "midi": 68,
          "time": 119.375,
          "velocity": 0.7874015748031497,
          "duration": 0.25
        },
        {
          "name": "G#4",
          "midi": 68,
          "time": 119.625,
          "velocity": 0.7874015748031497,
          "duration": 0.125
        },
        {
          "name": "A4",
          "midi": 69,
          "time": 119.75,
          "velocity": 0.7874015748031497,
          "duration": 0.25
        },
        {
          "name": "E4",
          "midi": 64,
          "time": 120,
          "velocity": 0.7874015748031497,
          "duration": 1
        },
        {
          "name": "D#4",
          "midi": 63,
          "time": 121,
          "velocity": 0.7874015748031497,
          "duration": 0.5
        },
        {
          "name": "C#4",
          "midi": 61,
          "time": 121.5,
          "velocity": 0.7874015748031497,
          "duration": 0.5
        },
        {
          "name": "E4",
          "midi": 64,
          "time": 122,
          "velocity": 0.7874015748031497,
          "duration": 1
        },
        {
          "name": "D4",
          "midi": 62,
          "time": 123,
          "velocity": 0.7874015748031497,
          "duration": 0.5
        },
        {
          "name": "C4",
          "midi": 60,
          "time": 123.5,
          "velocity": 0.7874015748031497,
          "duration": 0.5
        },
        {
          "name": "E4",
          "midi": 64,
          "time": 124,
          "velocity": 0.7874015748031497,
          "duration": 1
        },
        {
          "name": "D#4",
          "midi": 63,
          "time": 125,
          "velocity": 0.7874015748031497,
          "duration": 0.5
        },
        {
          "name": "B3",
          "midi": 59,
          "time": 125.5,
          "velocity": 0.7874015748031497,
          "duration": 0.5
        },
        {
          "name": "C#4",
          "midi": 61,
          "time": 126,
          "velocity": 0.7874015748031497,
          "duration": 1
        },
        {
          "name": "F#4",
          "midi": 66,
          "time": 127,
          "velocity": 0.7874015748031497,
          "duration": 1
        },
        {
          "name": "E4",
          "midi": 64,
          "time": 128,
          "velocity": 0.7874015748031497,
          "duration": 1
        },
        {
          "name": "D#4",
          "midi": 63,
          "time": 129,
          "velocity": 0.7874015748031497,
          "duration": 0.5
        },
        {
          "name": "C#4",
          "midi": 61,
          "time": 129.5,
          "velocity": 0.7874015748031497,
          "duration": 0.5
        },
        {
          "name": "E4",
          "midi": 64,
          "time": 130,
          "velocity": 0.7874015748031497,
          "duration": 1
        },
        {
          "name": "D4",
          "midi": 62,
          "time": 131,
          "velocity": 0.7874015748031497,
          "duration": 0.5
        },
        {
          "name": "C4",
          "midi": 60,
          "time": 131.5,
          "velocity": 0.7874015748031497,
          "duration": 0.5
        },
        {
          "name": "E4",
          "midi": 64,
          "time": 132,
          "velocity": 0.7874015748031497,
          "duration": 1
        },
        {
          "name": "D#4",
          "midi": 63,
          "time": 133,
          "velocity": 0.7874015748031497,
          "duration": 0.5
        },
        {
          "name": "B3",
          "midi": 59,
          "time": 133.5,
          "velocity": 0.7874015748031497,
          "duration": 0.5
        },
        {
          "name": "C#4",
          "midi": 61,
          "time": 134,
          "velocity": 0.7874015748031497,
          "duration": 1
        },
        {
          "name": "F#4",
          "midi": 66,
          "time": 135,
          "velocity": 0.7874015748031497,
          "duration": 1
        }
      ],
      "controlChanges": {},
      "id": 0,
      "name": "",
      "channelNumber": 0,
      "isPercussion": false
    }
  ]
}