midi = {
  "header": {
    "PPQ": 96,
    "timeSignature": [
      4,
      4
    ],
    "bpm": 120,
    "name": ""
  },
  "tempo": [],
  "timeSignature": [
    {
      "absoluteTime": 0,
      "seconds": 0,
      "numerator": 4,
      "denominator": 2,
      "click": 36,
      "notesQ": 8
    },
    {
      "absoluteTime": 0,
      "seconds": 0,
      "numerator": 4,
      "denominator": 2,
      "click": 36,
      "notesQ": 8
    }
  ],
  "startTime": 8.125,
  "duration": 127.5,
  "tracks": [
    {
      "startTime": 8.125,
      "duration": 127.5,
      "length": 361,
      "notes": [
        {
          "name": "F4",
          "midi": 65,
          "time": 8.125,
          "velocity": 0.7874015748031497,
          "duration": 0.125
        },
        {
          "name": "F4",
          "midi": 65,
          "time": 8.25,
          "velocity": 0.7874015748031497,
          "duration": 0.125
        },
        {
          "name": "F4",
          "midi": 65,
          "time": 8.375,
          "velocity": 0.7874015748031497,
          "duration": 0.125
        },
        {
          "name": "F4",
          "midi": 65,
          "time": 8.5,
          "velocity": 0.7874015748031497,
          "duration": 0.125
        },
        {
          "name": "F4",
          "midi": 65,
          "time": 8.625,
          "velocity": 0.7874015748031497,
          "duration": 0.125
        },
        {
          "name": "F4",
          "midi": 65,
          "time": 8.75,
          "velocity": 0.7874015748031497,
          "duration": 0.125
        },
        {
          "name": "D#4",
          "midi": 63,
          "time": 8.875,
          "velocity": 0.7874015748031497,
          "duration": 0.25
        },
        {
          "name": "G#3",
          "midi": 56,
          "time": 9.25,
          "velocity": 0.7874015748031497,
          "duration": 0.25
        },
        {
          "name": "G#3",
          "midi": 56,
          "time": 9.75,
          "velocity": 0.7874015748031497,
          "duration": 0.125
        },
        {
          "name": "C#4",
          "midi": 61,
          "time": 9.875,
          "velocity": 0.7874015748031497,
          "duration": 0.25
        },
        {
          "name": "C#4",
          "midi": 61,
          "time": 10.125,
          "velocity": 0.7874015748031497,
          "duration": 0.125
        },
        {
          "name": "D#4",
          "midi": 63,
          "time": 10.25,
          "velocity": 0.7874015748031497,
          "duration": 0.25
        },
        {
          "name": "F4",
          "midi": 65,
          "time": 10.5,
          "velocity": 0.7874015748031497,
          "duration": 0.25
        },
        {
          "name": "C#4",
          "midi": 61,
          "time": 10.75,
          "velocity": 0.7874015748031497,
          "duration": 0.125
        },
        {
          "name": "D#4",
          "midi": 63,
          "time": 10.875,
          "velocity": 0.7874015748031497,
          "duration": 0.25
        },
        {
          "name": "A#3",
          "midi": 58,
          "time": 11.125,
          "velocity": 0.7874015748031497,
          "duration": 0.25
        },
        {
          "name": "C#4",
          "midi": 61,
          "time": 11.75,
          "velocity": 0.7874015748031497,
          "duration": 0.125
        },
        {
          "name": "F4",
          "midi": 65,
          "time": 11.875,
          "velocity": 0.7874015748031497,
          "duration": 0.375
        },
        {
          "name": "F#4",
          "midi": 66,
          "time": 12.25,
          "velocity": 0.7874015748031497,
          "duration": 0.25
        },
        {
          "name": "F4",
          "midi": 65,
          "time": 12.5,
          "velocity": 0.7874015748031497,
          "duration": 0.25
        },
        {
          "name": "C#4",
          "midi": 61,
          "time": 12.75,
          "velocity": 0.7874015748031497,
          "duration": 0.125
        },
        {
          "name": "D#4",
          "midi": 63,
          "time": 12.875,
          "velocity": 0.7874015748031497,
          "duration": 0.375
        },
        {
          "name": "F4",
          "midi": 65,
          "time": 13.25,
          "velocity": 0.7874015748031497,
          "duration": 0.25
        },
        {
          "name": "F#4",
          "midi": 66,
          "time": 13.5,
          "velocity": 0.7874015748031497,
          "duration": 0.25
        },
        {
          "name": "F4",
          "midi": 65,
          "time": 13.75,
          "velocity": 0.7874015748031497,
          "duration": 0.125
        },
        {
          "name": "D#4",
          "midi": 63,
          "time": 13.875,
          "velocity": 0.7874015748031497,
          "duration": 0.25
        },
        {
          "name": "C#4",
          "midi": 61,
          "time": 14.25,
          "velocity": 0.7874015748031497,
          "duration": 0.25
        },
        {
          "name": "F4",
          "midi": 65,
          "time": 24.125,
          "velocity": 0.7874015748031497,
          "duration": 0.125
        },
        {
          "name": "F4",
          "midi": 65,
          "time": 24.25,
          "velocity": 0.7874015748031497,
          "duration": 0.125
        },
        {
          "name": "F4",
          "midi": 65,
          "time": 24.375,
          "velocity": 0.7874015748031497,
          "duration": 0.125
        },
        {
          "name": "F4",
          "midi": 65,
          "time": 24.5,
          "velocity": 0.7874015748031497,
          "duration": 0.125
        },
        {
          "name": "F4",
          "midi": 65,
          "time": 24.625,
          "velocity": 0.7874015748031497,
          "duration": 0.125
        },
        {
          "name": "F4",
          "midi": 65,
          "time": 24.75,
          "velocity": 0.7874015748031497,
          "duration": 0.125
        },
        {
          "name": "D#4",
          "midi": 63,
          "time": 24.875,
          "velocity": 0.7874015748031497,
          "duration": 0.25
        },
        {
          "name": "G#3",
          "midi": 56,
          "time": 25.25,
          "velocity": 0.7874015748031497,
          "duration": 0.25
        },
        {
          "name": "G#3",
          "midi": 56,
          "time": 25.75,
          "velocity": 0.7874015748031497,
          "duration": 0.125
        },
        {
          "name": "C#4",
          "midi": 61,
          "time": 25.875,
          "velocity": 0.7874015748031497,
          "duration": 0.25
        },
        {
          "name": "C#4",
          "midi": 61,
          "time": 26.125,
          "velocity": 0.7874015748031497,
          "duration": 0.125
        },
        {
          "name": "D#4",
          "midi": 63,
          "time": 26.25,
          "velocity": 0.7874015748031497,
          "duration": 0.25
        },
        {
          "name": "F4",
          "midi": 65,
          "time": 26.5,
          "velocity": 0.7874015748031497,
          "duration": 0.25
        },
        {
          "name": "C#4",
          "midi": 61,
          "time": 26.75,
          "velocity": 0.7874015748031497,
          "duration": 0.125
        },
        {
          "name": "D#4",
          "midi": 63,
          "time": 26.875,
          "velocity": 0.7874015748031497,
          "duration": 0.25
        },
        {
          "name": "A#3",
          "midi": 58,
          "time": 27.125,
          "velocity": 0.7874015748031497,
          "duration": 0.25
        },
        {
          "name": "C#4",
          "midi": 61,
          "time": 27.75,
          "velocity": 0.7874015748031497,
          "duration": 0.125
        },
        {
          "name": "F4",
          "midi": 65,
          "time": 27.875,
          "velocity": 0.7874015748031497,
          "duration": 0.375
        },
        {
          "name": "F#4",
          "midi": 66,
          "time": 28.25,
          "velocity": 0.7874015748031497,
          "duration": 0.25
        },
        {
          "name": "F4",
          "midi": 65,
          "time": 28.5,
          "velocity": 0.7874015748031497,
          "duration": 0.25
        },
        {
          "name": "C#4",
          "midi": 61,
          "time": 28.75,
          "velocity": 0.7874015748031497,
          "duration": 0.125
        },
        {
          "name": "D#4",
          "midi": 63,
          "time": 28.875,
          "velocity": 0.7874015748031497,
          "duration": 0.375
        },
        {
          "name": "F4",
          "midi": 65,
          "time": 29.25,
          "velocity": 0.7874015748031497,
          "duration": 0.25
        },
        {
          "name": "F#4",
          "midi": 66,
          "time": 29.5,
          "velocity": 0.7874015748031497,
          "duration": 0.25
        },
        {
          "name": "F4",
          "midi": 65,
          "time": 29.75,
          "velocity": 0.7874015748031497,
          "duration": 0.125
        },
        {
          "name": "D#4",
          "midi": 63,
          "time": 29.875,
          "velocity": 0.7874015748031497,
          "duration": 0.25
        },
        {
          "name": "C#4",
          "midi": 61,
          "time": 30.25,
          "velocity": 0.7874015748031497,
          "duration": 0.25
        },
        {
          "name": "C#4",
          "midi": 61,
          "time": 31.75,
          "velocity": 0.7874015748031497,
          "duration": 0.125
        },
        {
          "name": "G#4",
          "midi": 68,
          "time": 31.875,
          "velocity": 0.7874015748031497,
          "duration": 0.375
        },
        {
          "name": "F4",
          "midi": 65,
          "time": 32.25,
          "velocity": 0.7874015748031497,
          "duration": 0.25
        },
        {
          "name": "D#4",
          "midi": 63,
          "time": 32.5,
          "velocity": 0.7874015748031497,
          "duration": 0.25
        },
        {
          "name": "C#4",
          "midi": 61,
          "time": 32.75,
          "velocity": 0.7874015748031497,
          "duration": 0.125
        },
        {
          "name": "G#4",
          "midi": 68,
          "time": 32.875,
          "velocity": 0.7874015748031497,
          "duration": 0.375
        },
        {
          "name": "F4",
          "midi": 65,
          "time": 33.25,
          "velocity": 0.7874015748031497,
          "duration": 0.25
        },
        {
          "name": "D#4",
          "midi": 63,
          "time": 33.5,
          "velocity": 0.7874015748031497,
          "duration": 0.25
        },
        {
          "name": "C#4",
          "midi": 61,
          "time": 33.75,
          "velocity": 0.7874015748031497,
          "duration": 0.125
        },
        {
          "name": "A#4",
          "midi": 70,
          "time": 33.875,
          "velocity": 0.7874015748031497,
          "duration": 0.375
        },
        {
          "name": "G#4",
          "midi": 68,
          "time": 34.25,
          "velocity": 0.7874015748031497,
          "duration": 0.25
        },
        {
          "name": "F#4",
          "midi": 66,
          "time": 34.5,
          "velocity": 0.7874015748031497,
          "duration": 0.25
        },
        {
          "name": "F4",
          "midi": 65,
          "time": 34.75,
          "velocity": 0.7874015748031497,
          "duration": 0.125
        },
        {
          "name": "F#4",
          "midi": 66,
          "time": 34.875,
          "velocity": 0.7874015748031497,
          "duration": 0.375
        },
        {
          "name": "D#4",
          "midi": 63,
          "time": 35.25,
          "velocity": 0.7874015748031497,
          "duration": 0.25
        },
        {
          "name": "A#3",
          "midi": 58,
          "time": 39.75,
          "velocity": 0.7874015748031497,
          "duration": 0.25
        },
        {
          "name": "C#4",
          "midi": 61,
          "time": 40,
          "velocity": 0.7874015748031497,
          "duration": 0.5
        },
        {
          "name": "D#4",
          "midi": 63,
          "time": 40.5,
          "velocity": 0.7874015748031497,
          "duration": 0.25
        },
        {
          "name": "C4",
          "midi": 60,
          "time": 40.75,
          "velocity": 0.7874015748031497,
          "duration": 0.5
        },
        {
          "name": "A#3",
          "midi": 58,
          "time": 41.75,
          "velocity": 0.7874015748031497,
          "duration": 0.25
        },
        {
          "name": "C#4",
          "midi": 61,
          "time": 42,
          "velocity": 0.7874015748031497,
          "duration": 0.25
        },
        {
          "name": "A#3",
          "midi": 58,
          "time": 42.25,
          "velocity": 0.7874015748031497,
          "duration": 0.25
        },
        {
          "name": "B3",
          "midi": 59,
          "time": 42.5,
          "velocity": 0.7874015748031497,
          "duration": 0.125
        },
        {
          "name": "A#3",
          "midi": 58,
          "time": 42.625,
          "velocity": 0.7874015748031497,
          "duration": 0.25
        },
        {
          "name": "D4",
          "midi": 62,
          "time": 42.875,
          "velocity": 0.7874015748031497,
          "duration": 0.375
        },
        {
          "name": "B3",
          "midi": 59,
          "time": 43.25,
          "velocity": 0.7874015748031497,
          "duration": 0.25
        },
        {
          "name": "B3",
          "midi": 59,
          "time": 43.5,
          "velocity": 0.7874015748031497,
          "duration": 0.25
        },
        {
          "name": "A#3",
          "midi": 58,
          "time": 43.75,
          "velocity": 0.7874015748031497,
          "duration": 0.125
        },
        {
          "name": "G#3",
          "midi": 56,
          "time": 43.875,
          "velocity": 0.7874015748031497,
          "duration": 0.375
        },
        {
          "name": "F#3",
          "midi": 54,
          "time": 44.25,
          "velocity": 0.7874015748031497,
          "duration": 0.375
        },
        {
          "name": "F#3",
          "midi": 54,
          "time": 44.625,
          "velocity": 0.7874015748031497,
          "duration": 0.125
        },
        {
          "name": "F#3",
          "midi": 54,
          "time": 44.75,
          "velocity": 0.7874015748031497,
          "duration": 0.125
        },
        {
          "name": "F3",
          "midi": 53,
          "time": 44.875,
          "velocity": 0.7874015748031497,
          "duration": 0.375
        },
        {
          "name": "F#3",
          "midi": 54,
          "time": 45.25,
          "velocity": 0.7874015748031497,
          "duration": 0.25
        },
        {
          "name": "F3",
          "midi": 53,
          "time": 45.5,
          "velocity": 0.7874015748031497,
          "duration": 0.25
        },
        {
          "name": "D#3",
          "midi": 51,
          "time": 45.75,
          "velocity": 0.7874015748031497,
          "duration": 0.125
        },
        {
          "name": "D#3",
          "midi": 51,
          "time": 45.875,
          "velocity": 0.7874015748031497,
          "duration": 0.375
        },
        {
          "name": "C#3",
          "midi": 49,
          "time": 46.25,
          "velocity": 0.7874015748031497,
          "duration": 0.75
        },
        {
          "name": "A#3",
          "midi": 58,
          "time": 48,
          "velocity": 0.7874015748031497,
          "duration": 0.25
        },
        {
          "name": "A#2",
          "midi": 46,
          "time": 48.25,
          "velocity": 0.7874015748031497,
          "duration": 0.25
        },
        {
          "name": "A#3",
          "midi": 58,
          "time": 48.5,
          "velocity": 0.7874015748031497,
          "duration": 0.25
        },
        {
          "name": "A#2",
          "midi": 46,
          "time": 48.75,
          "velocity": 0.7874015748031497,
          "duration": 0.25
        },
        {
          "name": "C4",
          "midi": 60,
          "time": 49,
          "velocity": 0.7874015748031497,
          "duration": 0.25
        },
        {
          "name": "C3",
          "midi": 48,
          "time": 49.25,
          "velocity": 0.7874015748031497,
          "duration": 0.25
        },
        {
          "name": "C4",
          "midi": 60,
          "time": 49.5,
          "velocity": 0.7874015748031497,
          "duration": 0.25
        },
        {
          "name": "C3",
          "midi": 48,
          "time": 49.75,
          "velocity": 0.7874015748031497,
          "duration": 0.25
        },
        {
          "name": "C#4",
          "midi": 61,
          "time": 50,
          "velocity": 0.7874015748031497,
          "duration": 0.25
        },
        {
          "name": "C#3",
          "midi": 49,
          "time": 50.25,
          "velocity": 0.7874015748031497,
          "duration": 0.25
        },
        {
          "name": "C#4",
          "midi": 61,
          "time": 50.5,
          "velocity": 0.7874015748031497,
          "duration": 0.25
        },
        {
          "name": "C#3",
          "midi": 49,
          "time": 50.75,
          "velocity": 0.7874015748031497,
          "duration": 0.25
        },
        {
          "name": "D4",
          "midi": 62,
          "time": 51,
          "velocity": 0.7874015748031497,
          "duration": 0.25
        },
        {
          "name": "D3",
          "midi": 50,
          "time": 51.25,
          "velocity": 0.7874015748031497,
          "duration": 0.25
        },
        {
          "name": "D4",
          "midi": 62,
          "time": 51.5,
          "velocity": 0.7874015748031497,
          "duration": 0.25
        },
        {
          "name": "D3",
          "midi": 50,
          "time": 51.75,
          "velocity": 0.7874015748031497,
          "duration": 0.25
        },
        {
          "name": "D#4",
          "midi": 63,
          "time": 52,
          "velocity": 0.7874015748031497,
          "duration": 0.25
        },
        {
          "name": "D#3",
          "midi": 51,
          "time": 52.25,
          "velocity": 0.7874015748031497,
          "duration": 0.25
        },
        {
          "name": "D#4",
          "midi": 63,
          "time": 52.5,
          "velocity": 0.7874015748031497,
          "duration": 0.25
        },
        {
          "name": "D#3",
          "midi": 51,
          "time": 52.75,
          "velocity": 0.7874015748031497,
          "duration": 0.25
        },
        {
          "name": "F#4",
          "midi": 66,
          "time": 53,
          "velocity": 0.7874015748031497,
          "duration": 0.25
        },
        {
          "name": "F#3",
          "midi": 54,
          "time": 53.25,
          "velocity": 0.7874015748031497,
          "duration": 0.25
        },
        {
          "name": "F4",
          "midi": 65,
          "time": 53.5,
          "velocity": 0.7874015748031497,
          "duration": 0.25
        },
        {
          "name": "F3",
          "midi": 53,
          "time": 53.75,
          "velocity": 0.7874015748031497,
          "duration": 0.25
        },
        {
          "name": "A#3",
          "midi": 58,
          "time": 54,
          "velocity": 0.7874015748031497,
          "duration": 0.25
        },
        {
          "name": "A#2",
          "midi": 46,
          "time": 54.25,
          "velocity": 0.7874015748031497,
          "duration": 0.25
        },
        {
          "name": "A#3",
          "midi": 58,
          "time": 54.5,
          "velocity": 0.7874015748031497,
          "duration": 0.25
        },
        {
          "name": "A#2",
          "midi": 46,
          "time": 54.75,
          "velocity": 0.7874015748031497,
          "duration": 0.25
        },
        {
          "name": "C4",
          "midi": 60,
          "time": 55,
          "velocity": 0.7874015748031497,
          "duration": 0.25
        },
        {
          "name": "C3",
          "midi": 48,
          "time": 55.25,
          "velocity": 0.7874015748031497,
          "duration": 0.25
        },
        {
          "name": "A#3",
          "midi": 58,
          "time": 56,
          "velocity": 0.7874015748031497,
          "duration": 0.125
        },
        {
          "name": "C#4",
          "midi": 61,
          "time": 56.15625,
          "velocity": 0.7874015748031497,
          "duration": 0.125
        },
        {
          "name": "F4",
          "midi": 65,
          "time": 56.25,
          "velocity": 0.7874015748031497,
          "duration": 0.125
        },
        {
          "name": "A#3",
          "midi": 58,
          "time": 56.40625,
          "velocity": 0.7874015748031497,
          "duration": 0.125
        },
        {
          "name": "C#4",
          "midi": 61,
          "time": 56.5,
          "velocity": 0.7874015748031497,
          "duration": 0.125
        },
        {
          "name": "F4",
          "midi": 65,
          "time": 56.65625,
          "velocity": 0.7874015748031497,
          "duration": 0.125
        },
        {
          "name": "A#3",
          "midi": 58,
          "time": 56.75,
          "velocity": 0.7874015748031497,
          "duration": 0.125
        },
        {
          "name": "A3",
          "midi": 57,
          "time": 56.90625,
          "velocity": 0.7874015748031497,
          "duration": 0.125
        },
        {
          "name": "G#3",
          "midi": 56,
          "time": 57,
          "velocity": 0.7874015748031497,
          "duration": 0.125
        },
        {
          "name": "C4",
          "midi": 60,
          "time": 57.15625,
          "velocity": 0.7874015748031497,
          "duration": 0.125
        },
        {
          "name": "F#4",
          "midi": 66,
          "time": 57.25,
          "velocity": 0.7874015748031497,
          "duration": 0.125
        },
        {
          "name": "G#3",
          "midi": 56,
          "time": 57.40625,
          "velocity": 0.7874015748031497,
          "duration": 0.125
        },
        {
          "name": "C4",
          "midi": 60,
          "time": 57.5,
          "velocity": 0.7874015748031497,
          "duration": 0.125
        },
        {
          "name": "F#4",
          "midi": 66,
          "time": 57.65625,
          "velocity": 0.7874015748031497,
          "duration": 0.125
        },
        {
          "name": "D#4",
          "midi": 63,
          "time": 57.75,
          "velocity": 0.7874015748031497,
          "duration": 0.125
        },
        {
          "name": "C4",
          "midi": 60,
          "time": 57.90625,
          "velocity": 0.7874015748031497,
          "duration": 0.125
        },
        {
          "name": "C#4",
          "midi": 61,
          "time": 58,
          "velocity": 0.7874015748031497,
          "duration": 0.125
        },
        {
          "name": "F4",
          "midi": 65,
          "time": 58.15625,
          "velocity": 0.7874015748031497,
          "duration": 0.125
        },
        {
          "name": "G#4",
          "midi": 68,
          "time": 58.25,
          "velocity": 0.7874015748031497,
          "duration": 0.125
        },
        {
          "name": "C#4",
          "midi": 61,
          "time": 58.40625,
          "velocity": 0.7874015748031497,
          "duration": 0.125
        },
        {
          "name": "F4",
          "midi": 65,
          "time": 58.5,
          "velocity": 0.7874015748031497,
          "duration": 0.125
        },
        {
          "name": "G#4",
          "midi": 68,
          "time": 58.65625,
          "velocity": 0.7874015748031497,
          "duration": 0.125
        },
        {
          "name": "D#4",
          "midi": 63,
          "time": 58.75,
          "velocity": 0.7874015748031497,
          "duration": 0.125
        },
        {
          "name": "C#4",
          "midi": 61,
          "time": 58.90625,
          "velocity": 0.7874015748031497,
          "duration": 0.125
        },
        {
          "name": "C4",
          "midi": 60,
          "time": 59,
          "velocity": 0.7874015748031497,
          "duration": 0.125
        },
        {
          "name": "D#4",
          "midi": 63,
          "time": 59.15625,
          "velocity": 0.7874015748031497,
          "duration": 0.125
        },
        {
          "name": "G#4",
          "midi": 68,
          "time": 59.25,
          "velocity": 0.7874015748031497,
          "duration": 0.125
        },
        {
          "name": "C4",
          "midi": 60,
          "time": 59.40625,
          "velocity": 0.7874015748031497,
          "duration": 0.125
        },
        {
          "name": "A#4",
          "midi": 70,
          "time": 59.5,
          "velocity": 0.7874015748031497,
          "duration": 0.25
        },
        {
          "name": "G#4",
          "midi": 68,
          "time": 59.75,
          "velocity": 0.7874015748031497,
          "duration": 0.25
        },
        {
          "name": "A#3",
          "midi": 58,
          "time": 60,
          "velocity": 0.7874015748031497,
          "duration": 0.5
        },
        {
          "name": "F4",
          "midi": 65,
          "time": 60.5,
          "velocity": 0.7874015748031497,
          "duration": 0.25
        },
        {
          "name": "A#3",
          "midi": 58,
          "time": 60.75,
          "velocity": 0.7874015748031497,
          "duration": 0.25
        },
        {
          "name": "G#3",
          "midi": 56,
          "time": 61,
          "velocity": 0.7874015748031497,
          "duration": 0.5
        },
        {
          "name": "F#4",
          "midi": 66,
          "time": 61.5,
          "velocity": 0.7874015748031497,
          "duration": 0.25
        },
        {
          "name": "G#3",
          "midi": 56,
          "time": 61.75,
          "velocity": 0.7874015748031497,
          "duration": 0.25
        },
        {
          "name": "C#4",
          "midi": 61,
          "time": 62,
          "velocity": 0.7874015748031497,
          "duration": 0.5
        },
        {
          "name": "G#4",
          "midi": 68,
          "time": 62.5,
          "velocity": 0.7874015748031497,
          "duration": 0.25
        },
        {
          "name": "C#4",
          "midi": 61,
          "time": 62.75,
          "velocity": 0.7874015748031497,
          "duration": 0.25
        },
        {
          "name": "C4",
          "midi": 60,
          "time": 63,
          "velocity": 0.7874015748031497,
          "duration": 0.5
        },
        {
          "name": "A#4",
          "midi": 70,
          "time": 63.5,
          "velocity": 0.7874015748031497,
          "duration": 0.25
        },
        {
          "name": "G#4",
          "midi": 68,
          "time": 63.75,
          "velocity": 0.7874015748031497,
          "duration": 0.25
        },
        {
          "name": "A#3",
          "midi": 58,
          "time": 64,
          "velocity": 0.7874015748031497,
          "duration": 0.125
        },
        {
          "name": "C#4",
          "midi": 61,
          "time": 64.15625,
          "velocity": 0.7874015748031497,
          "duration": 0.125
        },
        {
          "name": "F4",
          "midi": 65,
          "time": 64.25,
          "velocity": 0.7874015748031497,
          "duration": 0.125
        },
        {
          "name": "C#4",
          "midi": 61,
          "time": 64.40625,
          "velocity": 0.7874015748031497,
          "duration": 0.125
        },
        {
          "name": "A#3",
          "midi": 58,
          "time": 64.5,
          "velocity": 0.7874015748031497,
          "duration": 0.125
        },
        {
          "name": "C#4",
          "midi": 61,
          "time": 64.65625,
          "velocity": 0.7874015748031497,
          "duration": 0.125
        },
        {
          "name": "F4",
          "midi": 65,
          "time": 64.75,
          "velocity": 0.7874015748031497,
          "duration": 0.125
        },
        {
          "name": "C#4",
          "midi": 61,
          "time": 64.90625,
          "velocity": 0.7874015748031497,
          "duration": 0.125
        },
        {
          "name": "G#3",
          "midi": 56,
          "time": 65,
          "velocity": 0.7874015748031497,
          "duration": 0.125
        },
        {
          "name": "C4",
          "midi": 60,
          "time": 65.15625,
          "velocity": 0.7874015748031497,
          "duration": 0.125
        },
        {
          "name": "F#4",
          "midi": 66,
          "time": 65.25,
          "velocity": 0.7874015748031497,
          "duration": 0.125
        },
        {
          "name": "C4",
          "midi": 60,
          "time": 65.40625,
          "velocity": 0.7874015748031497,
          "duration": 0.125
        },
        {
          "name": "G#3",
          "midi": 56,
          "time": 65.5,
          "velocity": 0.7874015748031497,
          "duration": 0.125
        },
        {
          "name": "C4",
          "midi": 60,
          "time": 65.65625,
          "velocity": 0.7874015748031497,
          "duration": 0.125
        },
        {
          "name": "F#4",
          "midi": 66,
          "time": 65.75,
          "velocity": 0.7874015748031497,
          "duration": 0.125
        },
        {
          "name": "C4",
          "midi": 60,
          "time": 65.90625,
          "velocity": 0.7874015748031497,
          "duration": 0.125
        },
        {
          "name": "C#4",
          "midi": 61,
          "time": 66,
          "velocity": 0.7874015748031497,
          "duration": 0.125
        },
        {
          "name": "F4",
          "midi": 65,
          "time": 66.15625,
          "velocity": 0.7874015748031497,
          "duration": 0.125
        },
        {
          "name": "G#4",
          "midi": 68,
          "time": 66.25,
          "velocity": 0.7874015748031497,
          "duration": 0.125
        },
        {
          "name": "F4",
          "midi": 65,
          "time": 66.40625,
          "velocity": 0.7874015748031497,
          "duration": 0.125
        },
        {
          "name": "C#4",
          "midi": 61,
          "time": 66.5,
          "velocity": 0.7874015748031497,
          "duration": 0.125
        },
        {
          "name": "F4",
          "midi": 65,
          "time": 66.65625,
          "velocity": 0.7874015748031497,
          "duration": 0.125
        },
        {
          "name": "G#4",
          "midi": 68,
          "time": 66.75,
          "velocity": 0.7874015748031497,
          "duration": 0.125
        },
        {
          "name": "F4",
          "midi": 65,
          "time": 66.90625,
          "velocity": 0.7874015748031497,
          "duration": 0.125
        },
        {
          "name": "C4",
          "midi": 60,
          "time": 67,
          "velocity": 0.7874015748031497,
          "duration": 0.125
        },
        {
          "name": "D#4",
          "midi": 63,
          "time": 67.15625,
          "velocity": 0.7874015748031497,
          "duration": 0.125
        },
        {
          "name": "G#4",
          "midi": 68,
          "time": 67.25,
          "velocity": 0.7874015748031497,
          "duration": 0.125
        },
        {
          "name": "D#4",
          "midi": 63,
          "time": 67.40625,
          "velocity": 0.7874015748031497,
          "duration": 0.125
        },
        {
          "name": "A#3",
          "midi": 58,
          "time": 68,
          "velocity": 0.7874015748031497,
          "duration": 0.125
        },
        {
          "name": "C#4",
          "midi": 61,
          "time": 68.15625,
          "velocity": 0.7874015748031497,
          "duration": 0.125
        },
        {
          "name": "F4",
          "midi": 65,
          "time": 68.25,
          "velocity": 0.7874015748031497,
          "duration": 0.125
        },
        {
          "name": "A#3",
          "midi": 58,
          "time": 68.40625,
          "velocity": 0.7874015748031497,
          "duration": 0.125
        },
        {
          "name": "C#4",
          "midi": 61,
          "time": 68.5,
          "velocity": 0.7874015748031497,
          "duration": 0.125
        },
        {
          "name": "F4",
          "midi": 65,
          "time": 68.65625,
          "velocity": 0.7874015748031497,
          "duration": 0.125
        },
        {
          "name": "A#3",
          "midi": 58,
          "time": 68.75,
          "velocity": 0.7874015748031497,
          "duration": 0.125
        },
        {
          "name": "A3",
          "midi": 57,
          "time": 68.90625,
          "velocity": 0.7874015748031497,
          "duration": 0.125
        },
        {
          "name": "G#3",
          "midi": 56,
          "time": 69,
          "velocity": 0.7874015748031497,
          "duration": 0.125
        },
        {
          "name": "C4",
          "midi": 60,
          "time": 69.15625,
          "velocity": 0.7874015748031497,
          "duration": 0.125
        },
        {
          "name": "F#4",
          "midi": 66,
          "time": 69.25,
          "velocity": 0.7874015748031497,
          "duration": 0.125
        },
        {
          "name": "G#3",
          "midi": 56,
          "time": 69.40625,
          "velocity": 0.7874015748031497,
          "duration": 0.125
        },
        {
          "name": "C4",
          "midi": 60,
          "time": 69.5,
          "velocity": 0.7874015748031497,
          "duration": 0.125
        },
        {
          "name": "F#4",
          "midi": 66,
          "time": 69.65625,
          "velocity": 0.7874015748031497,
          "duration": 0.125
        },
        {
          "name": "D#4",
          "midi": 63,
          "time": 69.75,
          "velocity": 0.7874015748031497,
          "duration": 0.125
        },
        {
          "name": "C4",
          "midi": 60,
          "time": 69.90625,
          "velocity": 0.7874015748031497,
          "duration": 0.125
        },
        {
          "name": "C#4",
          "midi": 61,
          "time": 70,
          "velocity": 0.7874015748031497,
          "duration": 0.125
        },
        {
          "name": "F4",
          "midi": 65,
          "time": 70.15625,
          "velocity": 0.7874015748031497,
          "duration": 0.125
        },
        {
          "name": "G#4",
          "midi": 68,
          "time": 70.25,
          "velocity": 0.7874015748031497,
          "duration": 0.125
        },
        {
          "name": "C#4",
          "midi": 61,
          "time": 70.40625,
          "velocity": 0.7874015748031497,
          "duration": 0.125
        },
        {
          "name": "F4",
          "midi": 65,
          "time": 70.5,
          "velocity": 0.7874015748031497,
          "duration": 0.125
        },
        {
          "name": "G#4",
          "midi": 68,
          "time": 70.65625,
          "velocity": 0.7874015748031497,
          "duration": 0.125
        },
        {
          "name": "D#4",
          "midi": 63,
          "time": 70.75,
          "velocity": 0.7874015748031497,
          "duration": 0.125
        },
        {
          "name": "C#4",
          "midi": 61,
          "time": 70.90625,
          "velocity": 0.7874015748031497,
          "duration": 0.125
        },
        {
          "name": "C4",
          "midi": 60,
          "time": 71,
          "velocity": 0.7874015748031497,
          "duration": 0.125
        },
        {
          "name": "D#4",
          "midi": 63,
          "time": 71.15625,
          "velocity": 0.7874015748031497,
          "duration": 0.125
        },
        {
          "name": "G#4",
          "midi": 68,
          "time": 71.25,
          "velocity": 0.7874015748031497,
          "duration": 0.125
        },
        {
          "name": "C4",
          "midi": 60,
          "time": 71.40625,
          "velocity": 0.7874015748031497,
          "duration": 0.125
        },
        {
          "name": "A#4",
          "midi": 70,
          "time": 71.5,
          "velocity": 0.7874015748031497,
          "duration": 0.25
        },
        {
          "name": "G#4",
          "midi": 68,
          "time": 71.75,
          "velocity": 0.7874015748031497,
          "duration": 0.25
        },
        {
          "name": "F4",
          "midi": 65,
          "time": 72.125,
          "velocity": 0.7874015748031497,
          "duration": 0.125
        },
        {
          "name": "F4",
          "midi": 65,
          "time": 72.25,
          "velocity": 0.7874015748031497,
          "duration": 0.125
        },
        {
          "name": "F4",
          "midi": 65,
          "time": 72.375,
          "velocity": 0.7874015748031497,
          "duration": 0.125
        },
        {
          "name": "F4",
          "midi": 65,
          "time": 72.5,
          "velocity": 0.7874015748031497,
          "duration": 0.125
        },
        {
          "name": "F4",
          "midi": 65,
          "time": 72.625,
          "velocity": 0.7874015748031497,
          "duration": 0.125
        },
        {
          "name": "F4",
          "midi": 65,
          "time": 72.75,
          "velocity": 0.7874015748031497,
          "duration": 0.125
        },
        {
          "name": "D#4",
          "midi": 63,
          "time": 72.875,
          "velocity": 0.7874015748031497,
          "duration": 0.25
        },
        {
          "name": "G#3",
          "midi": 56,
          "time": 73.25,
          "velocity": 0.7874015748031497,
          "duration": 0.25
        },
        {
          "name": "G#3",
          "midi": 56,
          "time": 73.75,
          "velocity": 0.7874015748031497,
          "duration": 0.125
        },
        {
          "name": "C#4",
          "midi": 61,
          "time": 73.875,
          "velocity": 0.7874015748031497,
          "duration": 0.25
        },
        {
          "name": "C#4",
          "midi": 61,
          "time": 74.125,
          "velocity": 0.7874015748031497,
          "duration": 0.125
        },
        {
          "name": "D#4",
          "midi": 63,
          "time": 74.25,
          "velocity": 0.7874015748031497,
          "duration": 0.25
        },
        {
          "name": "F4",
          "midi": 65,
          "time": 74.5,
          "velocity": 0.7874015748031497,
          "duration": 0.25
        },
        {
          "name": "C#4",
          "midi": 61,
          "time": 74.75,
          "velocity": 0.7874015748031497,
          "duration": 0.125
        },
        {
          "name": "D#4",
          "midi": 63,
          "time": 74.875,
          "velocity": 0.7874015748031497,
          "duration": 0.25
        },
        {
          "name": "A#3",
          "midi": 58,
          "time": 75.125,
          "velocity": 0.7874015748031497,
          "duration": 0.25
        },
        {
          "name": "C#4",
          "midi": 61,
          "time": 75.75,
          "velocity": 0.7874015748031497,
          "duration": 0.125
        },
        {
          "name": "F4",
          "midi": 65,
          "time": 75.875,
          "velocity": 0.7874015748031497,
          "duration": 0.375
        },
        {
          "name": "F#4",
          "midi": 66,
          "time": 76.25,
          "velocity": 0.7874015748031497,
          "duration": 0.25
        },
        {
          "name": "F4",
          "midi": 65,
          "time": 76.5,
          "velocity": 0.7874015748031497,
          "duration": 0.25
        },
        {
          "name": "C#4",
          "midi": 61,
          "time": 76.75,
          "velocity": 0.7874015748031497,
          "duration": 0.125
        },
        {
          "name": "D#4",
          "midi": 63,
          "time": 76.875,
          "velocity": 0.7874015748031497,
          "duration": 0.375
        },
        {
          "name": "F4",
          "midi": 65,
          "time": 77.25,
          "velocity": 0.7874015748031497,
          "duration": 0.25
        },
        {
          "name": "F#4",
          "midi": 66,
          "time": 77.5,
          "velocity": 0.7874015748031497,
          "duration": 0.25
        },
        {
          "name": "F4",
          "midi": 65,
          "time": 77.75,
          "velocity": 0.7874015748031497,
          "duration": 0.125
        },
        {
          "name": "D#4",
          "midi": 63,
          "time": 77.875,
          "velocity": 0.7874015748031497,
          "duration": 0.25
        },
        {
          "name": "C#4",
          "midi": 61,
          "time": 78.25,
          "velocity": 0.7874015748031497,
          "duration": 0.25
        },
        {
          "name": "F4",
          "midi": 65,
          "time": 88.125,
          "velocity": 0.7874015748031497,
          "duration": 0.125
        },
        {
          "name": "F4",
          "midi": 65,
          "time": 88.25,
          "velocity": 0.7874015748031497,
          "duration": 0.125
        },
        {
          "name": "F4",
          "midi": 65,
          "time": 88.375,
          "velocity": 0.7874015748031497,
          "duration": 0.125
        },
        {
          "name": "F4",
          "midi": 65,
          "time": 88.5,
          "velocity": 0.7874015748031497,
          "duration": 0.125
        },
        {
          "name": "F4",
          "midi": 65,
          "time": 88.625,
          "velocity": 0.7874015748031497,
          "duration": 0.125
        },
        {
          "name": "F4",
          "midi": 65,
          "time": 88.75,
          "velocity": 0.7874015748031497,
          "duration": 0.125
        },
        {
          "name": "D#4",
          "midi": 63,
          "time": 88.875,
          "velocity": 0.7874015748031497,
          "duration": 0.25
        },
        {
          "name": "G#3",
          "midi": 56,
          "time": 89.25,
          "velocity": 0.7874015748031497,
          "duration": 0.25
        },
        {
          "name": "G#3",
          "midi": 56,
          "time": 89.75,
          "velocity": 0.7874015748031497,
          "duration": 0.125
        },
        {
          "name": "C#4",
          "midi": 61,
          "time": 89.875,
          "velocity": 0.7874015748031497,
          "duration": 0.25
        },
        {
          "name": "C#4",
          "midi": 61,
          "time": 90.125,
          "velocity": 0.7874015748031497,
          "duration": 0.125
        },
        {
          "name": "D#4",
          "midi": 63,
          "time": 90.25,
          "velocity": 0.7874015748031497,
          "duration": 0.25
        },
        {
          "name": "F4",
          "midi": 65,
          "time": 90.5,
          "velocity": 0.7874015748031497,
          "duration": 0.25
        },
        {
          "name": "C#4",
          "midi": 61,
          "time": 90.75,
          "velocity": 0.7874015748031497,
          "duration": 0.125
        },
        {
          "name": "D#4",
          "midi": 63,
          "time": 90.875,
          "velocity": 0.7874015748031497,
          "duration": 0.25
        },
        {
          "name": "A#3",
          "midi": 58,
          "time": 91.125,
          "velocity": 0.7874015748031497,
          "duration": 0.25
        },
        {
          "name": "C#4",
          "midi": 61,
          "time": 91.75,
          "velocity": 0.7874015748031497,
          "duration": 0.125
        },
        {
          "name": "F4",
          "midi": 65,
          "time": 91.875,
          "velocity": 0.7874015748031497,
          "duration": 0.375
        },
        {
          "name": "F#4",
          "midi": 66,
          "time": 92.25,
          "velocity": 0.7874015748031497,
          "duration": 0.25
        },
        {
          "name": "F4",
          "midi": 65,
          "time": 92.5,
          "velocity": 0.7874015748031497,
          "duration": 0.25
        },
        {
          "name": "C#4",
          "midi": 61,
          "time": 92.75,
          "velocity": 0.7874015748031497,
          "duration": 0.125
        },
        {
          "name": "D#4",
          "midi": 63,
          "time": 92.875,
          "velocity": 0.7874015748031497,
          "duration": 0.375
        },
        {
          "name": "F4",
          "midi": 65,
          "time": 93.25,
          "velocity": 0.7874015748031497,
          "duration": 0.25
        },
        {
          "name": "F#4",
          "midi": 66,
          "time": 93.5,
          "velocity": 0.7874015748031497,
          "duration": 0.25
        },
        {
          "name": "F4",
          "midi": 65,
          "time": 93.75,
          "velocity": 0.7874015748031497,
          "duration": 0.125
        },
        {
          "name": "D#4",
          "midi": 63,
          "time": 93.875,
          "velocity": 0.7874015748031497,
          "duration": 0.25
        },
        {
          "name": "C#4",
          "midi": 61,
          "time": 94.25,
          "velocity": 0.7874015748031497,
          "duration": 0.25
        },
        {
          "name": "C#4",
          "midi": 61,
          "time": 95.75,
          "velocity": 0.7874015748031497,
          "duration": 0.125
        },
        {
          "name": "G#4",
          "midi": 68,
          "time": 95.875,
          "velocity": 0.7874015748031497,
          "duration": 0.375
        },
        {
          "name": "F4",
          "midi": 65,
          "time": 96.25,
          "velocity": 0.7874015748031497,
          "duration": 0.25
        },
        {
          "name": "D#4",
          "midi": 63,
          "time": 96.5,
          "velocity": 0.7874015748031497,
          "duration": 0.25
        },
        {
          "name": "C#4",
          "midi": 61,
          "time": 96.75,
          "velocity": 0.7874015748031497,
          "duration": 0.125
        },
        {
          "name": "G#4",
          "midi": 68,
          "time": 96.875,
          "velocity": 0.7874015748031497,
          "duration": 0.375
        },
        {
          "name": "F4",
          "midi": 65,
          "time": 97.25,
          "velocity": 0.7874015748031497,
          "duration": 0.25
        },
        {
          "name": "D#4",
          "midi": 63,
          "time": 97.5,
          "velocity": 0.7874015748031497,
          "duration": 0.25
        },
        {
          "name": "C#4",
          "midi": 61,
          "time": 97.75,
          "velocity": 0.7874015748031497,
          "duration": 0.125
        },
        {
          "name": "A#4",
          "midi": 70,
          "time": 97.875,
          "velocity": 0.7874015748031497,
          "duration": 0.375
        },
        {
          "name": "G#4",
          "midi": 68,
          "time": 98.25,
          "velocity": 0.7874015748031497,
          "duration": 0.25
        },
        {
          "name": "F#4",
          "midi": 66,
          "time": 98.5,
          "velocity": 0.7874015748031497,
          "duration": 0.25
        },
        {
          "name": "F4",
          "midi": 65,
          "time": 98.75,
          "velocity": 0.7874015748031497,
          "duration": 0.125
        },
        {
          "name": "F#4",
          "midi": 66,
          "time": 98.875,
          "velocity": 0.7874015748031497,
          "duration": 0.375
        },
        {
          "name": "D#4",
          "midi": 63,
          "time": 99.25,
          "velocity": 0.7874015748031497,
          "duration": 0.25
        },
        {
          "name": "A#3",
          "midi": 58,
          "time": 103.75,
          "velocity": 0.7874015748031497,
          "duration": 0.25
        },
        {
          "name": "C#4",
          "midi": 61,
          "time": 104,
          "velocity": 0.7874015748031497,
          "duration": 0.5
        },
        {
          "name": "D#4",
          "midi": 63,
          "time": 104.5,
          "velocity": 0.7874015748031497,
          "duration": 0.25
        },
        {
          "name": "C4",
          "midi": 60,
          "time": 104.75,
          "velocity": 0.7874015748031497,
          "duration": 0.5
        },
        {
          "name": "A#3",
          "midi": 58,
          "time": 105.75,
          "velocity": 0.7874015748031497,
          "duration": 0.25
        },
        {
          "name": "C#4",
          "midi": 61,
          "time": 106,
          "velocity": 0.7874015748031497,
          "duration": 0.25
        },
        {
          "name": "A#3",
          "midi": 58,
          "time": 106.25,
          "velocity": 0.7874015748031497,
          "duration": 0.25
        },
        {
          "name": "B3",
          "midi": 59,
          "time": 106.5,
          "velocity": 0.7874015748031497,
          "duration": 0.125
        },
        {
          "name": "A#3",
          "midi": 58,
          "time": 106.625,
          "velocity": 0.7874015748031497,
          "duration": 0.25
        },
        {
          "name": "D4",
          "midi": 62,
          "time": 106.875,
          "velocity": 0.7874015748031497,
          "duration": 0.375
        },
        {
          "name": "B3",
          "midi": 59,
          "time": 107.25,
          "velocity": 0.7874015748031497,
          "duration": 0.25
        },
        {
          "name": "B3",
          "midi": 59,
          "time": 107.5,
          "velocity": 0.7874015748031497,
          "duration": 0.25
        },
        {
          "name": "A#3",
          "midi": 58,
          "time": 107.75,
          "velocity": 0.7874015748031497,
          "duration": 0.125
        },
        {
          "name": "G#3",
          "midi": 56,
          "time": 107.875,
          "velocity": 0.7874015748031497,
          "duration": 0.375
        },
        {
          "name": "F#3",
          "midi": 54,
          "time": 108.25,
          "velocity": 0.7874015748031497,
          "duration": 0.375
        },
        {
          "name": "F#3",
          "midi": 54,
          "time": 108.625,
          "velocity": 0.7874015748031497,
          "duration": 0.125
        },
        {
          "name": "F#3",
          "midi": 54,
          "time": 108.75,
          "velocity": 0.7874015748031497,
          "duration": 0.125
        },
        {
          "name": "F3",
          "midi": 53,
          "time": 108.875,
          "velocity": 0.7874015748031497,
          "duration": 0.375
        },
        {
          "name": "F#3",
          "midi": 54,
          "time": 109.25,
          "velocity": 0.7874015748031497,
          "duration": 0.25
        },
        {
          "name": "F3",
          "midi": 53,
          "time": 109.5,
          "velocity": 0.7874015748031497,
          "duration": 0.25
        },
        {
          "name": "D#3",
          "midi": 51,
          "time": 109.75,
          "velocity": 0.7874015748031497,
          "duration": 0.125
        },
        {
          "name": "D#3",
          "midi": 51,
          "time": 109.875,
          "velocity": 0.7874015748031497,
          "duration": 0.375
        },
        {
          "name": "C#3",
          "midi": 49,
          "time": 110.25,
          "velocity": 0.7874015748031497,
          "duration": 0.75
        },
        {
          "name": "A#3",
          "midi": 58,
          "time": 111.75,
          "velocity": 0.7874015748031497,
          "duration": 0.25
        },
        {
          "name": "C#4",
          "midi": 61,
          "time": 112,
          "velocity": 0.7874015748031497,
          "duration": 0.5
        },
        {
          "name": "D#4",
          "midi": 63,
          "time": 112.5,
          "velocity": 0.7874015748031497,
          "duration": 0.25
        },
        {
          "name": "C4",
          "midi": 60,
          "time": 112.75,
          "velocity": 0.7874015748031497,
          "duration": 0.5
        },
        {
          "name": "A#3",
          "midi": 58,
          "time": 113.75,
          "velocity": 0.7874015748031497,
          "duration": 0.25
        },
        {
          "name": "C#4",
          "midi": 61,
          "time": 114,
          "velocity": 0.7874015748031497,
          "duration": 0.25
        },
        {
          "name": "A#3",
          "midi": 58,
          "time": 114.25,
          "velocity": 0.7874015748031497,
          "duration": 0.25
        },
        {
          "name": "B3",
          "midi": 59,
          "time": 114.5,
          "velocity": 0.7874015748031497,
          "duration": 0.125
        },
        {
          "name": "A#3",
          "midi": 58,
          "time": 114.625,
          "velocity": 0.7874015748031497,
          "duration": 0.25
        },
        {
          "name": "D4",
          "midi": 62,
          "time": 114.875,
          "velocity": 0.7874015748031497,
          "duration": 0.375
        },
        {
          "name": "B3",
          "midi": 59,
          "time": 115.25,
          "velocity": 0.7874015748031497,
          "duration": 0.25
        },
        {
          "name": "B3",
          "midi": 59,
          "time": 115.5,
          "velocity": 0.7874015748031497,
          "duration": 0.25
        },
        {
          "name": "A#3",
          "midi": 58,
          "time": 115.75,
          "velocity": 0.7874015748031497,
          "duration": 0.125
        },
        {
          "name": "G#3",
          "midi": 56,
          "time": 115.875,
          "velocity": 0.7874015748031497,
          "duration": 0.375
        },
        {
          "name": "F#3",
          "midi": 54,
          "time": 116.25,
          "velocity": 0.7874015748031497,
          "duration": 0.375
        },
        {
          "name": "F#3",
          "midi": 54,
          "time": 116.625,
          "velocity": 0.7874015748031497,
          "duration": 0.125
        },
        {
          "name": "F#3",
          "midi": 54,
          "time": 116.75,
          "velocity": 0.7874015748031497,
          "duration": 0.125
        },
        {
          "name": "F3",
          "midi": 53,
          "time": 116.875,
          "velocity": 0.7874015748031497,
          "duration": 0.375
        },
        {
          "name": "F#3",
          "midi": 54,
          "time": 117.25,
          "velocity": 0.7874015748031497,
          "duration": 0.25
        },
        {
          "name": "F3",
          "midi": 53,
          "time": 117.5,
          "velocity": 0.7874015748031497,
          "duration": 0.25
        },
        {
          "name": "D#3",
          "midi": 51,
          "time": 117.75,
          "velocity": 0.7874015748031497,
          "duration": 0.125
        },
        {
          "name": "D#3",
          "midi": 51,
          "time": 117.875,
          "velocity": 0.7874015748031497,
          "duration": 0.375
        },
        {
          "name": "C#3",
          "midi": 49,
          "time": 118.25,
          "velocity": 0.7874015748031497,
          "duration": 0.75
        },
        {
          "name": "A#3",
          "midi": 58,
          "time": 120,
          "velocity": 0.7874015748031497,
          "duration": 0.25
        },
        {
          "name": "C#4",
          "midi": 61,
          "time": 120.25,
          "velocity": 0.7874015748031497,
          "duration": 0.25
        },
        {
          "name": "F4",
          "midi": 65,
          "time": 120.5,
          "velocity": 0.7874015748031497,
          "duration": 0.25
        },
        {
          "name": "A#3",
          "midi": 58,
          "time": 120.75,
          "velocity": 0.7874015748031497,
          "duration": 0.25
        },
        {
          "name": "C#4",
          "midi": 61,
          "time": 121,
          "velocity": 0.7874015748031497,
          "duration": 0.25
        },
        {
          "name": "F4",
          "midi": 65,
          "time": 121.25,
          "velocity": 0.7874015748031497,
          "duration": 0.25
        },
        {
          "name": "B3",
          "midi": 59,
          "time": 122,
          "velocity": 0.7874015748031497,
          "duration": 0.25
        },
        {
          "name": "C#4",
          "midi": 61,
          "time": 122.25,
          "velocity": 0.7874015748031497,
          "duration": 0.25
        },
        {
          "name": "F4",
          "midi": 65,
          "time": 122.5,
          "velocity": 0.7874015748031497,
          "duration": 0.25
        },
        {
          "name": "B3",
          "midi": 59,
          "time": 122.75,
          "velocity": 0.7874015748031497,
          "duration": 0.25
        },
        {
          "name": "C#4",
          "midi": 61,
          "time": 123,
          "velocity": 0.7874015748031497,
          "duration": 0.25
        },
        {
          "name": "G#4",
          "midi": 68,
          "time": 123.25,
          "velocity": 0.7874015748031497,
          "duration": 0.25
        },
        {
          "name": "F#4",
          "midi": 66,
          "time": 124,
          "velocity": 0.7874015748031497,
          "duration": 0.25
        },
        {
          "name": "A#4",
          "midi": 70,
          "time": 124.25,
          "velocity": 0.7874015748031497,
          "duration": 0.25
        },
        {
          "name": "C#5",
          "midi": 73,
          "time": 124.5,
          "velocity": 0.7874015748031497,
          "duration": 0.25
        },
        {
          "name": "F#4",
          "midi": 66,
          "time": 124.75,
          "velocity": 0.7874015748031497,
          "duration": 0.25
        },
        {
          "name": "A4",
          "midi": 69,
          "time": 125,
          "velocity": 0.7874015748031497,
          "duration": 0.25
        },
        {
          "name": "D#5",
          "midi": 75,
          "time": 125.25,
          "velocity": 0.7874015748031497,
          "duration": 0.25
        },
        {
          "name": "F4",
          "midi": 65,
          "time": 126,
          "velocity": 0.7874015748031497,
          "duration": 0.25
        },
        {
          "name": "G#4",
          "midi": 68,
          "time": 126.25,
          "velocity": 0.7874015748031497,
          "duration": 0.25
        },
        {
          "name": "C#5",
          "midi": 73,
          "time": 126.5,
          "velocity": 0.7874015748031497,
          "duration": 0.25
        },
        {
          "name": "F4",
          "midi": 65,
          "time": 126.75,
          "velocity": 0.7874015748031497,
          "duration": 0.25
        },
        {
          "name": "D#4",
          "midi": 63,
          "time": 127,
          "velocity": 0.7874015748031497,
          "duration": 0.25
        },
        {
          "name": "C#4",
          "midi": 61,
          "time": 127.25,
          "velocity": 0.7874015748031497,
          "duration": 0.25
        }
      ],
      "controlChanges": {},
      "id": 0,
      "name": "",
      "channelNumber": 0,
      "isPercussion": false
    }
  ]
}